<?xml version="1.0" encoding="UTF-8" standalone="no"?>
<!-- Created with Inkscape (http://www.inkscape.org/) -->

<svg
   width="31.741821mm"
   height="42.49086mm"
   viewBox="0 0 31.741821 42.49086"
   version="1.1"
   id="svg5"
   xml:space="preserve"
   sodipodi:docname="template2.svg"
   inkscape:version="1.1.2 (0a00cf5339, 2022-02-04)"
   inkscape:export-filename="..\Documents\App Saves\GitHub\Glitch\mask.png"
   inkscape:export-xdpi="1600.41"
   inkscape:export-ydpi="1600.41"
   xmlns:inkscape="http://www.inkscape.org/namespaces/inkscape"
   xmlns:sodipodi="http://sodipodi.sourceforge.net/DTD/sodipodi-0.dtd"
   xmlns:xlink="http://www.w3.org/1999/xlink"
   xmlns="http://www.w3.org/2000/svg"
   xmlns:svg="http://www.w3.org/2000/svg"><sodipodi:namedview
     id="namedview119"
     pagecolor="#ffffff"
     bordercolor="#666666"
     borderopacity="1.0"
     inkscape:pageshadow="2"
     inkscape:pageopacity="0.0"
     inkscape:pagecheckerboard="0"
     inkscape:document-units="mm"
     showgrid="false"
     showguides="true"
     inkscape:guide-bbox="true"
     inkscape:zoom="5.0140563"
     inkscape:cx="54.147777"
     inkscape:cy="101.91349"
     inkscape:window-width="1440"
     inkscape:window-height="841"
     inkscape:window-x="0"
     inkscape:window-y="0"
     inkscape:window-maximized="1"
     inkscape:current-layer="svg5"
     inkscape:showpageshadow="2"
     inkscape:deskcolor="#d1d1d1"><sodipodi:guide
       position="12.365294,32.366734"
       orientation="0,-1"
       id="guide296"
       inkscape:locked="false" /><sodipodi:guide
       position="6.4099011,28.061084"
       orientation="0,-1"
       id="guide2390"
       inkscape:locked="false" /><sodipodi:guide
       position="6.4099011,7.6505447"
       orientation="0,-1"
       id="guide2829"
       inkscape:locked="false" /><sodipodi:guide
       position="15.702918,9.9594046"
       orientation="0,-1"
       id="guide3002"
       inkscape:locked="false" /><sodipodi:guide
       position="15.702918,11.959405"
       orientation="0,-1"
       id="guide3042"
       inkscape:locked="false" /></sodipodi:namedview><defs
     id="defs2"><linearGradient
       inkscape:collect="always"
       id="linearGradient1275"><stop
         style="stop-color:#ff2525;stop-opacity:1;"
         offset="0"
         id="stop1271" /><stop
         style="stop-color:#1f05ff;stop-opacity:1;"
         offset="1"
         id="stop1273" /></linearGradient><linearGradient
       inkscape:collect="always"
       xlink:href="#linearGradient1275"
       id="linearGradient1277"
       x1="0"
       y1="21.24543"
       x2="31.741821"
       y2="21.24543"
       gradientUnits="userSpaceOnUse" /><clipPath
       clipPathUnits="userSpaceOnUse"
       id="clipPath1709"><g
         id="g1763"
         transform="translate(-69.318613,-90.742505)"
         style="display:inline"><path
           style="color:#000000;fill:#a4a4a4;fill-opacity:1;stroke-linecap:round;stroke-linejoin:round;-inkscape-stroke:none"
           d="m 78.212891,112.38867 c -0.329603,0 -0.683594,0.29711 -0.683594,0.77149 0,0.28742 0.13205,0.49431 0.28125,0.60937 0.1492,0.11507 0.290958,0.15235 0.402344,0.15235 0.157407,0 0.275592,-0.0371 0.355468,-0.0781 0.07988,-0.041 0.132813,-0.0977 0.132813,-0.0977 a 0.155,0.155 0 0 0 -0.02148,-0.21875 0.155,0.155 0 0 0 -0.21875,0.0215 c 0,0 0.0037,5.8e-4 -0.0332,0.0195 -0.03691,0.0189 -0.103535,0.043 -0.214843,0.043 -0.0044,0 -0.126448,-0.0212 -0.212891,-0.0879 -0.08644,-0.0667 -0.160156,-0.16355 -0.160156,-0.36328 0,-0.31938 0.23963,-0.46289 0.373047,-0.46289 0.157699,0 0.248046,0.10937 0.248046,0.10937 a 0.155,0.155 0 0 0 0.21875,0.0215 0.155,0.155 0 0 0 0.02148,-0.21875 c 0,0 -0.182959,-0.22071 -0.488281,-0.22071 z"
           id="path1711" /><path
           style="color:#000000;fill:#a4a4a4;fill-opacity:1;stroke-linecap:round;stroke-linejoin:round;-inkscape-stroke:none"
           d="m 81.894531,112.38867 c -0.329603,0 -0.683594,0.29711 -0.683594,0.77149 0,0.28742 0.132051,0.49431 0.28125,0.60937 0.1492,0.11507 0.290959,0.15235 0.402344,0.15235 0.157408,0 0.275592,-0.0371 0.355469,-0.0781 0.07988,-0.041 0.130859,-0.0977 0.130859,-0.0977 a 0.155,0.155 0 0 0 -0.01953,-0.21875 0.155,0.155 0 0 0 -0.21875,0.0215 c 0,0 0.0037,5.8e-4 -0.0332,0.0195 -0.03691,0.0189 -0.103535,0.043 -0.214844,0.043 -0.0044,0 -0.126447,-0.0212 -0.21289,-0.0879 -0.08644,-0.0667 -0.16211,-0.16355 -0.16211,-0.36328 0,-0.31938 0.241584,-0.46289 0.375,-0.46289 0.157699,0 0.248047,0.10937 0.248047,0.10937 a 0.155,0.155 0 0 0 0.21875,0.0215 0.155,0.155 0 0 0 0.02148,-0.21875 c 0,0 -0.182958,-0.22071 -0.488281,-0.22071 z"
           id="path1713" /><path
           style="color:#000000;fill:#a4a4a4;fill-opacity:1;stroke-linecap:round;stroke-linejoin:round;-inkscape-stroke:none"
           d="m 79.408203,112.41602 c -0.09045,0 -0.159704,0.0491 -0.207031,0.0977 -0.04733,0.0486 -0.08213,0.10371 -0.115235,0.16602 -0.0662,0.12461 -0.121478,0.27762 -0.167968,0.42773 -0.09298,0.30022 -0.150391,0.5957 -0.150391,0.59571 a 0.15499949,0.15499949 0 0 0 0.121094,0.18164 0.15499949,0.15499949 0 0 0 0.18164,-0.1211 c 0,0 0.05773,-0.28614 0.144532,-0.5664 0.0434,-0.14014 0.09508,-0.27803 0.144531,-0.3711 0.01869,-0.0352 0.03451,-0.0541 0.04883,-0.0723 0.01448,0.0183 0.02994,0.037 0.04883,0.0723 0.04997,0.0932 0.102372,0.2329 0.146485,0.37305 0.08822,0.28031 0.146484,0.56445 0.146484,0.56445 a 0.15499949,0.15499949 0 0 0 0.181641,0.1211 0.15499949,0.15499949 0 0 0 0.121093,-0.1836 c 0,0 -0.05982,-0.29552 -0.154297,-0.5957 -0.04724,-0.15009 -0.10119,-0.30127 -0.167968,-0.42578 -0.03339,-0.0623 -0.06974,-0.11758 -0.117188,-0.16602 -0.04745,-0.0484 -0.114629,-0.0977 -0.205078,-0.0977 z"
           id="path1715" /><path
           style="color:#000000;fill:#a4a4a4;fill-opacity:1;stroke-linecap:round;stroke-linejoin:round;-inkscape-stroke:none"
           d="m 79.789062,113.2168 a 0.15499949,0.15499949 0 0 0 -0.11914,0.0137 c -0.215094,0.1207 -0.343334,0.0793 -0.523438,-0.006 a 0.15499949,0.15499949 0 0 0 -0.207031,0.0742 0.15499949,0.15499949 0 0 0 0.07422,0.20703 c 0.215952,0.10207 0.50417,0.16497 0.808594,-0.006 a 0.15499949,0.15499949 0 0 0 0.05859,-0.21094 0.15499949,0.15499949 0 0 0 -0.0918,-0.0723 z"
           id="path1717" /><path
           style="color:#000000;fill:#a4a4a4;fill-opacity:1;stroke-linecap:round;stroke-linejoin:round;-inkscape-stroke:none"
           d="m 80.355469,112.42578 a 0.15499949,0.15499949 0 0 0 -0.15625,0.1543 v 1.18164 a 0.15501499,0.15501499 0 0 0 0.15625,0.15625 h 0.763672 a 0.15499949,0.15499949 0 0 0 0.15625,-0.15625 0.15499949,0.15499949 0 0 0 -0.15625,-0.1543 h -0.609375 v -1.02734 a 0.15499949,0.15499949 0 0 0 -0.154297,-0.1543 z"
           id="path1719" /><path
           style="color:#000000;fill:#a4a4a4;fill-opacity:1;stroke-linecap:round;stroke-linejoin:round;-inkscape-stroke:none"
           d="m 84.060547,112.42578 a 0.15499949,0.15499949 0 0 0 -0.154297,0.1543 v 1.18164 a 0.15501499,0.15501499 0 0 0 0.154297,0.15625 h 0.765625 a 0.15499949,0.15499949 0 0 0 0.154297,-0.15625 0.15499949,0.15499949 0 0 0 -0.154297,-0.1543 h -0.611328 v -1.02734 a 0.15499949,0.15499949 0 0 0 -0.154297,-0.1543 z"
           id="path1721" /><path
           style="color:#000000;fill:#a4a4a4;fill-opacity:1;stroke-linecap:round;stroke-linejoin:round;-inkscape-stroke:none"
           d="m 83.5625,112.39648 a 0.15499949,0.15499949 0 0 0 -0.152344,0.15625 c 0,0 3.36e-4,0.24787 -0.0078,0.51172 -0.0041,0.13193 -0.0095,0.26747 -0.01953,0.375 -0.005,0.0538 -0.0115,0.10146 -0.01758,0.13477 -0.0061,0.0333 -0.0186,0.0558 -0.0078,0.0371 0.02501,-0.0433 0.0092,-0.009 -0.04492,0.004 -0.05409,0.0126 -0.133233,0.02 -0.210938,0.0195 -0.0777,-4.5e-4 -0.156623,-0.009 -0.208984,-0.0215 -0.05236,-0.0127 -0.06184,-0.0498 -0.0332,0.008 0.0098,0.0197 -0.01886,-0.0781 -0.02734,-0.18554 -0.0085,-0.10743 -0.0116,-0.242 -0.01367,-0.3711 -0.0041,-0.25818 0,-0.49804 0,-0.49804 a 0.15499949,0.15499949 0 0 0 -0.15039,-0.15821 0.15499949,0.15499949 0 0 0 -0.158203,0.15039 c 0,0 -0.0062,0.24605 -0.002,0.51172 0.0021,0.13284 0.0063,0.27004 0.01563,0.38867 0.0094,0.11863 0.0096,0.20015 0.05859,0.29883 0.06068,0.12209 0.15229,0.13544 0.238281,0.15625 0.08599,0.0208 0.181964,0.0307 0.279297,0.0312 0.09733,5.6e-4 0.195192,-0.009 0.283203,-0.0293 0.08801,-0.0204 0.177633,-0.0366 0.242188,-0.14844 0.03056,-0.0529 0.03622,-0.091 0.04492,-0.13867 0.0087,-0.0477 0.01597,-0.10078 0.02148,-0.16016 0.01103,-0.11875 0.0173,-0.25899 0.02148,-0.39453 0.0084,-0.27108 0.0059,-0.52344 0.0059,-0.52344 a 0.15499949,0.15499949 0 0 0 -0.15625,-0.1543 z"
           id="path1723" /><path
           style="color:#000000;fill:#a4a4a4;fill-opacity:1;stroke-linecap:round;stroke-linejoin:round;-inkscape-stroke:none"
           d="m 86.03125,112.39648 a 0.15499949,0.15499949 0 0 0 -0.154297,0.15625 c 0,0 0.0023,0.24787 -0.0059,0.51172 -0.0041,0.13193 -0.01149,0.26747 -0.02148,0.375 -0.005,0.0538 -0.0095,0.10146 -0.01563,0.13477 -0.0061,0.0333 -0.0186,0.0558 -0.0078,0.0371 0.02501,-0.0433 0.0072,-0.009 -0.04687,0.004 -0.05409,0.0126 -0.13128,0.02 -0.208985,0.0195 -0.0777,-4.5e-4 -0.156623,-0.009 -0.208984,-0.0215 -0.05236,-0.0127 -0.06379,-0.0498 -0.03516,0.008 0.0098,0.0197 -0.0169,-0.0781 -0.02539,-0.18554 -0.0085,-0.10743 -0.01355,-0.242 -0.01563,-0.3711 -0.0041,-0.25818 0.002,-0.49804 0.002,-0.49804 a 0.15499949,0.15499949 0 0 0 -0.15039,-0.15821 0.15499949,0.15499949 0 0 0 -0.160157,0.15039 c 0,0 -0.0043,0.24605 0,0.51172 0.0021,0.13284 0.0063,0.27004 0.01563,0.38867 0.0094,0.11863 0.0076,0.20015 0.05664,0.29883 0.06068,0.12209 0.154243,0.13544 0.240234,0.15625 0.08599,0.0208 0.181964,0.0307 0.279297,0.0312 0.09733,5.6e-4 0.193238,-0.009 0.28125,-0.0293 0.08801,-0.0204 0.179586,-0.0366 0.244141,-0.14844 0.03056,-0.0529 0.03622,-0.091 0.04492,-0.13867 0.0087,-0.0477 0.01402,-0.10078 0.01953,-0.16016 0.01103,-0.11875 0.01925,-0.25899 0.02344,-0.39453 0.0084,-0.27108 0.0059,-0.52344 0.0059,-0.52344 a 0.15499949,0.15499949 0 0 0 -0.15625,-0.1543 z"
           id="path1725" /><path
           style="color:#000000;fill:#a4a4a4;fill-opacity:1;stroke-linecap:round;stroke-linejoin:round;-inkscape-stroke:none"
           d="m 86.775391,112.42578 c -0.0842,-0.002 -0.183531,0.0107 -0.273438,0.0742 -0.08991,0.0635 -0.151111,0.17789 -0.162109,0.31055 -0.01023,0.12332 0.05548,0.22388 0.123047,0.29297 0.06757,0.0691 0.14493,0.12229 0.21875,0.17187 0.07382,0.0496 0.144004,0.0954 0.1875,0.13281 0.0435,0.0374 0.0461,0.0591 0.04492,0.041 0.0047,0.0729 -0.01337,0.0992 -0.03906,0.12305 -0.02569,0.0239 -0.07138,0.043 -0.125,0.0469 -0.05362,0.004 -0.111156,-0.009 -0.140625,-0.0254 -0.02947,-0.016 -0.02148,-0.0155 -0.02148,-0.0137 a 0.15499949,0.15499949 0 0 0 -0.15625,-0.1543 0.15499949,0.15499949 0 0 0 -0.154297,0.1543 c 0,0.13114 0.08917,0.23575 0.183593,0.28711 0.09443,0.0513 0.201389,0.0705 0.310547,0.0625 0.109159,-0.008 0.223482,-0.0463 0.314453,-0.13086 0.09097,-0.0846 0.146443,-0.21971 0.136719,-0.36914 -0.008,-0.12243 -0.08362,-0.19677 -0.152344,-0.25586 -0.06872,-0.0591 -0.144142,-0.10876 -0.214843,-0.15625 -0.0707,-0.0475 -0.135736,-0.0939 -0.171875,-0.13086 -0.03614,-0.0369 -0.03516,-0.0488 -0.03516,-0.0488 0.0055,-0.0668 0.01884,-0.0752 0.03125,-0.084 0.01241,-0.009 0.04394,-0.0187 0.08789,-0.0176 0.08791,0.002 0.195313,0.0449 0.195313,0.0449 a 0.15499949,0.15499949 0 0 0 0.203125,-0.082 0.15499949,0.15499949 0 0 0 -0.08203,-0.20313 c 0,0 -0.140185,-0.0659 -0.308593,-0.0703 z"
           id="path1727" /><path
           style="color:#000000;fill:#a4a4a4;fill-opacity:1;stroke-linecap:round;stroke-linejoin:round;-inkscape-stroke:none"
           d="m 88.337891,112.35547 c -0.205973,0 -0.360356,0.0483 -0.462891,0.10156 -0.102535,0.0532 -0.164062,0.1211 -0.164063,0.1211 a 0.15499949,0.15499949 0 0 0 0.01758,0.21875 0.15499949,0.15499949 0 0 0 0.21875,-0.0176 c 0,0 0.0095,-0.0153 0.07031,-0.0469 0.06076,-0.0315 0.162484,-0.0684 0.320313,-0.0684 0.136692,0 0.141314,0.03 0.162109,0.0801 0.0208,0.0501 0.02148,0.1325 0.02148,0.20313 0,-0.0416 0.0056,-0.0269 -0.0039,-0.01 -0.0095,0.0171 -0.02657,0.0442 -0.05078,0.0762 -0.04843,0.064 -0.121002,0.14662 -0.203125,0.23047 -0.164247,0.16771 -0.377237,0.3442 -0.50586,0.41016 a 0.15501499,0.15501499 0 0 0 0.07227,0.29297 h 0.878906 a 0.15499949,0.15499949 0 0 0 0.15625,-0.15625 0.15499949,0.15499949 0 0 0 -0.15625,-0.1543 h -0.443359 c 0.07363,-0.0647 0.151714,-0.10733 0.21875,-0.17578 0.08944,-0.0913 0.168423,-0.18029 0.228516,-0.25977 0.03005,-0.0397 0.05568,-0.0763 0.07617,-0.11328 0.02049,-0.037 0.04297,-0.0691 0.04297,-0.14062 0,-0.0493 0.01283,-0.18321 -0.04492,-0.32227 -0.05775,-0.13906 -0.222109,-0.26953 -0.449218,-0.26953 z"
           id="path1729" /><path
           style="color:#000000;fill:#a4a4a4;fill-opacity:1;stroke-linecap:round;stroke-linejoin:round;-inkscape-stroke:none"
           d="m 91.099609,112.35547 c -0.205973,0 -0.360355,0.0483 -0.46289,0.10156 -0.102535,0.0532 -0.164063,0.1211 -0.164063,0.1211 a 0.15499949,0.15499949 0 0 0 0.01758,0.21875 0.15499949,0.15499949 0 0 0 0.21875,-0.0176 c 0,0 0.0095,-0.0153 0.07031,-0.0469 0.06076,-0.0315 0.162484,-0.0684 0.320312,-0.0684 0.136693,0 0.141315,0.03 0.16211,0.0801 0.0208,0.0501 0.02148,0.1325 0.02148,0.20313 0,-0.0416 0.0056,-0.0269 -0.0039,-0.01 -0.0095,0.0171 -0.02657,0.0442 -0.05078,0.0762 -0.04843,0.064 -0.121002,0.14662 -0.203125,0.23047 -0.164247,0.16771 -0.377237,0.3442 -0.50586,0.41016 a 0.15501499,0.15501499 0 0 0 0.07227,0.29297 h 0.878906 a 0.15499949,0.15499949 0 0 0 0.15625,-0.15625 0.15499949,0.15499949 0 0 0 -0.15625,-0.1543 H 91.02735 c 0.07363,-0.0647 0.151713,-0.10733 0.21875,-0.17578 0.08944,-0.0913 0.168423,-0.18029 0.228515,-0.25977 0.03005,-0.0397 0.05568,-0.0763 0.07617,-0.11328 0.02049,-0.037 0.04297,-0.0691 0.04297,-0.14062 0,-0.0493 0.01283,-0.18321 -0.04492,-0.32227 -0.05775,-0.13906 -0.222109,-0.26953 -0.449219,-0.26953 z"
           id="path1731" /><path
           style="color:#000000;fill:#a4a4a4;fill-opacity:1;stroke-linecap:round;stroke-linejoin:round;-inkscape-stroke:none"
           d="m 92.181641,112.33398 c -0.206065,0.0257 -0.376954,0.125 -0.376954,0.125 a 0.15499949,0.15499949 0 0 0 -0.05859,0.21094 0.15499949,0.15499949 0 0 0 0.210937,0.0605 c 0,0 0.137862,-0.0725 0.261719,-0.0879 0.06193,-0.008 0.110884,-0.001 0.138672,0.0156 0.02779,0.0166 0.05643,0.0427 0.07227,0.14258 0.01246,0.0786 -0.0018,0.0991 -0.02148,0.1211 -0.01973,0.022 -0.06336,0.0449 -0.121094,0.0586 -0.11546,0.0274 -0.257812,0.0137 -0.257812,0.0137 v 0.002 c -0.0014,4e-5 -0.02344,-0.004 -0.02344,-0.004 a 0.15501499,0.15501499 0 0 0 -0.01563,0.30859 c 0,0 0.02203,-0.002 0.02344,-0.002 v 0.004 c 0,0 0.14861,-0.002 0.28125,0.0391 0.06632,0.0203 0.124703,0.0517 0.15625,0.084 0.03155,0.0323 0.0463,0.0593 0.04102,0.12891 -0.0013,0.0169 8.09e-4,0.0168 -0.03906,0.0371 -0.03987,0.0203 -0.113083,0.0373 -0.191406,0.0449 -0.07832,0.008 -0.161451,0.007 -0.222657,0.004 -0.0306,-10e-4 -0.05678,-0.002 -0.07422,-0.004 -0.0087,-7.6e-4 -0.01518,-0.001 -0.01953,-0.002 -0.0043,-4.6e-4 -0.0059,0 -0.0059,0 a 0.15499949,0.15499949 0 0 0 -0.169922,0.12109 0.15499949,0.15499949 0 0 0 0.119141,0.18359 c 0,0 0.0194,0.003 0.02539,0.004 0.006,6.2e-4 0.01484,10e-4 0.02539,0.002 0.02111,0.002 0.05036,0.004 0.08594,0.006 0.07116,0.003 0.165662,0.004 0.265625,-0.006 0.09996,-0.01 0.204583,-0.0282 0.302734,-0.0781 0.09815,-0.05 0.19674,-0.15339 0.207031,-0.28906 0.01125,-0.14828 -0.04407,-0.28223 -0.128906,-0.36915 -0.02618,-0.0268 -0.05881,-0.0309 -0.08789,-0.0508 0.01727,-0.014 0.03895,-0.0118 0.05469,-0.0293 0.08096,-0.0901 0.121111,-0.22894 0.09766,-0.37696 -0.02591,-0.16349 -0.107165,-0.29262 -0.21875,-0.35937 -0.111585,-0.0667 -0.232905,-0.0714 -0.335937,-0.0586 z"
           id="path1733" /><path
           style="color:#000000;fill:#a4a4a4;fill-opacity:1;stroke-linecap:round;stroke-linejoin:round;-inkscape-stroke:none"
           d="m 89.699219,112.37891 c -0.395156,0 -0.697264,0.35736 -0.697266,0.77148 2e-6,0.41413 0.30211,0.77148 0.697266,0.77149 0.395156,-1e-5 0.699217,-0.35736 0.699218,-0.77149 -10e-7,-0.41412 -0.304062,-0.77148 -0.699218,-0.77148 z m 0,0.31054 c 0.205325,0 0.38867,0.19467 0.388672,0.46094 -2e-6,0.26627 -0.183347,0.46094 -0.388672,0.46094 -0.205325,0 -0.388671,-0.19467 -0.388672,-0.46094 10e-7,-0.26627 0.183347,-0.46094 0.388672,-0.46094 z"
           id="path1735" /><path
           style="color:#000000;fill:#a4a4a4;fill-opacity:1;stroke-linecap:round;stroke-linejoin:round;-inkscape-stroke:none"
           d="m 84.417969,92.417969 a 0.2550255,0.2550255 0 0 0 -0.28711,0.103515 l -2,2.992188 a 0.2550255,0.2550255 0 0 0 -0.04297,0.142578 v 11.82227 a 0.2550255,0.2550255 0 0 0 0.07617,0.17968 l 2,2 a 0.2550255,0.2550255 0 0 0 0.435547,-0.17968 V 92.662109 a 0.2550255,0.2550255 0 0 0 -0.18164,-0.24414 z m -0.330078,1.08789 v 15.357421 l -1.488282,-1.49023 V 95.734375 Z"
           id="path1737" /><path
           style="color:#000000;fill:#a4a4a4;fill-opacity:1;stroke-linecap:round;stroke-linejoin:round;-inkscape-stroke:none"
           d="m 81.683594,100.61133 -3.955078,0.008 a 0.2550255,0.2550255 0 0 0 -0.230469,0.14649 l -2,4.29882 a 0.2550255,0.2550255 0 0 0 0,0.21485 l 2,4.30664 a 0.2550255,0.2550255 0 0 0 0.230469,0.14844 h 6.615234 a 0.255,0.255 0 0 0 0.255859,-0.25586 0.255,0.255 0 0 0 -0.255859,-0.25586 h -6.453125 l -1.880859,-4.05078 1.880859,-4.04297 3.792969,-0.008 a 0.255,0.255 0 0 0 0.255859,-0.25586 0.255,0.255 0 0 0 -0.255859,-0.2539 z"
           id="path1739" /><path
           style="color:#000000;fill:#a4a4a4;fill-opacity:1;stroke-linecap:round;stroke-linejoin:round;-inkscape-stroke:none"
           d="m 79.009766,102.60938 a 0.2550255,0.2550255 0 0 0 -0.232422,0.15039 l -1.050782,2.30664 a 0.2550255,0.2550255 0 0 0 0,0.21093 l 1.050782,2.30664 a 0.2550255,0.2550255 0 0 0 0.232422,0.1504 h 3.333984 a 0.255,0.255 0 0 0 0.255859,-0.25586 0.255,0.255 0 0 0 -0.255859,-0.25586 h -3.169922 l -0.935547,-2.05078 0.935547,-2.05079 h 2.509766 a 0.255,0.255 0 0 0 0.255859,-0.25586 0.255,0.255 0 0 0 -0.255859,-0.2539 z"
           id="path1741" /><path
           style="color:#000000;fill:#a4a4a4;fill-opacity:1;stroke-linecap:round;stroke-linejoin:round;-inkscape-stroke:none"
           d="m 84.90625,100.64844 a 0.255,0.255 0 0 0 -0.08789,0.34961 l 3.771485,6.30078 -0.945313,1.34961 -2.386719,-4.03321 a 0.255,0.255 0 0 0 -0.349609,-0.0898 0.255,0.255 0 0 0 -0.08984,0.34766 l 2.587891,4.375 a 0.2550255,0.2550255 0 0 0 0.429687,0.0176 l 1.265625,-1.8086 a 0.2550255,0.2550255 0 0 0 0.0098,-0.27734 l -3.853516,-6.44336 a 0.255,0.255 0 0 0 -0.351562,-0.0879 z"
           id="path1743" /><path
           style="color:#000000;fill:#a4a4a4;fill-opacity:1;stroke-linecap:round;stroke-linejoin:round;-inkscape-stroke:none"
           d="m 93.40625,100.61133 a 0.2550255,0.2550255 0 0 0 -0.208984,0.10937 l -7.083985,10.11914 a 0.255,0.255 0 0 0 0.0625,0.35547 0.255,0.255 0 0 0 0.355469,-0.0625 l 7.007812,-10.01172 h 1.816407 l -6.802735,9.71875 a 0.255,0.255 0 0 0 0.0625,0.35547 0.255,0.255 0 0 0 0.355469,-0.0625 l 7.083984,-10.11914 a 0.2550255,0.2550255 0 0 0 -0.208984,-0.40234 z"
           id="path1745" /><path
           style="color:#000000;fill:#a4a4a4;fill-opacity:1;stroke-linecap:round;stroke-linejoin:round;-inkscape-stroke:none"
           d="m 72.099609,111.35742 a 0.255,0.255 0 0 0 -0.255859,0.25586 0.255,0.255 0 0 0 0.255859,0.25391 h 26.09375 a 0.255,0.255 0 0 0 0.25586,-0.25391 0.255,0.255 0 0 0 -0.25586,-0.25586 z"
           id="path1747" /><path
           style="color:#000000;fill:#a4a4a4;fill-opacity:1;stroke-linecap:round;stroke-linejoin:round;-inkscape-stroke:none"
           d="m 72.099609,114.41602 a 0.255,0.255 0 0 0 -0.255859,0.25586 0.255,0.255 0 0 0 0.255859,0.2539 h 26.09375 a 0.255,0.255 0 0 0 0.25586,-0.2539 0.255,0.255 0 0 0 -0.25586,-0.25586 z"
           id="path1749" /><path
           style="color:#000000;fill:#a4a4a4;fill-opacity:1;stroke-linecap:round;stroke-linejoin:round;-inkscape-stroke:none"
           d="m 83.177734,115.16211 a 0.255,0.255 0 0 0 -0.164062,0.10547 l -0.878906,1.2539 a 0.2550255,0.2550255 0 0 0 -0.04687,0.14649 v 11.2207 a 0.2550255,0.2550255 0 0 0 0.07617,0.18164 l 2,2 a 0.2550255,0.2550255 0 0 0 0.435547,-0.18164 v -12.51172 l 1.271485,-1.8164 a 0.255,0.255 0 0 0 -0.0625,-0.35547 0.255,0.255 0 0 0 -0.355469,0.0625 l -1.318359,1.88281 a 0.2550255,0.2550255 0 0 0 -0.04687,0.14649 v 11.97656 l -1.488282,-1.49024 v -11.03515 l 0.832032,-1.1875 a 0.255,0.255 0 0 0 -0.06445,-0.35547 0.255,0.255 0 0 0 -0.189453,-0.043 z"
           id="path1751" /><path
           style="color:#000000;fill:#a4a4a4;fill-opacity:1;stroke-linecap:round;stroke-linejoin:round;-inkscape-stroke:none"
           d="m 79.009766,123.02148 a 0.2550255,0.2550255 0 0 0 -0.232422,0.14844 l -1.050782,2.30664 a 0.2550255,0.2550255 0 0 0 0,0.21485 l 1.052735,2.24414 a 0.2550255,0.2550255 0 0 0 0.224609,0.14648 l 3.335938,0.0625 a 0.255,0.255 0 0 0 0.259765,-0.25 0.255,0.255 0 0 0 -0.251953,-0.25976 l -3.173828,-0.0606 -0.935547,-1.99219 0.935547,-2.05078 h 2.509766 a 0.255,0.255 0 0 0 0.255859,-0.25586 0.255,0.255 0 0 0 -0.255859,-0.25391 z"
           id="path1753" /><path
           style="color:#000000;fill:#a4a4a4;fill-opacity:1;stroke-linecap:round;stroke-linejoin:round;-inkscape-stroke:none"
           d="m 85.021484,121.01953 a 0.255,0.255 0 0 0 -0.255859,0.25391 0.255,0.255 0 0 0 0.255859,0.25586 h 1.697266 l 7.822266,7.8125 h -2.119141 l -6.244141,-6.24805 a 0.2550255,0.2550255 0 0 0 -0.18164,-0.0742 h -0.97461 a 0.255,0.255 0 0 0 -0.255859,0.25391 0.255,0.255 0 0 0 0.255859,0.25586 h 0.869141 l 6.246094,6.24804 a 0.2550255,0.2550255 0 0 0 0.179687,0.0742 h 2.839844 a 0.2550255,0.2550255 0 0 0 0.179687,-0.43554 l -8.330078,-8.32227 a 0.2550255,0.2550255 0 0 0 -0.18164,-0.0742 z"
           id="path1755" /><path
           style="color:#000000;fill:#a4a4a4;fill-opacity:1;stroke-linecap:round;stroke-linejoin:round;-inkscape-stroke:none"
           d="m 81.683594,121.01953 -3.955078,0.01 a 0.2550255,0.2550255 0 0 0 -0.230469,0.14648 l -2,4.29883 a 0.2550255,0.2550255 0 0 0 0,0.21484 l 2,4.30664 a 0.2550255,0.2550255 0 0 0 0.230469,0.14844 h 6.615234 a 0.255,0.255 0 0 0 0.255859,-0.25586 0.255,0.255 0 0 0 -0.255859,-0.2539 h -6.453125 l -1.880859,-4.05274 1.880859,-4.04297 3.792969,-0.01 a 0.255,0.255 0 0 0 0.255859,-0.25586 0.255,0.255 0 0 0 -0.255859,-0.25391 z"
           id="path1757" /><path
           style="color:#000000;fill:#a4a4a4;fill-opacity:1;stroke-linecap:round;stroke-linejoin:round;-inkscape-stroke:none"
           d="m 93.130859,120.85547 a 0.2550255,0.2550255 0 0 0 -0.179687,0.0762 l -2.792969,2.7832 a 0.255,0.255 0 0 0 -0.002,0.36133 0.255,0.255 0 0 0 0.361328,0 l 2.71875,-2.70898 h 2.044922 l -3.705078,3.75195 a 0.255,0.255 0 0 0 0.002,0.35938 0.255,0.255 0 0 0 0.359375,-0.002 l 4.136719,-4.18554 a 0.2550255,0.2550255 0 0 0 -0.181641,-0.43555 z"
           id="path1759" /><path
           style="color:#000000;fill:#a4a4a4;fill-opacity:1;stroke-linecap:round;stroke-linejoin:round;-inkscape-stroke:none"
           d="m 87.816406,126.05664 -3.652344,3.65234 a 0.2550255,0.2550255 0 0 0 0.179688,0.43555 h 2.916016 a 0.2550255,0.2550255 0 0 0 0.183593,-0.0781 l 2.160157,-2.24805 a 0.255,0.255 0 0 0 -0.0078,-0.35938 0.255,0.255 0 0 0 -0.359375,0.006 l -2.085937,2.16993 h -2.191407 l 3.216797,-3.21875 a 0.255,0.255 0 0 0 0,-0.35938 0.255,0.255 0 0 0 -0.359375,0 z"
           id="path1761" /></g></clipPath></defs><rect
     style="display:inline;fill:url(#linearGradient1277);fill-opacity:1;stroke-width:0.309999;stroke-linecap:round;stroke-linejoin:round"
     id="rect1283"
     width="31.741821"
     height="42.49086"
     x="0"
     y="0"
     clip-path="url(#clipPath1709)"
     inkscape:label="rect1283" /></svg>
