<?xml version="1.0" encoding="utf-8"?>
<!-- Generator: Adobe Illustrator 19.2.1, SVG Export Plug-In . SVG Version: 6.00 Build 0)  -->
<svg version="1.1" id="Layer_1" xmlns="http://www.w3.org/2000/svg" xmlns:xlink="http://www.w3.org/1999/xlink" x="0px" y="0px"
	 viewBox="0 0 400 400" enable-background="new 0 0 400 400" xml:space="preserve">
<g>
	<g>
		<defs>
			<polygon id="SVGID_1_" points="275,199.992 275,350.992 275,351.492 276,351.492 276,350.992 276,199.992 276,199.492 
				275,199.492 			"/>
		</defs>
		<clipPath id="SVGID_2_">
			<use xlink:href="#SVGID_1_"  overflow="visible"/>
		</clipPath>
		<g clip-path="url(#SVGID_2_)">
			<defs>
				<rect id="SVGID_3_" x="-73" y="-356.508" width="960" height="2050"/>
			</defs>
			<clipPath id="SVGID_4_">
				<use xlink:href="#SVGID_3_"  overflow="visible"/>
			</clipPath>
			<rect x="270" y="194.492" clip-path="url(#SVGID_4_)" fill="#E0DEDF" width="11" height="162"/>
		</g>
	</g>
	<g>
		<defs>
			<polygon id="SVGID_5_" points="200.5,275.492 350.5,275.492 351,275.492 351,274.492 350.5,274.492 200.5,274.492 200,274.492 
				200,275.492 			"/>
		</defs>
		<clipPath id="SVGID_6_">
			<use xlink:href="#SVGID_5_"  overflow="visible"/>
		</clipPath>
		<g clip-path="url(#SVGID_6_)">
			<defs>
				<rect id="SVGID_7_" x="-73" y="-356.508" width="960" height="2050"/>
			</defs>
			<clipPath id="SVGID_8_">
				<use xlink:href="#SVGID_7_"  overflow="visible"/>
			</clipPath>
			<rect x="195" y="269.492" clip-path="url(#SVGID_8_)" fill="#E0DEDF" width="161" height="11"/>
		</g>
	</g>
	<g>
		<defs>
			<polygon id="SVGID_9_" points="200.5,237.492 350.5,237.492 351,237.492 351,236.492 350.5,236.492 200.5,236.492 200,236.492 
				200,237.492 			"/>
		</defs>
		<clipPath id="SVGID_10_">
			<use xlink:href="#SVGID_9_"  overflow="visible"/>
		</clipPath>
		<g clip-path="url(#SVGID_10_)">
			<defs>
				<rect id="SVGID_11_" x="-73" y="-356.508" width="960" height="2050"/>
			</defs>
			<clipPath id="SVGID_12_">
				<use xlink:href="#SVGID_11_"  overflow="visible"/>
			</clipPath>
			<rect x="195" y="231.492" clip-path="url(#SVGID_12_)" fill="#E0DEDF" width="161" height="11"/>
		</g>
	</g>
	<g>
		<defs>
			<polygon id="SVGID_13_" points="200.5,313.492 350.5,313.492 351,313.492 351,312.492 350.5,312.492 200.5,312.492 200,312.492 
				200,313.492 			"/>
		</defs>
		<clipPath id="SVGID_14_">
			<use xlink:href="#SVGID_13_"  overflow="visible"/>
		</clipPath>
		<g clip-path="url(#SVGID_14_)">
			<defs>
				<rect id="SVGID_15_" x="-73" y="-356.508" width="960" height="2050"/>
			</defs>
			<clipPath id="SVGID_16_">
				<use xlink:href="#SVGID_15_"  overflow="visible"/>
			</clipPath>
			<rect x="195" y="307.492" clip-path="url(#SVGID_16_)" fill="#E0DEDF" width="161" height="11"/>
		</g>
	</g>
	<g>
		<defs>
			<polygon id="SVGID_17_" points="313,199.992 313,349.992 313,350.492 314,350.492 314,349.992 314,199.992 314,199.492 
				313,199.492 			"/>
		</defs>
		<clipPath id="SVGID_18_">
			<use xlink:href="#SVGID_17_"  overflow="visible"/>
		</clipPath>
		<g clip-path="url(#SVGID_18_)">
			<defs>
				<rect id="SVGID_19_" x="-73" y="-356.508" width="960" height="2050"/>
			</defs>
			<clipPath id="SVGID_20_">
				<use xlink:href="#SVGID_19_"  overflow="visible"/>
			</clipPath>
			<rect x="308" y="194.492" clip-path="url(#SVGID_20_)" fill="#E0DEDF" width="11" height="161"/>
		</g>
	</g>
	<g>
		<defs>
			<polygon id="SVGID_21_" points="237,199.992 237,349.992 237,350.492 238,350.492 238,349.992 238,199.992 238,199.492 
				237,199.492 			"/>
		</defs>
		<clipPath id="SVGID_22_">
			<use xlink:href="#SVGID_21_"  overflow="visible"/>
		</clipPath>
		<g clip-path="url(#SVGID_22_)">
			<defs>
				<rect id="SVGID_23_" x="-73" y="-356.508" width="960" height="2050"/>
			</defs>
			<clipPath id="SVGID_24_">
				<use xlink:href="#SVGID_23_"  overflow="visible"/>
			</clipPath>
			<rect x="232" y="194.492" clip-path="url(#SVGID_24_)" fill="#E0DEDF" width="11" height="161"/>
		</g>
	</g>
	<g>
		<defs>
			<polygon id="SVGID_25_" points="123,199.992 123,350.992 123,351.492 124,351.492 124,350.992 124,199.992 124,199.492 
				123,199.492 			"/>
		</defs>
		<clipPath id="SVGID_26_">
			<use xlink:href="#SVGID_25_"  overflow="visible"/>
		</clipPath>
		<g clip-path="url(#SVGID_26_)">
			<defs>
				<rect id="SVGID_27_" x="-73" y="-356.508" width="960" height="2050"/>
			</defs>
			<clipPath id="SVGID_28_">
				<use xlink:href="#SVGID_27_"  overflow="visible"/>
			</clipPath>
			<rect x="118" y="194.492" clip-path="url(#SVGID_28_)" fill="#E0DEDF" width="11" height="162"/>
		</g>
	</g>
	<g>
		<defs>
			<polygon id="SVGID_29_" points="48.5,275.492 198.5,275.492 199,275.492 199,274.492 198.5,274.492 48.5,274.492 48,274.492 
				48,275.492 			"/>
		</defs>
		<clipPath id="SVGID_30_">
			<use xlink:href="#SVGID_29_"  overflow="visible"/>
		</clipPath>
		<g clip-path="url(#SVGID_30_)">
			<defs>
				<rect id="SVGID_31_" x="-73" y="-356.508" width="960" height="2050"/>
			</defs>
			<clipPath id="SVGID_32_">
				<use xlink:href="#SVGID_31_"  overflow="visible"/>
			</clipPath>
			<rect x="43" y="269.492" clip-path="url(#SVGID_32_)" fill="#E0DEDF" width="161" height="11"/>
		</g>
	</g>
	<g>
		<defs>
			<polygon id="SVGID_33_" points="48.5,237.492 198.5,237.492 199,237.492 199,236.492 198.5,236.492 48.5,236.492 48,236.492 
				48,237.492 			"/>
		</defs>
		<clipPath id="SVGID_34_">
			<use xlink:href="#SVGID_33_"  overflow="visible"/>
		</clipPath>
		<g clip-path="url(#SVGID_34_)">
			<defs>
				<rect id="SVGID_35_" x="-73" y="-356.508" width="960" height="2050"/>
			</defs>
			<clipPath id="SVGID_36_">
				<use xlink:href="#SVGID_35_"  overflow="visible"/>
			</clipPath>
			<rect x="43" y="231.492" clip-path="url(#SVGID_36_)" fill="#E0DEDF" width="161" height="11"/>
		</g>
	</g>
	<g>
		<defs>
			<polygon id="SVGID_37_" points="48.5,313.492 198.5,313.492 199,313.492 199,312.492 198.5,312.492 48.5,312.492 48,312.492 
				48,313.492 			"/>
		</defs>
		<clipPath id="SVGID_38_">
			<use xlink:href="#SVGID_37_"  overflow="visible"/>
		</clipPath>
		<g clip-path="url(#SVGID_38_)">
			<defs>
				<rect id="SVGID_39_" x="-73" y="-356.508" width="960" height="2050"/>
			</defs>
			<clipPath id="SVGID_40_">
				<use xlink:href="#SVGID_39_"  overflow="visible"/>
			</clipPath>
			<rect x="43" y="307.492" clip-path="url(#SVGID_40_)" fill="#E0DEDF" width="161" height="11"/>
		</g>
	</g>
	<g>
		<defs>
			<polygon id="SVGID_41_" points="161,199.992 161,349.992 161,350.492 162,350.492 162,349.992 162,199.992 162,199.492 
				161,199.492 			"/>
		</defs>
		<clipPath id="SVGID_42_">
			<use xlink:href="#SVGID_41_"  overflow="visible"/>
		</clipPath>
		<g clip-path="url(#SVGID_42_)">
			<defs>
				<rect id="SVGID_43_" x="-73" y="-356.508" width="960" height="2050"/>
			</defs>
			<clipPath id="SVGID_44_">
				<use xlink:href="#SVGID_43_"  overflow="visible"/>
			</clipPath>
			<rect x="156" y="194.492" clip-path="url(#SVGID_44_)" fill="#E0DEDF" width="11" height="161"/>
		</g>
	</g>
	<g>
		<defs>
			<polygon id="SVGID_45_" points="85,199.992 85,349.992 85,350.492 86,350.492 86,349.992 86,199.992 86,199.492 85,199.492 			
				"/>
		</defs>
		<clipPath id="SVGID_46_">
			<use xlink:href="#SVGID_45_"  overflow="visible"/>
		</clipPath>
		<g clip-path="url(#SVGID_46_)">
			<defs>
				<rect id="SVGID_47_" x="-73" y="-356.508" width="960" height="2050"/>
			</defs>
			<clipPath id="SVGID_48_">
				<use xlink:href="#SVGID_47_"  overflow="visible"/>
			</clipPath>
			<rect x="80" y="194.492" clip-path="url(#SVGID_48_)" fill="#E0DEDF" width="11" height="161"/>
		</g>
	</g>
	<g>
		<defs>
			<polygon id="SVGID_49_" points="275,47.992 275,198.992 275,199.492 276,199.492 276,198.992 276,47.992 276,47.492 275,47.492 
							"/>
		</defs>
		<clipPath id="SVGID_50_">
			<use xlink:href="#SVGID_49_"  overflow="visible"/>
		</clipPath>
		<g clip-path="url(#SVGID_50_)">
			<defs>
				<rect id="SVGID_51_" x="-73" y="-356.508" width="960" height="2050"/>
			</defs>
			<clipPath id="SVGID_52_">
				<use xlink:href="#SVGID_51_"  overflow="visible"/>
			</clipPath>
			<rect x="270" y="42.492" clip-path="url(#SVGID_52_)" fill="#E0DEDF" width="11" height="162"/>
		</g>
	</g>
	<g>
		<defs>
			<polygon id="SVGID_53_" points="200.5,122.492 350.5,122.492 351,122.492 351,121.492 350.5,121.492 200.5,121.492 200,121.492 
				200,122.492 			"/>
		</defs>
		<clipPath id="SVGID_54_">
			<use xlink:href="#SVGID_53_"  overflow="visible"/>
		</clipPath>
		<g clip-path="url(#SVGID_54_)">
			<defs>
				<rect id="SVGID_55_" x="-73" y="-356.508" width="960" height="2050"/>
			</defs>
			<clipPath id="SVGID_56_">
				<use xlink:href="#SVGID_55_"  overflow="visible"/>
			</clipPath>
			<rect x="195" y="116.492" clip-path="url(#SVGID_56_)" fill="#E0DEDF" width="161" height="11"/>
		</g>
	</g>
	<g>
		<defs>
			<polygon id="SVGID_57_" points="200.5,84.492 350.5,84.492 351,84.492 351,83.492 350.5,83.492 200.5,83.492 200,83.492 
				200,84.492 			"/>
		</defs>
		<clipPath id="SVGID_58_">
			<use xlink:href="#SVGID_57_"  overflow="visible"/>
		</clipPath>
		<g clip-path="url(#SVGID_58_)">
			<defs>
				<rect id="SVGID_59_" x="-73" y="-356.508" width="960" height="2050"/>
			</defs>
			<clipPath id="SVGID_60_">
				<use xlink:href="#SVGID_59_"  overflow="visible"/>
			</clipPath>
			<rect x="195" y="78.492" clip-path="url(#SVGID_60_)" fill="#E0DEDF" width="161" height="11"/>
		</g>
	</g>
	<g>
		<defs>
			<polygon id="SVGID_61_" points="200.5,160.492 350.5,160.492 351,160.492 351,159.492 350.5,159.492 200.5,159.492 200,159.492 
				200,160.492 			"/>
		</defs>
		<clipPath id="SVGID_62_">
			<use xlink:href="#SVGID_61_"  overflow="visible"/>
		</clipPath>
		<g clip-path="url(#SVGID_62_)">
			<defs>
				<rect id="SVGID_63_" x="-73" y="-356.508" width="960" height="2050"/>
			</defs>
			<clipPath id="SVGID_64_">
				<use xlink:href="#SVGID_63_"  overflow="visible"/>
			</clipPath>
			<rect x="195" y="154.492" clip-path="url(#SVGID_64_)" fill="#E0DEDF" width="161" height="11"/>
		</g>
	</g>
	<g>
		<defs>
			<polygon id="SVGID_65_" points="313,47.992 313,197.992 313,198.492 314,198.492 314,197.992 314,47.992 314,47.492 313,47.492 
							"/>
		</defs>
		<clipPath id="SVGID_66_">
			<use xlink:href="#SVGID_65_"  overflow="visible"/>
		</clipPath>
		<g clip-path="url(#SVGID_66_)">
			<defs>
				<rect id="SVGID_67_" x="-73" y="-356.508" width="960" height="2050"/>
			</defs>
			<clipPath id="SVGID_68_">
				<use xlink:href="#SVGID_67_"  overflow="visible"/>
			</clipPath>
			<rect x="308" y="42.492" clip-path="url(#SVGID_68_)" fill="#E0DEDF" width="11" height="161"/>
		</g>
	</g>
	<g>
		<defs>
			<polygon id="SVGID_69_" points="237,47.992 237,197.992 237,198.492 238,198.492 238,197.992 238,47.992 238,47.492 237,47.492 
							"/>
		</defs>
		<clipPath id="SVGID_70_">
			<use xlink:href="#SVGID_69_"  overflow="visible"/>
		</clipPath>
		<g clip-path="url(#SVGID_70_)">
			<defs>
				<rect id="SVGID_71_" x="-73" y="-356.508" width="960" height="2050"/>
			</defs>
			<clipPath id="SVGID_72_">
				<use xlink:href="#SVGID_71_"  overflow="visible"/>
			</clipPath>
			<rect x="232" y="42.492" clip-path="url(#SVGID_72_)" fill="#E0DEDF" width="11" height="161"/>
		</g>
	</g>
	<g>
		<defs>
			<polygon id="SVGID_73_" points="123,47.992 123,198.992 123,199.492 124,199.492 124,198.992 124,47.992 124,47.492 123,47.492 
							"/>
		</defs>
		<clipPath id="SVGID_74_">
			<use xlink:href="#SVGID_73_"  overflow="visible"/>
		</clipPath>
		<g clip-path="url(#SVGID_74_)">
			<defs>
				<rect id="SVGID_75_" x="-73" y="-356.508" width="960" height="2050"/>
			</defs>
			<clipPath id="SVGID_76_">
				<use xlink:href="#SVGID_75_"  overflow="visible"/>
			</clipPath>
			<rect x="118" y="42.492" clip-path="url(#SVGID_76_)" fill="#E0DEDF" width="11" height="162"/>
		</g>
	</g>
	<g>
		<defs>
			<polygon id="SVGID_77_" points="48.5,122.492 198.5,122.492 199,122.492 199,121.492 198.5,121.492 48.5,121.492 48,121.492 
				48,122.492 			"/>
		</defs>
		<clipPath id="SVGID_78_">
			<use xlink:href="#SVGID_77_"  overflow="visible"/>
		</clipPath>
		<g clip-path="url(#SVGID_78_)">
			<defs>
				<rect id="SVGID_79_" x="-73" y="-356.508" width="960" height="2050"/>
			</defs>
			<clipPath id="SVGID_80_">
				<use xlink:href="#SVGID_79_"  overflow="visible"/>
			</clipPath>
			<rect x="43" y="116.492" clip-path="url(#SVGID_80_)" fill="#E0DEDF" width="161" height="11"/>
		</g>
	</g>
	<g>
		<defs>
			<polygon id="SVGID_81_" points="48.5,84.492 198.5,84.492 199,84.492 199,83.492 198.5,83.492 48.5,83.492 48,83.492 48,84.492 
							"/>
		</defs>
		<clipPath id="SVGID_82_">
			<use xlink:href="#SVGID_81_"  overflow="visible"/>
		</clipPath>
		<g clip-path="url(#SVGID_82_)">
			<defs>
				<rect id="SVGID_83_" x="-73" y="-356.508" width="960" height="2050"/>
			</defs>
			<clipPath id="SVGID_84_">
				<use xlink:href="#SVGID_83_"  overflow="visible"/>
			</clipPath>
			<rect x="43" y="78.492" clip-path="url(#SVGID_84_)" fill="#E0DEDF" width="161" height="11"/>
		</g>
	</g>
	<g>
		<defs>
			<polygon id="SVGID_85_" points="48.5,160.492 198.5,160.492 199,160.492 199,159.492 198.5,159.492 48.5,159.492 48,159.492 
				48,160.492 			"/>
		</defs>
		<clipPath id="SVGID_86_">
			<use xlink:href="#SVGID_85_"  overflow="visible"/>
		</clipPath>
		<g clip-path="url(#SVGID_86_)">
			<defs>
				<rect id="SVGID_87_" x="-73" y="-356.508" width="960" height="2050"/>
			</defs>
			<clipPath id="SVGID_88_">
				<use xlink:href="#SVGID_87_"  overflow="visible"/>
			</clipPath>
			<rect x="43" y="154.492" clip-path="url(#SVGID_88_)" fill="#E0DEDF" width="161" height="11"/>
		</g>
	</g>
	<g>
		<defs>
			<polygon id="SVGID_89_" points="161,47.992 161,197.992 161,198.492 162,198.492 162,197.992 162,47.992 162,47.492 161,47.492 
							"/>
		</defs>
		<clipPath id="SVGID_90_">
			<use xlink:href="#SVGID_89_"  overflow="visible"/>
		</clipPath>
		<g clip-path="url(#SVGID_90_)">
			<defs>
				<rect id="SVGID_91_" x="-73" y="-356.508" width="960" height="2050"/>
			</defs>
			<clipPath id="SVGID_92_">
				<use xlink:href="#SVGID_91_"  overflow="visible"/>
			</clipPath>
			<rect x="156" y="42.492" clip-path="url(#SVGID_92_)" fill="#E0DEDF" width="11" height="161"/>
		</g>
	</g>
	<g>
		<defs>
			<polygon id="SVGID_93_" points="85,47.992 85,197.992 85,198.492 86,198.492 86,197.992 86,47.992 86,47.492 85,47.492 			"/>
		</defs>
		<clipPath id="SVGID_94_">
			<use xlink:href="#SVGID_93_"  overflow="visible"/>
		</clipPath>
		<g clip-path="url(#SVGID_94_)">
			<defs>
				<rect id="SVGID_95_" x="-73" y="-356.508" width="960" height="2050"/>
			</defs>
			<clipPath id="SVGID_96_">
				<use xlink:href="#SVGID_95_"  overflow="visible"/>
			</clipPath>
			<rect x="80" y="42.492" clip-path="url(#SVGID_96_)" fill="#E0DEDF" width="11" height="161"/>
		</g>
	</g>
	<g>
		<rect x="47" y="46.492" fill="none" stroke="#E0DEDF" stroke-width="2" stroke-miterlimit="10" width="305" height="305"/>
		<line fill="none" stroke="#E0DEDF" stroke-width="2" stroke-miterlimit="10" x1="199" y1="47.492" x2="199" y2="350.492"/>
		<line fill="none" stroke="#E0DEDF" stroke-width="2" stroke-miterlimit="10" x1="48" y1="198.492" x2="351" y2="198.492"/>
		<g>
			<path fill="#5F6261" d="M137.493,36.512l1.11-0.583c0.495,1.078,1.178,1.628,2.168,1.628c0.857,0,1.474-0.418,1.474-1.066
				c0-0.583-0.33-0.946-1.342-1.188l-0.869-0.209c-1.441-0.353-2.102-1.067-2.102-2.233c0-1.221,0.99-2.233,2.904-2.233
				c1.276,0,2.277,0.605,2.883,1.826l-1.089,0.572c-0.583-0.979-1.101-1.331-1.794-1.331c-0.924,0-1.408,0.396-1.408,0.99
				c0,0.527,0.275,0.857,1.101,1.056l0.88,0.209c1.749,0.418,2.409,1.255,2.409,2.365c0,1.387-1.254,2.344-3.047,2.344
				C139.165,38.657,138.054,37.92,137.493,36.512z"/>
			<path fill="#5F6261" d="M145.039,34.652v-0.021c0-2.476,1.331-4.005,3.487-4.005c2.146,0,3.477,1.529,3.477,4.005v0.021
				c0,2.476-1.331,4.005-3.477,4.005C146.37,38.657,145.039,37.128,145.039,34.652z M150.495,34.652v-0.021
				c0-2.024-0.78-2.971-1.969-2.971c-1.199,0-1.97,0.946-1.97,2.971v0.021c0,2.024,0.771,2.971,1.97,2.971
				C149.715,37.623,150.495,36.677,150.495,34.652z"/>
			<path fill="#5F6261" d="M156.842,30.626c1.661,0,2.729,0.869,3.048,2.553l-1.331,0.209c-0.209-1.145-0.771-1.717-1.705-1.717
				c-1.167,0-1.937,0.936-1.937,2.96v0.021c0,2.091,0.813,2.96,1.937,2.96c0.891,0,1.54-0.539,1.771-1.782l1.331,0.197
				c-0.308,1.75-1.507,2.63-3.124,2.63c-2.024,0-3.433-1.441-3.433-4.005v-0.021C153.398,32.199,154.696,30.626,156.842,30.626z"/>
			<path fill="#5F6261" d="M161.55,30.791h1.463v7.701h-1.463V30.791z"/>
			<path fill="#5F6261" d="M169.316,36.49h-2.915l-0.649,2.002h-1.364l2.673-7.701h1.75l2.685,7.701h-1.529L169.316,36.49z
				 M167.864,32.023l-1.111,3.389h2.211L167.864,32.023z"/>
			<path fill="#5F6261" d="M172.824,30.791h1.464v6.546h3.674v1.155h-5.138V30.791z"/>
			<path fill="#5F6261" d="M183.924,35.643v2.85h-1.464v-7.701h3.103c1.97,0,2.96,0.946,2.96,2.432c0,1.474-0.99,2.42-2.96,2.42
				H183.924z M183.924,34.608h1.484c1.101,0,1.585-0.539,1.585-1.386c0-0.848-0.484-1.387-1.585-1.387h-1.484V34.608z"/>
			<path fill="#5F6261" d="M192.91,35.379h-1.43v3.113h-1.452v-7.701h3.124c1.937,0,2.795,0.979,2.795,2.332
				c0,1.057-0.616,1.706-1.65,2.014l1.958,3.355h-1.606L192.91,35.379z M191.48,34.345h1.54c0.968,0,1.397-0.474,1.397-1.266
				c0-0.781-0.43-1.243-1.397-1.243h-1.54V34.345z"/>
			<path fill="#5F6261" d="M197.189,34.652v-0.021c0-2.476,1.331-4.005,3.487-4.005c2.146,0,3.477,1.529,3.477,4.005v0.021
				c0,2.476-1.331,4.005-3.477,4.005C198.521,38.657,197.189,37.128,197.189,34.652z M202.646,34.652v-0.021
				c0-2.024-0.78-2.971-1.969-2.971c-1.199,0-1.97,0.946-1.97,2.971v0.021c0,2.024,0.771,2.971,1.97,2.971
				C201.865,37.623,202.646,36.677,202.646,34.652z"/>
			<path fill="#5F6261" d="M210.973,37.282c-0.396,0.924-1.177,1.375-2.2,1.375c-1.926,0-3.224-1.463-3.224-4.005v-0.021
				c0-2.409,1.266-4.005,3.51-4.005c1.771,0,2.673,0.848,3.015,2.3l-1.31,0.197c-0.275-1.012-0.814-1.452-1.694-1.452
				c-1.243,0-2.002,0.902-2.002,2.96v0.021c0,2.035,0.726,2.96,2.002,2.96c0.99,0,1.728-0.66,1.728-2.014v-0.065h-1.815v-1.057
				h3.201v4.016h-1.144L210.973,37.282z"/>
			<path fill="#5F6261" d="M216.868,35.379h-1.43v3.113h-1.452v-7.701h3.124c1.937,0,2.795,0.979,2.795,2.332
				c0,1.057-0.616,1.706-1.65,2.014l1.958,3.355h-1.606L216.868,35.379z M215.438,34.345h1.54c0.968,0,1.397-0.474,1.397-1.266
				c0-0.781-0.43-1.243-1.397-1.243h-1.54V34.345z"/>
			<path fill="#5F6261" d="M221.708,30.791h5.28v1.101h-3.817v2.112h3.322v1.078h-3.322v2.31h3.817v1.101h-5.28V30.791z"/>
			<path fill="#5F6261" d="M228.176,36.512l1.111-0.583c0.495,1.078,1.177,1.628,2.167,1.628c0.858,0,1.475-0.418,1.475-1.066
				c0-0.583-0.33-0.946-1.343-1.188l-0.869-0.209c-1.44-0.353-2.101-1.067-2.101-2.233c0-1.221,0.99-2.233,2.904-2.233
				c1.276,0,2.277,0.605,2.882,1.826l-1.089,0.572c-0.583-0.979-1.1-1.331-1.793-1.331c-0.925,0-1.408,0.396-1.408,0.99
				c0,0.527,0.274,0.857,1.1,1.056l0.881,0.209c1.749,0.418,2.409,1.255,2.409,2.365c0,1.387-1.254,2.344-3.048,2.344
				C229.848,38.657,228.737,37.92,228.176,36.512z"/>
			<path fill="#5F6261" d="M235.436,36.512l1.111-0.583c0.495,1.078,1.177,1.628,2.167,1.628c0.858,0,1.475-0.418,1.475-1.066
				c0-0.583-0.33-0.946-1.343-1.188l-0.869-0.209c-1.44-0.353-2.101-1.067-2.101-2.233c0-1.221,0.99-2.233,2.904-2.233
				c1.276,0,2.277,0.605,2.882,1.826l-1.089,0.572c-0.583-0.979-1.1-1.331-1.793-1.331c-0.925,0-1.408,0.396-1.408,0.99
				c0,0.527,0.274,0.857,1.1,1.056l0.881,0.209c1.749,0.418,2.409,1.255,2.409,2.365c0,1.387-1.254,2.344-3.048,2.344
				C237.107,38.657,235.997,37.92,235.436,36.512z"/>
			<path fill="#5F6261" d="M243.389,30.791h1.463v7.701h-1.463V30.791z"/>
			<path fill="#5F6261" d="M248.68,38.492l-2.453-7.701h1.529l1.903,6.381l1.903-6.381h1.353l-2.464,7.701H248.68z"/>
			<path fill="#5F6261" d="M254.234,30.791h5.281v1.101h-3.817v2.112h3.322v1.078h-3.322v2.31h3.817v1.101h-5.281V30.791z"/>
		</g>
		<g>
			<path fill="#5F6261" d="M133.927,366.512l1.111-0.583c0.495,1.078,1.177,1.628,2.167,1.628c0.858,0,1.475-0.418,1.475-1.066
				c0-0.583-0.33-0.946-1.343-1.188l-0.869-0.209c-1.44-0.353-2.101-1.067-2.101-2.233c0-1.221,0.99-2.233,2.904-2.233
				c1.276,0,2.277,0.605,2.882,1.826l-1.089,0.572c-0.583-0.979-1.1-1.331-1.793-1.331c-0.925,0-1.408,0.396-1.408,0.99
				c0,0.527,0.274,0.857,1.1,1.056l0.881,0.209c1.749,0.418,2.409,1.255,2.409,2.365c0,1.387-1.254,2.344-3.048,2.344
				C135.599,368.657,134.488,367.92,133.927,366.512z"/>
			<path fill="#5F6261" d="M141.473,364.652v-0.021c0-2.476,1.331-4.005,3.487-4.005c2.146,0,3.477,1.529,3.477,4.005v0.021
				c0,2.476-1.331,4.005-3.477,4.005C142.804,368.657,141.473,367.128,141.473,364.652z M146.93,364.652v-0.021
				c0-2.024-0.781-2.971-1.97-2.971c-1.199,0-1.969,0.946-1.969,2.971v0.021c0,2.024,0.77,2.971,1.969,2.971
				C146.148,367.623,146.93,366.677,146.93,364.652z"/>
			<path fill="#5F6261" d="M153.276,360.626c1.661,0,2.729,0.869,3.047,2.553l-1.331,0.209c-0.209-1.145-0.77-1.717-1.705-1.717
				c-1.166,0-1.937,0.936-1.937,2.96v0.021c0,2.091,0.814,2.96,1.937,2.96c0.892,0,1.54-0.539,1.771-1.782l1.331,0.197
				c-0.308,1.75-1.507,2.63-3.124,2.63c-2.024,0-3.433-1.441-3.433-4.005v-0.021C149.833,362.199,151.131,360.626,153.276,360.626z"
				/>
			<path fill="#5F6261" d="M157.983,360.791h1.464v7.701h-1.464V360.791z"/>
			<path fill="#5F6261" d="M165.75,366.49h-2.915l-0.649,2.002h-1.364l2.674-7.701h1.749l2.685,7.701h-1.529L165.75,366.49z
				 M164.298,362.023l-1.11,3.389h2.211L164.298,362.023z"/>
			<path fill="#5F6261" d="M169.259,360.791h1.463v6.546h3.675v1.155h-5.138V360.791z"/>
			<path fill="#5F6261" d="M182.085,360.626c1.661,0,2.729,0.869,3.047,2.553l-1.331,0.209c-0.209-1.145-0.77-1.717-1.705-1.717
				c-1.166,0-1.937,0.936-1.937,2.96v0.021c0,2.091,0.814,2.96,1.937,2.96c0.892,0,1.54-0.539,1.771-1.782l1.331,0.197
				c-0.308,1.75-1.507,2.63-3.124,2.63c-2.024,0-3.433-1.441-3.433-4.005v-0.021C178.642,362.199,179.939,360.626,182.085,360.626z"
				/>
			<path fill="#5F6261" d="M186.418,364.652v-0.021c0-2.476,1.331-4.005,3.487-4.005c2.146,0,3.477,1.529,3.477,4.005v0.021
				c0,2.476-1.331,4.005-3.477,4.005C187.749,368.657,186.418,367.128,186.418,364.652z M191.875,364.652v-0.021
				c0-2.024-0.781-2.971-1.97-2.971c-1.199,0-1.969,0.946-1.969,2.971v0.021c0,2.024,0.77,2.971,1.969,2.971
				C191.094,367.623,191.875,366.677,191.875,364.652z"/>
			<path fill="#5F6261" d="M195.031,368.492v-7.701h1.485l3.388,5.479v-5.479h1.32v7.701h-1.43l-3.443-5.578v5.578H195.031z"/>
			<path fill="#5F6261" d="M202.644,366.512l1.11-0.583c0.495,1.078,1.178,1.628,2.168,1.628c0.857,0,1.474-0.418,1.474-1.066
				c0-0.583-0.33-0.946-1.342-1.188l-0.869-0.209c-1.441-0.353-2.102-1.067-2.102-2.233c0-1.221,0.99-2.233,2.904-2.233
				c1.276,0,2.277,0.605,2.883,1.826l-1.089,0.572c-0.583-0.979-1.101-1.331-1.794-1.331c-0.924,0-1.408,0.396-1.408,0.99
				c0,0.527,0.275,0.857,1.101,1.056l0.88,0.209c1.749,0.418,2.409,1.255,2.409,2.365c0,1.387-1.254,2.344-3.047,2.344
				C204.315,368.657,203.204,367.92,202.644,366.512z"/>
			<path fill="#5F6261" d="M210.552,360.791h5.281v1.101h-3.817v2.112h3.322v1.078h-3.322v2.31h3.817v1.101h-5.281V360.791z"/>
			<path fill="#5F6261" d="M220.54,365.379h-1.43v3.113h-1.452v-7.701h3.124c1.937,0,2.795,0.979,2.795,2.332
				c0,1.057-0.616,1.706-1.65,2.014l1.958,3.355h-1.606L220.54,365.379z M219.11,364.345h1.54c0.968,0,1.397-0.474,1.397-1.266
				c0-0.781-0.43-1.243-1.397-1.243h-1.54V364.345z"/>
			<path fill="#5F6261" d="M226.909,368.492l-2.453-7.701h1.529l1.903,6.381l1.903-6.381h1.353l-2.464,7.701H226.909z"/>
			<path fill="#5F6261" d="M236.204,366.49h-2.915l-0.649,2.002h-1.364l2.674-7.701h1.749l2.685,7.701h-1.529L236.204,366.49z
				 M234.752,362.023l-1.11,3.389h2.211L234.752,362.023z"/>
			<path fill="#5F6261" d="M242.255,361.946v6.546h-1.464v-6.546h-2.277v-1.155h6.029v1.155H242.255z"/>
			<path fill="#5F6261" d="M245.972,360.791h1.464v7.701h-1.464V360.791z"/>
			<path fill="#5F6261" d="M251.263,368.492l-2.453-7.701h1.529l1.903,6.381l1.903-6.381h1.353l-2.464,7.701H251.263z"/>
			<path fill="#5F6261" d="M256.817,360.791h5.281v1.101h-3.817v2.112h3.322v1.078h-3.322v2.31h3.817v1.101h-5.281V360.791z"/>
		</g>
		<g>
			<path fill="#5F6261" d="M368.701,152.794v5.281h-1.101v-3.817h-2.112v3.322h-1.078v-3.322h-2.31v3.817H361v-5.281H368.701z"/>
			<path fill="#5F6261" d="M368.866,162.684c0,1.661-0.869,2.729-2.553,3.047l-0.209-1.331c1.145-0.209,1.717-0.77,1.717-1.705
				c0-1.167-0.936-1.937-2.96-1.937h-0.021c-2.091,0-2.96,0.814-2.96,1.937c0,0.891,0.539,1.54,1.782,1.771l-0.197,1.331
				c-1.75-0.308-2.63-1.507-2.63-3.124c0-2.024,1.441-3.433,4.005-3.433h0.021C367.293,159.24,368.866,160.538,368.866,162.684z"/>
			<path fill="#5F6261" d="M364.84,167.017h0.021c2.476,0,4.005,1.331,4.005,3.487c0,2.146-1.529,3.477-4.005,3.477h-0.021
				c-2.476,0-4.005-1.331-4.005-3.477C360.835,168.348,362.364,167.017,364.84,167.017z M364.84,172.474h0.021
				c2.024,0,2.971-0.781,2.971-1.969c0-1.199-0.946-1.969-2.971-1.969h-0.021c-2.024,0-2.971,0.77-2.971,1.969
				C361.869,171.693,362.815,172.474,364.84,172.474z"/>
			<path fill="#5F6261" d="M361,175.63h7.701v1.485l-5.479,3.388h5.479v1.32H361v-1.43l5.578-3.443H361V175.63z"/>
			<path fill="#5F6261" d="M364.84,183.473h0.021c2.476,0,4.005,1.331,4.005,3.487c0,2.146-1.529,3.477-4.005,3.477h-0.021
				c-2.476,0-4.005-1.331-4.005-3.477C360.835,184.804,362.364,183.473,364.84,183.473z M364.84,188.929h0.021
				c2.024,0,2.971-0.781,2.971-1.969c0-1.199-0.946-1.969-2.971-1.969h-0.021c-2.024,0-2.971,0.77-2.971,1.969
				C361.869,188.148,362.815,188.929,364.84,188.929z"/>
			<path fill="#5F6261" d="M361,192.085h7.701v2.101l-6.084,1.958l6.084,1.958v2.079H361v-1.419h6.326L361,196.695v-1.276
				l6.326-2.068H361V192.085z"/>
			<path fill="#5F6261" d="M368.701,202.128v1.463H361v-1.463H368.701z"/>
			<path fill="#5F6261" d="M368.866,208.729c0,1.661-0.869,2.729-2.553,3.047l-0.209-1.331c1.145-0.209,1.717-0.77,1.717-1.705
				c0-1.167-0.936-1.937-2.96-1.937h-0.021c-2.091,0-2.96,0.814-2.96,1.937c0,0.891,0.539,1.54,1.782,1.771l-0.197,1.331
				c-1.75-0.308-2.63-1.507-2.63-3.124c0-2.024,1.441-3.433,4.005-3.433h0.021C367.293,205.286,368.866,206.583,368.866,208.729z"/>
			<path fill="#5F6261" d="M364.113,219.124v-1.43H361v-1.452h7.701v3.125c0,1.936-0.979,2.794-2.332,2.794
				c-1.057,0-1.706-0.616-2.014-1.65L361,222.468v-1.606L364.113,219.124z M365.147,217.693v1.54c0,0.968,0.474,1.397,1.266,1.397
				c0.781,0,1.243-0.429,1.243-1.397v-1.54H365.147z"/>
			<path fill="#5F6261" d="M368.701,224.007v1.463H361v-1.463H368.701z"/>
			<path fill="#5F6261" d="M362.21,232.588c-0.924-0.396-1.375-1.177-1.375-2.201c0-1.925,1.463-3.223,4.005-3.223h0.021
				c2.409,0,4.005,1.265,4.005,3.509c0,1.771-0.848,2.673-2.3,3.015l-0.197-1.309c1.012-0.275,1.452-0.814,1.452-1.694
				c0-1.243-0.902-2.002-2.96-2.002h-0.021c-2.035,0-2.96,0.726-2.96,2.002c0,0.99,0.66,1.727,2.014,1.727h0.065v-1.815h1.057v3.201
				H361v-1.144L362.21,232.588z"/>
			<path fill="#5F6261" d="M368.701,235.601v1.463H365.5v3.201h3.201v1.463H361v-1.463h3.312v-3.201H361v-1.463H368.701z"/>
			<path fill="#5F6261" d="M367.546,246.855H361v-1.463h6.546v-2.277h1.155v6.029h-1.155V246.855z"/>
		</g>
		<g>
			<path fill="#5F6261" d="M31.299,245.8v-5.281h1.101v3.817h2.112v-3.322h1.078v3.322h2.31v-3.817H39v5.281H31.299z"/>
			<path fill="#5F6261" d="M31.134,235.911c0-1.661,0.869-2.729,2.553-3.047l0.209,1.331c-1.145,0.209-1.717,0.77-1.717,1.705
				c0,1.167,0.936,1.937,2.96,1.937h0.021c2.091,0,2.96-0.814,2.96-1.937c0-0.891-0.539-1.54-1.782-1.771l0.197-1.331
				c1.75,0.308,2.63,1.507,2.63,3.124c0,2.024-1.441,3.433-4.005,3.433h-0.021C32.707,239.354,31.134,238.056,31.134,235.911z"/>
			<path fill="#5F6261" d="M35.16,231.577h-0.021c-2.476,0-4.005-1.331-4.005-3.487c0-2.146,1.529-3.477,4.005-3.477h0.021
				c2.476,0,4.005,1.331,4.005,3.477C39.165,230.246,37.636,231.577,35.16,231.577z M35.16,226.121h-0.021
				c-2.024,0-2.971,0.781-2.971,1.969c0,1.199,0.946,1.969,2.971,1.969h0.021c2.024,0,2.971-0.77,2.971-1.969
				C38.131,226.901,37.185,226.121,35.16,226.121z"/>
			<path fill="#5F6261" d="M39,222.964h-7.701v-1.485l5.479-3.388h-5.479v-1.32H39v1.43l-5.578,3.443H39V222.964z"/>
			<path fill="#5F6261" d="M35.16,215.122h-0.021c-2.476,0-4.005-1.331-4.005-3.487c0-2.146,1.529-3.477,4.005-3.477h0.021
				c2.476,0,4.005,1.331,4.005,3.477C39.165,213.791,37.636,215.122,35.16,215.122z M35.16,209.665h-0.021
				c-2.024,0-2.971,0.781-2.971,1.969c0,1.199,0.946,1.969,2.971,1.969h0.021c2.024,0,2.971-0.77,2.971-1.969
				C38.131,210.446,37.185,209.665,35.16,209.665z"/>
			<path fill="#5F6261" d="M39,206.509h-7.701v-2.101l6.084-1.958l-6.084-1.958v-2.079H39v1.419h-6.326L39,201.899v1.276
				l-6.326,2.068H39V206.509z"/>
			<path fill="#5F6261" d="M31.299,196.466v-1.463H39v1.463H31.299z"/>
			<path fill="#5F6261" d="M31.134,189.865c0-1.661,0.869-2.729,2.553-3.047l0.209,1.331c-1.145,0.209-1.717,0.77-1.717,1.705
				c0,1.167,0.936,1.937,2.96,1.937h0.021c2.091,0,2.96-0.814,2.96-1.937c0-0.891-0.539-1.54-1.782-1.771l0.197-1.331
				c1.75,0.308,2.63,1.507,2.63,3.124c0,2.024-1.441,3.433-4.005,3.433h-0.021C32.707,193.309,31.134,192.011,31.134,189.865z"/>
			<path fill="#5F6261" d="M31.299,182.353v-1.463h6.546v-3.674H39v5.138H31.299z"/>
			<path fill="#5F6261" d="M31.299,175.566v-5.281h1.101v3.817h2.112v-3.322h1.078v3.322h2.31v-3.817H39v5.281H31.299z"/>
			<path fill="#5F6261" d="M31.299,168.46v-5.149h1.101v3.686h2.354v-3.179h1.079v3.179H39v1.463H31.299z"/>
			<path fill="#5F6261" d="M32.454,158.515H39v1.463h-6.546v2.277h-1.155v-6.029h1.155V158.515z"/>
		</g>
	</g>
	<g>
		<defs>
			<circle id="SVGID_97_" cx="296.5" cy="147.992" r="3.5"/>
		</defs>
		<clipPath id="SVGID_98_">
			<use xlink:href="#SVGID_97_"  overflow="visible"/>
		</clipPath>
		<g clip-path="url(#SVGID_98_)">
			<defs>
				<rect id="SVGID_99_" x="-73" y="-356.508" width="960" height="2050"/>
			</defs>
			<clipPath id="SVGID_100_">
				<use xlink:href="#SVGID_99_"  overflow="visible"/>
			</clipPath>
			<rect x="288" y="139.492" clip-path="url(#SVGID_100_)" fill="#F47B20" width="17" height="17"/>
		</g>
	</g>
	<g>
		<defs>
			<path id="SVGID_101_" d="M296.5,152.492c2.485,0,4.5-2.015,4.5-4.5s-2.015-4.5-4.5-4.5s-4.5,2.015-4.5,4.5
				S294.015,152.492,296.5,152.492z M280,131.492h33v33h-33V131.492z"/>
		</defs>
		<clipPath id="SVGID_102_">
			<use xlink:href="#SVGID_101_"  overflow="visible"/>
		</clipPath>
		<g clip-path="url(#SVGID_102_)">
			<defs>
				<rect id="SVGID_103_" x="-73" y="-356.508" width="960" height="2050"/>
			</defs>
			<clipPath id="SVGID_104_">
				<use xlink:href="#SVGID_103_"  overflow="visible"/>
			</clipPath>
			
				<circle opacity="0.3" clip-path="url(#SVGID_104_)" fill="none" stroke="#F47B20" stroke-width="4" stroke-miterlimit="10" cx="296.5" cy="147.992" r="4.5"/>
		</g>
	</g>
	<g>
		<g>
			<path fill="#F78F20" d="M222.467,164.037l0.598-1.742c0.377,0.208,0.793,0.325,1.145,0.325c0.779,0,1.144-0.299,1.144-1.118
				v-6.11h2.496v6.059c0,2.093-0.962,3.159-3.081,3.159C223.896,164.609,223.025,164.375,222.467,164.037z"/>
			<path fill="#F78F20" d="M229.435,159.955v-0.026c0-2.951,1.678-4.731,4.277-4.731c2.587,0,4.265,1.78,4.265,4.731v0.026
				c0,2.951-1.678,4.732-4.265,4.732C231.112,164.688,229.435,162.906,229.435,159.955z M235.376,159.955v-0.026
				c0-2.184-0.637-3.081-1.664-3.081c-1.04,0-1.677,0.897-1.677,3.081v0.026c0,2.184,0.637,3.081,1.677,3.081
				C234.739,163.036,235.376,162.139,235.376,159.955z"/>
			<path fill="#F78F20" d="M239.574,155.392h2.496v3.511h2.77v-3.511h2.509v9.101h-2.509v-3.588h-2.77v3.588h-2.496V155.392z"/>
			<path fill="#F78F20" d="M249.221,164.492v-9.101h2.366l3.236,5.161v-5.161h2.236v9.101h-2.249l-3.354-5.343v5.343H249.221z"/>
			<path fill="#F78F20" d="M258.308,162.529l1.689-1.235c0.729,1.131,1.509,1.6,2.419,1.6c0.767,0,1.248-0.352,1.248-0.871
				c0-0.481-0.325-0.768-1.223-0.976l-1.04-0.233c-1.716-0.391-2.574-1.262-2.574-2.743c0-1.561,1.248-2.873,3.719-2.873
				c1.599,0,2.99,0.676,3.744,1.755l-1.664,1.222c-0.716-0.91-1.353-1.235-2.08-1.235c-0.702,0-1.145,0.286-1.145,0.78
				c0,0.403,0.273,0.676,0.988,0.832l1.04,0.221c2.132,0.455,2.925,1.495,2.925,2.926c0,1.689-1.481,2.99-3.938,2.99
				C260.491,164.688,258.996,163.895,258.308,162.529z"/>
			<path fill="#F78F20" d="M267.459,159.955v-0.026c0-2.951,1.678-4.731,4.277-4.731c2.587,0,4.265,1.78,4.265,4.731v0.026
				c0,2.951-1.678,4.732-4.265,4.732C269.137,164.688,267.459,162.906,267.459,159.955z M273.4,159.955v-0.026
				c0-2.184-0.637-3.081-1.664-3.081c-1.04,0-1.677,0.897-1.677,3.081v0.026c0,2.184,0.637,3.081,1.677,3.081
				C272.764,163.036,273.4,162.139,273.4,159.955z"/>
			<path fill="#F78F20" d="M277.6,164.492v-9.101h2.366l3.236,5.161v-5.161h2.236v9.101h-2.249l-3.354-5.343v5.343H277.6z"/>
		</g>
	</g>
	<g>
		<defs>
			<circle id="SVGID_105_" cx="289.5" cy="323.992" r="3.5"/>
		</defs>
		<clipPath id="SVGID_106_">
			<use xlink:href="#SVGID_105_"  overflow="visible"/>
		</clipPath>
		<g clip-path="url(#SVGID_106_)">
			<defs>
				<rect id="SVGID_107_" x="-73" y="-356.508" width="960" height="2050"/>
			</defs>
			<clipPath id="SVGID_108_">
				<use xlink:href="#SVGID_107_"  overflow="visible"/>
			</clipPath>
			<rect x="281" y="315.492" clip-path="url(#SVGID_108_)" fill="#DF1F26" width="17" height="17"/>
		</g>
	</g>
	<g>
		<defs>
			<path id="SVGID_109_" d="M289.5,328.492c2.485,0,4.5-2.015,4.5-4.5s-2.015-4.5-4.5-4.5s-4.5,2.015-4.5,4.5
				S287.015,328.492,289.5,328.492z M273,307.492h33v33h-33V307.492z"/>
		</defs>
		<clipPath id="SVGID_110_">
			<use xlink:href="#SVGID_109_"  overflow="visible"/>
		</clipPath>
		<g clip-path="url(#SVGID_110_)">
			<defs>
				<rect id="SVGID_111_" x="-73" y="-356.508" width="960" height="2050"/>
			</defs>
			<clipPath id="SVGID_112_">
				<use xlink:href="#SVGID_111_"  overflow="visible"/>
			</clipPath>
			
				<circle opacity="0.3" clip-path="url(#SVGID_112_)" fill="none" stroke="#DF1F26" stroke-width="4" stroke-miterlimit="10" cx="289.5" cy="323.992" r="4.5"/>
		</g>
	</g>
	<g>
		<g>
			<path fill="#E83225" d="M237.479,310.316v7.176h-2.509v-7.176H232.5v-1.925h7.463v1.925H237.479z"/>
			<path fill="#E83225" d="M245.007,314.151h-1.118v3.341h-2.496v-9.101h4.082c2.457,0,3.549,1.184,3.549,2.899
				c0,1.157-0.585,1.911-1.742,2.366l2.119,3.835h-2.69L245.007,314.151z M243.889,312.487h1.196c0.936,0,1.325-0.403,1.325-1.223
				c0-0.806-0.39-1.209-1.325-1.209h-1.196V312.487z"/>
			<path fill="#E83225" d="M254.353,315.854c0.871,0,1.379-0.481,1.379-1.625v-5.838h2.404v5.474c0,2.366-1.261,3.822-3.821,3.822
				c-2.574,0-3.836-1.456-3.836-3.822v-5.474h2.496v5.838C252.975,315.373,253.482,315.854,254.353,315.854z"/>
			<path fill="#E83225" d="M259.969,317.492v-9.101h3.536l1.678,6.085l1.664-6.085h3.458v9.101h-2.393v-6.695l-1.897,6.695h-2.067
				l-1.898-6.656v6.656H259.969z"/>
			<path fill="#E83225" d="M274.672,314.463v3.029h-2.496v-9.101h4.16c2.313,0,3.614,1.131,3.614,3.029
				c0,1.911-1.301,3.042-3.614,3.042H274.672z M274.672,312.799h1.222c0.988,0,1.456-0.48,1.456-1.378
				c0-0.884-0.468-1.365-1.456-1.365h-1.222V312.799z"/>
		</g>
	</g>
	<g>
		<defs>
			<circle id="SVGID_113_" cx="50.5" cy="67.992" r="3.5"/>
		</defs>
		<clipPath id="SVGID_114_">
			<use xlink:href="#SVGID_113_"  overflow="visible"/>
		</clipPath>
		<g clip-path="url(#SVGID_114_)">
			<defs>
				<rect id="SVGID_115_" x="-73" y="-356.508" width="960" height="2050"/>
			</defs>
			<clipPath id="SVGID_116_">
				<use xlink:href="#SVGID_115_"  overflow="visible"/>
			</clipPath>
			<rect x="42" y="59.492" clip-path="url(#SVGID_116_)" fill="#069547" width="17" height="17"/>
		</g>
	</g>
	<g>
		<defs>
			<path id="SVGID_117_" d="M50.5,72.492c2.485,0,4.5-2.015,4.5-4.5s-2.015-4.5-4.5-4.5s-4.5,2.015-4.5,4.5
				S48.015,72.492,50.5,72.492z M34,51.492h33v33H34V51.492z"/>
		</defs>
		<clipPath id="SVGID_118_">
			<use xlink:href="#SVGID_117_"  overflow="visible"/>
		</clipPath>
		<g clip-path="url(#SVGID_118_)">
			<defs>
				<rect id="SVGID_119_" x="-73" y="-356.508" width="960" height="2050"/>
			</defs>
			<clipPath id="SVGID_120_">
				<use xlink:href="#SVGID_119_"  overflow="visible"/>
			</clipPath>
			
				<circle opacity="0.3" clip-path="url(#SVGID_120_)" fill="none" stroke="#069547" stroke-width="4" stroke-miterlimit="10" cx="50.5" cy="67.992" r="4.5"/>
		</g>
	</g>
	<g>
		<g>
			<path fill="#07A34D" d="M59.219,82.529l1.689-1.235c0.729,1.131,1.509,1.6,2.419,1.6c0.767,0,1.248-0.352,1.248-0.871
				c0-0.481-0.325-0.768-1.223-0.976l-1.04-0.233c-1.716-0.391-2.574-1.262-2.574-2.743c0-1.561,1.248-2.873,3.719-2.873
				c1.599,0,2.99,0.676,3.744,1.755l-1.664,1.222c-0.716-0.91-1.353-1.235-2.08-1.235c-0.702,0-1.145,0.286-1.145,0.78
				c0,0.403,0.273,0.676,0.988,0.832l1.04,0.221c2.132,0.455,2.925,1.495,2.925,2.926c0,1.689-1.481,2.99-3.938,2.99
				C61.402,84.688,59.907,83.895,59.219,82.529z"/>
			<path fill="#07A34D" d="M72.998,77.316v7.176h-2.509v-7.176h-2.47v-1.925h7.462v1.925H72.998z"/>
			<path fill="#07A34D" d="M76.911,75.392h6.592v1.769h-4.096v1.794h3.511v1.755h-3.511v2.016h4.096v1.768h-6.592V75.392z"/>
			<path fill="#07A34D" d="M85.361,75.392h2.496v9.101h-2.496V75.392z"/>
			<path fill="#07A34D" d="M89.794,84.492v-9.101h2.366l3.237,5.161v-5.161h2.236v9.101h-2.249l-3.354-5.343v5.343H89.794z"/>
		</g>
	</g>
	<g>
		<defs>
			<circle id="SVGID_121_" cx="129.5" cy="124.992" r="3.5"/>
		</defs>
		<clipPath id="SVGID_122_">
			<use xlink:href="#SVGID_121_"  overflow="visible"/>
		</clipPath>
		<g clip-path="url(#SVGID_122_)">
			<defs>
				<rect id="SVGID_123_" x="-73" y="-356.508" width="960" height="2050"/>
			</defs>
			<clipPath id="SVGID_124_">
				<use xlink:href="#SVGID_123_"  overflow="visible"/>
			</clipPath>
			<rect x="121" y="116.492" clip-path="url(#SVGID_124_)" fill="#3190CE" width="17" height="17"/>
		</g>
	</g>
	<g>
		<defs>
			<path id="SVGID_125_" d="M129.5,129.492c2.485,0,4.5-2.015,4.5-4.5s-2.015-4.5-4.5-4.5c-2.485,0-4.5,2.015-4.5,4.5
				S127.015,129.492,129.5,129.492z M113,108.492h33v33h-33V108.492z"/>
		</defs>
		<clipPath id="SVGID_126_">
			<use xlink:href="#SVGID_125_"  overflow="visible"/>
		</clipPath>
		<g clip-path="url(#SVGID_126_)">
			<defs>
				<rect id="SVGID_127_" x="-73" y="-356.508" width="960" height="2050"/>
			</defs>
			<clipPath id="SVGID_128_">
				<use xlink:href="#SVGID_127_"  overflow="visible"/>
			</clipPath>
			
				<circle opacity="0.3" clip-path="url(#SVGID_128_)" fill="none" stroke="#3190CE" stroke-width="4" stroke-miterlimit="10" cx="129.5" cy="124.992" r="4.5"/>
		</g>
	</g>
	<g>
		<g>
			<path fill="#31A1DB" d="M143.435,132.197c2.302,0,3.523,1.222,3.835,3.25l-2.274,0.272c-0.183-1.312-0.65-1.858-1.521-1.858
				c-1.053,0-1.703,0.832-1.703,3.067v0.026c0,2.262,0.663,3.068,1.703,3.068c0.832,0,1.378-0.469,1.586-1.938l2.288,0.26
				c-0.299,2.263-1.755,3.342-3.913,3.342c-2.613,0-4.264-1.794-4.264-4.732v-0.026C139.171,134.056,140.77,132.197,143.435,132.197
				z"/>
			<path fill="#31A1DB" d="M148.895,132.392h2.496v7.177h3.952v1.924h-6.448V132.392z"/>
			<path fill="#31A1DB" d="M157.084,132.392h2.496v9.101h-2.496V132.392z"/>
			<path fill="#31A1DB" d="M161.518,141.492v-9.101h2.366l3.236,5.161v-5.161h2.236v9.101h-2.249l-3.354-5.343v5.343H161.518z"/>
			<path fill="#31A1DB" d="M175.766,134.316v7.176h-2.509v-7.176h-2.471v-1.925h7.463v1.925H175.766z"/>
			<path fill="#31A1DB" d="M179.041,136.955v-0.026c0-2.951,1.678-4.731,4.277-4.731c2.587,0,4.265,1.78,4.265,4.731v0.026
				c0,2.951-1.678,4.732-4.265,4.732C180.719,141.688,179.041,139.906,179.041,136.955z M184.982,136.955v-0.026
				c0-2.184-0.637-3.081-1.664-3.081c-1.04,0-1.677,0.897-1.677,3.081v0.026c0,2.184,0.637,3.081,1.677,3.081
				C184.346,140.036,184.982,139.139,184.982,136.955z"/>
			<path fill="#31A1DB" d="M189.182,141.492v-9.101h2.366l3.236,5.161v-5.161h2.236v9.101h-2.249l-3.354-5.343v5.343H189.182z"/>
		</g>
	</g>
	<g>
		<defs>
			<rect id="SVGID_129_" x="191" y="191.492" width="29" height="11"/>
		</defs>
		<clipPath id="SVGID_130_">
			<use xlink:href="#SVGID_129_"  overflow="visible"/>
		</clipPath>
		<g clip-path="url(#SVGID_130_)">
			<defs>
				<rect id="SVGID_131_" x="-73" y="-356.508" width="960" height="2050"/>
			</defs>
			<clipPath id="SVGID_132_">
				<use xlink:href="#SVGID_131_"  overflow="visible"/>
			</clipPath>
			<rect x="186" y="186.492" clip-path="url(#SVGID_132_)" fill="#FCEF3A" width="39" height="21"/>
		</g>
	</g>
	<g>
		<defs>
			<circle id="SVGID_133_" cx="206.5" cy="211.992" r="3.5"/>
		</defs>
		<clipPath id="SVGID_134_">
			<use xlink:href="#SVGID_133_"  overflow="visible"/>
		</clipPath>
		<g clip-path="url(#SVGID_134_)">
			<defs>
				<rect id="SVGID_135_" x="-73" y="-356.508" width="960" height="2050"/>
			</defs>
			<clipPath id="SVGID_136_">
				<use xlink:href="#SVGID_135_"  overflow="visible"/>
			</clipPath>
			<rect x="198" y="203.492" clip-path="url(#SVGID_136_)" fill="#4D4F4E" width="17" height="17"/>
		</g>
	</g>
	<g>
		<defs>
			<path id="SVGID_137_" d="M206.5,216.492c2.485,0,4.5-2.015,4.5-4.5s-2.015-4.5-4.5-4.5s-4.5,2.015-4.5,4.5
				S204.015,216.492,206.5,216.492z M190,195.492h33v33h-33V195.492z"/>
		</defs>
		<clipPath id="SVGID_138_">
			<use xlink:href="#SVGID_137_"  overflow="visible"/>
		</clipPath>
		<g clip-path="url(#SVGID_138_)">
			<defs>
				<rect id="SVGID_139_" x="-73" y="-356.508" width="960" height="2050"/>
			</defs>
			<clipPath id="SVGID_140_">
				<use xlink:href="#SVGID_139_"  overflow="visible"/>
			</clipPath>
			
				<circle opacity="0.3" clip-path="url(#SVGID_140_)" fill="none" stroke="#4D4F4E" stroke-width="4" stroke-miterlimit="10" cx="206.5" cy="211.992" r="4.5"/>
		</g>
	</g>
	<g>
		<g>
			<path fill="#5F6261" d="M195.406,201.492v-2.951l-2.99-6.149h2.69l1.729,3.861l1.742-3.861h2.301l-2.977,6.149v2.951H195.406z"/>
			<path fill="#5F6261" d="M201.32,196.955v-0.026c0-2.951,1.678-4.731,4.277-4.731c2.587,0,4.265,1.78,4.265,4.731v0.026
				c0,2.951-1.678,4.732-4.265,4.732C202.998,201.688,201.32,199.906,201.32,196.955z M207.262,196.955v-0.026
				c0-2.184-0.637-3.081-1.664-3.081c-1.04,0-1.677,0.897-1.677,3.081v0.026c0,2.184,0.637,3.081,1.677,3.081
				C206.625,200.036,207.262,199.139,207.262,196.955z"/>
		</g>
		<g>
			<path fill="#5F6261" d="M215.295,199.854c0.871,0,1.378-0.481,1.378-1.625v-5.838h2.405v5.474c0,2.366-1.261,3.822-3.822,3.822
				c-2.574,0-3.835-1.456-3.835-3.822v-5.474h2.496v5.838C213.917,199.373,214.424,199.854,215.295,199.854z"/>
		</g>
	</g>
</g>
</svg>
