<?xml version="1.0" encoding="UTF-8" standalone="no"?>
<!-- Created with Inkscape (http://www.inkscape.org/) -->

<svg
   width="31.741821mm"
   height="42.49086mm"
   viewBox="0 0 31.741821 42.49086"
   version="1.1"
   id="svg5"
   xml:space="preserve"
   sodipodi:docname="template2.svg"
   inkscape:version="1.2.2 (732a01da63, 2022-12-09)"
   xmlns:inkscape="http://www.inkscape.org/namespaces/inkscape"
   xmlns:sodipodi="http://sodipodi.sourceforge.net/DTD/sodipodi-0.dtd"
   xmlns="http://www.w3.org/2000/svg"
   xmlns:svg="http://www.w3.org/2000/svg"><sodipodi:namedview
     id="namedview119"
     pagecolor="#ffffff"
     bordercolor="#666666"
     borderopacity="1.0"
     inkscape:pageshadow="2"
     inkscape:pageopacity="0.0"
     inkscape:pagecheckerboard="0"
     inkscape:document-units="mm"
     showgrid="false"
     showguides="true"
     inkscape:guide-bbox="true"
     inkscape:zoom="3.9108562"
     inkscape:cx="24.163507"
     inkscape:cy="90.645113"
     inkscape:window-width="1920"
     inkscape:window-height="991"
     inkscape:window-x="-9"
     inkscape:window-y="-9"
     inkscape:window-maximized="1"
     inkscape:current-layer="svg5"
     inkscape:showpageshadow="2"
     inkscape:deskcolor="#d1d1d1"><sodipodi:guide
       position="12.365294,32.366734"
       orientation="0,-1"
       id="guide296"
       inkscape:locked="false" /><sodipodi:guide
       position="6.4099011,28.061084"
       orientation="0,-1"
       id="guide2390"
       inkscape:locked="false" /><sodipodi:guide
       position="6.4099011,7.6505447"
       orientation="0,-1"
       id="guide2829"
       inkscape:locked="false" /><sodipodi:guide
       position="15.702918,9.9594046"
       orientation="0,-1"
       id="guide3002"
       inkscape:locked="false" /><sodipodi:guide
       position="15.702918,11.959405"
       orientation="0,-1"
       id="guide3042"
       inkscape:locked="false" /><sodipodi:guide
       position="15.024874,3.3441749"
       orientation="0,-1"
       id="guide1218"
       inkscape:locked="false" /></sodipodi:namedview><defs
     id="defs2" /><rect
     style="fill:#050505;fill-opacity:1;stroke:#ffffff;stroke-width:0.337896;stroke-linecap:round;stroke-linejoin:round;stroke-dasharray:none;stroke-opacity:1"
     id="background"
     width="31.403999"
     height="42.152973"
     x="0.16712783"
     y="0.16188505" /><g
     id="logo"
     transform="translate(-69.318613,-90.742505)"><path
       style="fill:none;fill-opacity:1;stroke:#ff2a16;stroke-width:0.51;stroke-linecap:round;stroke-linejoin:round;stroke-dasharray:none;stroke-opacity:1"
       d="m 84.343747,109.47852 -2.000001,-2 V 95.656126 l 2.000001,-2.993273 z"
       id="path9840" /><path
       style="fill:none;fill-opacity:1;stroke:#ff2a16;stroke-width:0.51;stroke-linecap:round;stroke-linejoin:round;stroke-dasharray:none;stroke-opacity:1"
       d="m 84.343747,109.47852 h -6.615234 l -1.999999,-4.30624 1.999999,-4.29865 3.955394,-0.007"
       id="path10058" /><path
       style="fill:none;fill-opacity:1;stroke:#ff2a16;stroke-width:0.51;stroke-linecap:round;stroke-linejoin:round;stroke-dasharray:none;stroke-opacity:1"
       d="m 82.343746,107.47852 -3.334088,1e-5 -1.051699,-2.30625 1.051699,-2.30704 2.674246,2.6e-4"
       id="path10062"
       sodipodi:nodetypes="ccccc" /><path
       style="fill:none;fill-opacity:1;stroke:#ff2a16;stroke-width:0.51;stroke-linecap:round;stroke-linejoin:round;stroke-dasharray:none;stroke-opacity:1"
       d="m 85.038112,100.86663 3.854505,6.44391 -1.266153,1.80849 -2.588352,-4.37489"
       id="path10070"
       sodipodi:nodetypes="cccc" /><path
       style="fill:none;fill-opacity:1;stroke:#ff2a16;stroke-width:0.51;stroke-linecap:round;stroke-linejoin:round;stroke-dasharray:none;stroke-opacity:1"
       d="m 86.321478,110.98586 7.084205,-10.11923 h 2.440283 l -7.083873,10.11923"
       id="path10074"
       sodipodi:nodetypes="cccc" /><path
       style="fill:none;fill-opacity:1;stroke:#ff2a16;stroke-width:0.51;stroke-linecap:round;stroke-linejoin:round;stroke-dasharray:none;stroke-opacity:1"
       d="M 72.099608,111.61289 H 98.193633"
       id="path10076" /><path
       style="fill:none;fill-opacity:1;stroke:#ff2a16;stroke-width:0.51;stroke-linecap:round;stroke-linejoin:round;stroke-dasharray:none;stroke-opacity:1"
       d="M 98.193633,114.67123 H 72.099608"
       id="path10078" /><path
       style="fill:none;fill-opacity:1;stroke:#ff2a16;stroke-width:0.51;stroke-linecap:round;stroke-linejoin:round;stroke-dasharray:none;stroke-opacity:1"
       d="m 83.221854,115.41388 -0.878108,1.25461 v 11.2207 l 2.000001,2 v -12.59181 l 1.318539,-1.8835"
       id="path10086" /><path
       style="fill:none;fill-opacity:1;stroke:#ff2a16;stroke-width:0.51;stroke-linecap:round;stroke-linejoin:round;stroke-dasharray:none;stroke-opacity:1"
       d="m 82.343746,127.88919 -3.334088,-0.0625 -1.051699,-2.24391 1.051699,-2.30691 2.674246,2.6e-4"
       id="path10088"
       sodipodi:nodetypes="ccccc" /><path
       style="fill:none;fill-opacity:1;stroke:#ff2a16;stroke-width:0.51;stroke-linecap:round;stroke-linejoin:round;stroke-dasharray:none;stroke-opacity:1"
       d="m 85.021531,121.27396 h 1.803359 l 8.624651,8.61523 h -2.839582 l -6.613191,-6.61523 h -0.975237"
       id="path10820"
       sodipodi:nodetypes="cccccc" /><path
       style="fill:none;fill-opacity:1;stroke:#ff2a16;stroke-width:0.51;stroke-linecap:round;stroke-linejoin:round;stroke-dasharray:none;stroke-opacity:1"
       d="m 81.683904,121.27396 -3.955391,0.0102 -1.999999,4.29865 1.999999,4.30624 h 6.615234"
       id="path10824"
       sodipodi:nodetypes="ccccc" /><path
       style="fill:none;fill-opacity:1;stroke:#ff2a16;stroke-width:0.51;stroke-linecap:round;stroke-linejoin:round;stroke-dasharray:none;stroke-opacity:1"
       d="m 90.337747,123.89554 2.79377,-2.78424 h 2.760479 l -4.135069,4.18612"
       id="path10902" /><path
       style="fill:none;fill-opacity:1;stroke:#ff2a16;stroke-width:0.51;stroke-linecap:round;stroke-linejoin:round;stroke-dasharray:none;stroke-opacity:1"
       d="m 87.996182,126.23607 -3.652695,3.65312 h 2.915506 l 2.160616,-2.24705"
       id="path10906" /></g><g
     id="calc2023"
     transform="translate(-69.318613,-90.742505)"><path
       style="fill:none;stroke:#ffffff;stroke-width:0.31;stroke-linecap:round;stroke-linejoin:round;stroke-dasharray:none;stroke-opacity:1"
       d="m 78.581249,112.70837 c 0,0 -0.136427,-0.16537 -0.367938,-0.16537 -0.23151,0 -0.529165,0.21977 -0.529165,0.61665 0,0.48716 0.413409,0.60704 0.529165,0.60704 0.268717,0 0.367938,-0.11988 0.367938,-0.11988"
       id="path515" /><path
       style="fill:none;stroke:#ffffff;stroke-width:0.31;stroke-linecap:round;stroke-linejoin:round;stroke-dasharray:none;stroke-opacity:1"
       d="m 82.262385,112.70837 c 0,0 -0.136427,-0.16537 -0.367938,-0.16537 -0.23151,0 -0.529165,0.21977 -0.529165,0.61665 0,0.48716 0.413409,0.60704 0.529165,0.60704 0.268717,0 0.367938,-0.11988 0.367938,-0.11988"
       id="path515-2" /><path
       style="fill:none;stroke:#ffffff;stroke-width:0.309999;stroke-linecap:round;stroke-linejoin:round;stroke-dasharray:none;stroke-opacity:1"
       d="m 78.91926,113.73281 c 0,0 0.230938,-1.16097 0.488185,-1.16097 0.257249,0 0.494032,1.16097 0.494032,1.16097"
       id="path1179" /><path
       style="fill:none;stroke:#ffffff;stroke-width:0.309999;stroke-linecap:round;stroke-linejoin:round;stroke-dasharray:none;stroke-opacity:1"
       d="m 79.08004,113.36565 c 0.198028,0.0936 0.406746,0.14577 0.666505,0"
       id="path1181-7" /><path
       style="fill:none;stroke:#ffffff;stroke-width:0.309999;stroke-linecap:round;stroke-linejoin:round;stroke-dasharray:none;stroke-opacity:1"
       d="m 80.354783,112.58021 v 1.18235 h 0.764812"
       id="path1205" /><path
       style="fill:none;stroke:#ffffff;stroke-width:0.309999;stroke-linecap:round;stroke-linejoin:round;stroke-dasharray:none;stroke-opacity:1"
       d="m 84.06079,112.58021 v 1.18235 h 0.764812"
       id="path1205-9" /><path
       style="fill:none;stroke:#ffffff;stroke-width:0.309999;stroke-linecap:round;stroke-linejoin:round;stroke-dasharray:none;stroke-opacity:1"
       d="m 82.663958,112.56306 c 0,0 -0.02243,0.96878 0.05604,1.12667 0.06409,0.12895 0.692658,0.13697 0.771739,0 0.07908,-0.13698 0.07258,-1.13836 0.07258,-1.13836"
       id="path1238" /><path
       style="fill:none;stroke:#ffffff;stroke-width:0.309999;stroke-linecap:round;stroke-linejoin:round;stroke-dasharray:none;stroke-opacity:1"
       d="m 85.1322,112.56306 c 0,0 -0.02243,0.96878 0.05604,1.12667 0.06409,0.12895 0.692658,0.13697 0.771739,0 0.07908,-0.13698 0.07258,-1.13836 0.07258,-1.13836"
       id="path1238-3" /><path
       style="fill:none;stroke:#ffffff;stroke-width:0.309999;stroke-linecap:round;stroke-linejoin:round;stroke-dasharray:none;stroke-opacity:1"
       d="m 87.023111,112.63809 c 0,0 -0.496094,-0.21288 -0.529167,0.18603 -0.02046,0.24675 0.561067,0.40735 0.574642,0.61598 0.02894,0.44472 -0.636653,0.39924 -0.636653,0.14057"
       id="path1309" /><path
       style="fill:none;stroke:#ffffff;stroke-width:0.309999;stroke-linecap:round;stroke-linejoin:round;stroke-dasharray:none;stroke-opacity:1"
       d="m 87.829261,112.67943 c 0,0 0.144696,-0.1695 0.508498,-0.1695 0.363802,0 0.338998,0.31833 0.338998,0.43821 0,0.1199 -0.525034,0.678 -0.847496,0.84336 h 0.880568"
       id="path1311" /><path
       style="fill:none;stroke:#ffffff;stroke-width:0.309999;stroke-linecap:round;stroke-linejoin:round;stroke-dasharray:none;stroke-opacity:1"
       d="m 90.59085,112.67943 c 0,0 0.144696,-0.1695 0.508498,-0.1695 0.363802,0 0.338998,0.31833 0.338998,0.43821 0,0.1199 -0.525034,0.678 -0.847496,0.84336 h 0.880568"
       id="path1311-6" /><path
       style="fill:none;stroke:#ffffff;stroke-width:0.309999;stroke-linecap:round;stroke-linejoin:round;stroke-dasharray:none;stroke-opacity:1"
       d="m 91.880999,112.59523 c 0,0 0.652201,-0.28934 0.735679,0.23747 0.07183,0.45329 -0.607055,0.31502 -0.607055,0.31502 0,0 0.69283,-0.0234 0.659762,0.41241 -0.0028,0.037 -0.02124,0.0908 -0.04151,0.11725 -0.146992,0.19156 -0.705512,0.11061 -0.705958,0.11051"
       id="path1389"
       sodipodi:nodetypes="csccsc" /><ellipse
       style="fill:none;stroke:#ffffff;stroke-width:0.309999;stroke-linecap:round;stroke-linejoin:round;stroke-dasharray:none;stroke-opacity:1"
       id="path1365"
       ry="0.61598307"
       rx="0.54363608"
       cy="113.15072"
       cx="89.699951" /></g></svg>
