<?xml version="1.0" encoding="UTF-8" standalone="no"?>
<!-- Created with Inkscape (http://www.inkscape.org/) -->

<svg
   version="1.1"
   id="svg77433"
   width="667.3244"
   height="667.3244"
   viewBox="0 0 667.3244 667.3244"
   sodipodi:docname="PiLogo.svg.2023_05_19_14_46_39.0.svg"
   xml:space="preserve"
   inkscape:version="1.2.2 (732a01da63, 2022-12-09)"
   xmlns:inkscape="http://www.inkscape.org/namespaces/inkscape"
   xmlns:sodipodi="http://sodipodi.sourceforge.net/DTD/sodipodi-0.dtd"
   xmlns="http://www.w3.org/2000/svg"
   xmlns:svg="http://www.w3.org/2000/svg"><defs
     id="defs77437"><rect
       x="75.316193"
       y="105.61581"
       width="438.91162"
       height="401.6864"
       id="rect167" /><rect
       x="75.316193"
       y="105.61581"
       width="438.91162"
       height="401.6864"
       id="rect167-52" /></defs><sodipodi:namedview
     id="namedview77435"
     pagecolor="#ffffff"
     bordercolor="#000000"
     borderopacity="0.25"
     inkscape:showpageshadow="2"
     inkscape:pageopacity="0.0"
     inkscape:pagecheckerboard="0"
     inkscape:deskcolor="#d1d1d1"
     showgrid="false"
     inkscape:zoom="1.2548157"
     inkscape:cx="216.76489"
     inkscape:cy="319.17037"
     inkscape:window-width="1920"
     inkscape:window-height="991"
     inkscape:window-x="-9"
     inkscape:window-y="-9"
     inkscape:window-maximized="1"
     inkscape:current-layer="g77439" /><g
     inkscape:groupmode="layer"
     id="layer3"
     inkscape:label="BaseShape"
     transform="translate(0.15000017,0.15000001)"><g
       inkscape:label="Background"
       id="Background"
       style="display:inline;fill:#ffffff"
       transform="matrix(3.7795276,0,0,3.7795276,9.8361898,3.650983)"
       inkscape:export-filename="Export01.svg"
       inkscape:export-xdpi="96"
       inkscape:export-ydpi="96"><rect
         style="fill:#ffb231;fill-opacity:1;stroke:#000000;stroke-width:0.3;stroke-linecap:round;stroke-linejoin:round;stroke-dasharray:none;stroke-opacity:1"
         id="rect111713"
         width="667.02441"
         height="667.02441"
         x="0"
         y="0"
         transform="matrix(0.26458333,0,0,0.26458333,-2.6024919,-0.96598924)" /></g><g
       id="g112447"
       style="display:inline;fill:#ffffff"
       transform="matrix(3.7795276,0,0,3.7795276,9.8361898,3.650983)"
       inkscape:label="MainText"><g
         aria-label="dy"
         transform="matrix(0.35563708,0,0,0.35563708,13.098717,-50.595233)"
         id="text165"
         style="font-size:266.667px;font-family:'Berlin Sans FB';-inkscape-font-specification:'Berlin Sans FB';white-space:pre;shape-inside:url(#rect167);fill:#ffffff;fill-opacity:1;stroke:#000000;stroke-opacity:1"
         inkscape:label="text165"><path
           d="m 213.72803,174.69289 q 0,16.7969 -1.5625,50.39069 -1.43229,33.46358 -1.43229,50.13027 0,51.43235 2.21354,77.86468 l 0.13021,1.69271 q 0.13021,1.30208 -3.51563,1.69271 -2.47396,0.26042 -7.03126,0 -5.46875,-0.39063 -5.07813,-0.39063 -1.95313,0 -5.72917,0.39063 -3.77605,0.39062 -5.72918,0.39062 -1.82291,0 -2.21354,-8.98438 -0.26042,-9.1146 -0.91146,-9.24481 -0.78125,0.39063 -1.95313,1.69272 -17.83856,19.27085 -41.01567,19.27085 -26.30212,0 -43.229221,-20.05211 -16.015645,-18.88023 -16.015645,-45.57297 0,-27.73441 16.145853,-46.61464 16.927103,-19.79169 44.140683,-19.79169 16.40627,0 28.64586,9.63543 5.59897,4.81771 11.06773,9.76564 1.04166,-0.39063 1.04166,-1.82292 v -42.18755 q 0,-4.29688 -0.39062,-13.02085 -0.39063,-8.72397 -0.39063,-13.15106 0,-3.125 2.08334,-3.125 4.81771,0 14.32293,-0.78126 9.50522,-0.91146 14.19273,-0.91146 2.21354,0 2.21354,2.73438 z m -32.55212,118.48973 q 0,-15.62502 -9.63543,-27.47399 -10.28647,-12.63022 -25.52086,-12.63022 -16.01565,0 -26.43233,12.50001 -9.89584,11.71876 -9.89584,28.12503 0,15.62502 10.28647,27.21358 10.54689,12.2396 26.0417,12.2396 15.62502,0 25.78128,-12.36981 9.37501,-11.58855 9.37501,-27.6042 z"
           id="path464"
           style="fill:#ffffff;fill-opacity:1;stroke:#000000;stroke-opacity:1" /><path
           d="m 346.5407,265.70863 c 0,14.67015 -0.32412,21.43609 -0.31292,27.00216 0.41023,5.00532 0.75155,18.17341 -0.84352,54.49316 0.84227,27.77104 -1.48056,49.08084 -5.1692,50.05251 -2.00901,3.00648 -251.297815,1.39504 -270.221449,1.39504 -2.256946,0 -3.732643,-0.26042 -4.42709,-0.78125 -0.60764,-0.43403 -2.083336,-3.55903 -4.42709,-9.37501 -2.256946,-5.81598 -2.991687,-12.04434 -2.991687,-13.17281 0,-1.90973 2.30035,-2.86459 6.90105,-2.86459 9.722234,0 234.234706,2.22975 241.910486,1.55597 16.82941,1.63713 11.19469,-22.6559 11.55547,-26.63206 -7.70179,-0.69318 -28.31312,-2.38421 -36.77007,-4.29066 -5.45212,-1.22907 -21.04786,-10.41146 -29.47493,-18.65843 -13.28126,-16.92711 -20.70314,-27.64761 -22.26565,-32.1615 -1.21528,-3.55903 -1.82292,-12.06599 -1.82292,-25.52086 0,-3.29862 0.0434,-8.24654 0.13021,-14.84377 0.0868,-6.68403 0.13021,-11.71876 0.13021,-15.10419 0,-1.90972 1.04167,-2.86458 3.125,-2.86458 2.77779,0 6.85765,0.17361 12.2396,0.52083 5.46876,0.34722 9.59203,0.52083 12.36981,0.52083 1.38889,0 2.08334,0.91146 2.08334,2.73438 0,2.43056 -0.13021,6.0764 -0.39063,10.93752 -0.26042,4.86111 -0.39063,8.50695 -0.39063,10.93751 0,10.59029 0.34722,18.48961 1.04167,23.69795 0.52083,3.29861 3.05009,11.35352 14.19273,22.64925 10.42331,10.5665 13.3448,10.80852 15.26591,11.61453 2.75522,1.15596 25.336,4.70184 28.41031,3.55222 1.34837,-2.05874 0.3628,-31.52625 0.43226,-36.44462 0.14491,-6.11641 0.16241,-12.56931 0.16241,-24.02766 0,-2.51737 -0.26042,-6.20661 -0.78126,-11.06772 -0.52083,-4.94793 -0.78125,-8.63717 -0.78125,-11.06773 0,-2.17014 0.69445,-3.25521 2.08334,-3.25521 2.77778,0 6.94445,-0.17361 12.50001,-0.52083 5.64237,-0.43403 9.85245,-0.65104 12.63023,-0.65104 2.60417,0 3.90625,10.54689 3.90625,31.64066 z"
           id="path466"
           sodipodi:nodetypes="scccsccssccsccscsscsssscssccscsscss"
           style="fill:#ffffff;fill-opacity:1;stroke:#000000;stroke-opacity:1" /></g><g
         aria-label="dx"
         transform="matrix(0.35563708,0,0,0.35563708,12.704232,34.093534)"
         id="text165-7"
         style="font-size:266.667px;font-family:'Berlin Sans FB';-inkscape-font-specification:'Berlin Sans FB';white-space:pre;shape-inside:url(#rect167-52);fill:#ffffff;fill-opacity:1;stroke:#000000;stroke-opacity:1"
         inkscape:label="text165"><path
           d="m 213.72803,174.69289 q 0,16.7969 -1.5625,50.39069 -1.43229,33.46358 -1.43229,50.13027 0,51.43235 2.21354,77.86468 l 0.13021,1.69271 q 0.13021,1.30208 -3.51563,1.69271 -2.47396,0.26042 -7.03126,0 -5.46875,-0.39063 -5.07813,-0.39063 -1.95313,0 -5.72917,0.39063 -3.77605,0.39062 -5.72918,0.39062 -1.82291,0 -2.21354,-8.98438 -0.26042,-9.1146 -0.91146,-9.24481 -0.78125,0.39063 -1.95313,1.69272 -17.83856,19.27085 -41.01567,19.27085 -26.30212,0 -43.229221,-20.05211 -16.015645,-18.88023 -16.015645,-45.57297 0,-27.73441 16.145853,-46.61464 16.927103,-19.79169 44.140683,-19.79169 16.40627,0 28.64586,9.63543 5.59897,4.81771 11.06773,9.76564 1.04166,-0.39063 1.04166,-1.82292 v -42.18755 q 0,-4.29688 -0.39062,-13.02085 -0.39063,-8.72397 -0.39063,-13.15106 0,-3.125 2.08334,-3.125 4.81771,0 14.32293,-0.78126 9.50522,-0.91146 14.19273,-0.91146 2.21354,0 2.21354,2.73438 z m -32.55212,118.48973 q 0,-15.62502 -9.63543,-27.47399 -10.28647,-12.63022 -25.52086,-12.63022 -16.01565,0 -26.43233,12.50001 -9.89584,11.71876 -9.89584,28.12503 0,15.62502 10.28647,27.21358 10.54689,12.2396 26.0417,12.2396 15.62502,0 25.78128,-12.36981 9.37501,-11.58855 9.37501,-27.6042 z"
           id="path469"
           style="fill:#ffffff;fill-opacity:1;stroke:#000000;stroke-opacity:1" /><path
           d="m 334.56152,353.98999 q 0,1.82292 -2.73438,2.47396 -1.95312,0.39062 -5.59896,0.13021 -5.33855,-0.26042 -4.68751,-0.26042 -10.28647,0 -12.3698,-2.34375 -7.94272,-11.84898 -24.21878,-34.76567 -3.12501,-4.16667 -3.51563,-4.16667 -1.17188,0 -14.58335,19.9219 -13.6719,20.31252 -16.53648,20.83336 -2.86459,0.52083 -18.48961,0.52083 -3.125,0 -3.125,-2.34375 v -14.19273 q 0,-1.43229 17.31773,-22.39586 17.31773,-20.96357 17.31773,-23.0469 0,-1.95313 -17.31773,-22.78649 -17.31773,-20.83336 -17.31773,-22.91669 v -13.93231 q 0,-2.60417 3.125,-2.60417 3.25521,0 9.76564,0.52083 6.51042,0.52084 9.76563,0.52084 1.82292,0 3.25522,1.82291 7.6823,11.84898 23.43753,34.89588 3.125,4.29688 3.38542,4.29688 0.39062,0 2.86458,-3.38542 7.5521,-10.28647 24.86983,-36.32817 1.30208,-1.82292 2.99479,-1.82292 3.25521,0 9.63543,-0.26041 6.38022,-0.26042 9.50522,-0.26042 3.25521,0 3.25521,2.60417 v 13.67189 q 0,2.34375 -17.44794,23.17711 -17.31773,20.83336 -17.31773,22.9167 0,1.30208 17.31773,22.26565 17.44794,20.96357 17.44794,23.30732 z"
           id="path471"
           style="fill:#ffffff;fill-opacity:1;stroke:#000000;stroke-opacity:1" /></g></g></g><g
     inkscape:groupmode="layer"
     inkscape:label="Image"
     id="g77439"
     style="display:inline"
     transform="translate(0.15000017,0.15000001)"><g
       id="Text"
       inkscape:label="Text"><text
         xml:space="preserve"
         style="font-size:37.3333px;font-family:'Berlin Sans FB';-inkscape-font-specification:'Berlin Sans FB';fill:#ffb231;fill-opacity:1;stroke:#ffffff;stroke-width:0.5;stroke-linecap:round;stroke-linejoin:round;stroke-dasharray:none;stroke-opacity:1"
         x="228.26918"
         y="341.68893"
         id="text17785"><tspan
           sodipodi:role="line"
           x="228.26918"
           y="341.68893"
           id="tspan17837"
           style="font-size:37.3333px;fill:#ffb231;fill-opacity:1;stroke:#ffffff;stroke-opacity:1">calculus 2023</tspan></text><text
         xml:space="preserve"
         style="font-family:'Berlin Sans FB';-inkscape-font-specification:'Berlin Sans FB';text-align:center;baseline-shift:baseline;text-anchor:middle;fill:#ffb231;fill-opacity:1;stroke:#ffffff;stroke-width:0.5;stroke-linecap:round;stroke-linejoin:round;stroke-dasharray:none;stroke-opacity:1"
         x="170.39221"
         y="328.53159"
         id="text20855"><tspan
           sodipodi:role="line"
           id="tspan20853"
           x="170.39221"
           y="328.53159">e<tspan
   style="font-size:65%;baseline-shift:super;fill:#ffb231;fill-opacity:1;stroke:#ffffff;stroke-opacity:1"
   id="tspan20862">x</tspan>=e<tspan
   style="font-size:65%;baseline-shift:super;fill:#ffb231;fill-opacity:1;stroke:#ffffff;stroke-opacity:1"
   id="tspan20859">x</tspan></tspan></text><text
         xml:space="preserve"
         style="font-size:12px;font-family:'Berlin Sans FB';-inkscape-font-specification:'Berlin Sans FB';fill:#ffb231;fill-opacity:1;stroke:#ffffff;stroke-width:0.5;stroke-linecap:round;stroke-linejoin:round;stroke-dasharray:none;stroke-opacity:1"
         x="151.95683"
         y="318.95892"
         id="text20849"><tspan
           sodipodi:role="line"
           id="tspan20847"
           x="151.95683"
           y="318.95892"
           style="font-size:12px;text-align:center;text-anchor:middle;fill:#ffb231;fill-opacity:1;stroke:#ffffff;stroke-opacity:1"
           dy="4.6300001">d</tspan><tspan
           sodipodi:role="line"
           x="151.95683"
           y="333.95892"
           id="tspan20851"
           style="font-size:12px;text-align:center;text-anchor:middle;fill:#ffb231;fill-opacity:1;stroke:#ffffff;stroke-opacity:1">dx</tspan></text><text
         xml:space="preserve"
         style="font-size:12px;font-family:'Berlin Sans FB';-inkscape-font-specification:'Berlin Sans FB';fill:#ffb231;fill-opacity:1;stroke:#ffffff;stroke-width:0.5;stroke-linecap:round;stroke-linejoin:round;stroke-dasharray:none;stroke-opacity:1"
         x="312.51776"
         y="371.71127"
         id="text20849-4"><tspan
           sodipodi:role="line"
           id="tspan20847-2"
           x="312.51776"
           y="371.71127"
           style="font-size:12px;text-align:center;text-anchor:middle;fill:#ffb231;fill-opacity:1;stroke:#ffffff;stroke-opacity:1"
           dy="4.6300001">d</tspan><tspan
           sodipodi:role="line"
           x="312.51776"
           y="386.71127"
           id="tspan20851-38"
           style="font-size:12px;text-align:center;text-anchor:middle;fill:#ffb231;fill-opacity:1;stroke:#ffffff;stroke-opacity:1">dx</tspan></text><text
         xml:space="preserve"
         style="font-size:12px;font-family:'Berlin Sans FB';-inkscape-font-specification:'Berlin Sans FB';display:inline;fill:#ffb231;fill-opacity:1;stroke:#ffffff;stroke-width:0.5;stroke-linecap:round;stroke-linejoin:round;stroke-dasharray:none;stroke-opacity:1"
         x="315.03253"
         y="477.76697"
         id="text20849-1"><tspan
           sodipodi:role="line"
           id="tspan20847-3"
           x="315.03253"
           y="477.76697"
           style="font-size:12px;text-align:center;text-anchor:middle;fill:#ffb231;fill-opacity:1;stroke:#ffffff;stroke-opacity:1"
           dy="3.71">f(x+h)-f(x)</tspan><tspan
           sodipodi:role="line"
           x="315.03253"
           y="492.76697"
           id="tspan20851-0"
           style="font-size:12px;text-align:center;text-anchor:middle;fill:#ffb231;fill-opacity:1;stroke:#ffffff;stroke-opacity:1">h</tspan></text><text
         xml:space="preserve"
         style="font-size:14.0459px;font-family:'Berlin Sans FB';-inkscape-font-specification:'Berlin Sans FB';fill:#ffb231;fill-opacity:1;stroke:#ffffff;stroke-width:0.585247;stroke-linecap:round;stroke-linejoin:round;stroke-dasharray:none;stroke-opacity:1"
         x="443.87256"
         y="324.20578"
         id="text20849-2"><tspan
           sodipodi:role="line"
           id="tspan20847-5"
           x="443.87256"
           y="324.20578"
           style="font-size:14.0459px;text-align:center;text-anchor:middle;fill:#ffb231;fill-opacity:1;stroke:#ffffff;stroke-width:0.585247;stroke-opacity:1"
           dy="5.4193854">d</tspan><tspan
           sodipodi:role="line"
           x="443.87256"
           y="341.76315"
           id="tspan20851-3"
           style="font-size:14.0459px;text-align:center;text-anchor:middle;fill:#ffb231;fill-opacity:1;stroke:#ffffff;stroke-width:0.585247;stroke-opacity:1">dx</tspan></text><text
         xml:space="preserve"
         style="font-size:14.0459px;font-family:'Berlin Sans FB';-inkscape-font-specification:'Berlin Sans FB';display:inline;fill:#ffb231;fill-opacity:1;stroke:#ffffff;stroke-width:0.585247;stroke-linecap:round;stroke-linejoin:round;stroke-dasharray:none;stroke-opacity:1"
         x="505.09592"
         y="323.91031"
         id="text20849-2-6"><tspan
           sodipodi:role="line"
           id="tspan20847-5-4"
           x="505.09592"
           y="323.91031"
           style="font-size:14.0459px;text-align:center;text-anchor:middle;fill:#ffb231;fill-opacity:1;stroke:#ffffff;stroke-width:0.585247;stroke-opacity:1"
           dy="4.5532203">1</tspan><tspan
           sodipodi:role="line"
           x="505.09592"
           y="341.46768"
           id="tspan20851-3-0"
           style="font-size:14.0459px;text-align:center;text-anchor:middle;fill:#ffb231;fill-opacity:1;stroke:#ffffff;stroke-width:0.585247;stroke-opacity:1">x<tspan
   id="tspan28611"
   style="font-size:6.24263px;fill:#ffb231;fill-opacity:1;stroke:#ffffff;stroke-width:0.585247;stroke-opacity:1">  </tspan>ln<tspan
   style="font-size:6.24263px;fill:#ffb231;fill-opacity:1;stroke:#ffffff;stroke-width:0.585247;stroke-opacity:1"
   id="tspan28615"> </tspan><tspan
   id="tspan28609"
   style="font-size:12.4853px;fill:#ffb231;fill-opacity:1;stroke:#ffffff;stroke-width:0.585247;stroke-opacity:1">b</tspan></tspan></text><text
         xml:space="preserve"
         style="font-size:14.0459px;font-family:'Berlin Sans FB';-inkscape-font-specification:'Berlin Sans FB';text-align:center;baseline-shift:baseline;text-anchor:middle;fill:#ffb231;fill-opacity:1;stroke:#ffffff;stroke-width:0.585247;stroke-linecap:round;stroke-linejoin:round;stroke-dasharray:none;stroke-opacity:1"
         x="470.35925"
         y="335.80994"
         id="text20855-1"><tspan
           sodipodi:role="line"
           id="tspan20853-7"
           x="470.35925"
           y="335.80994"
           style="fill:#ffb231;fill-opacity:1;stroke:#ffffff;stroke-width:0.585247;stroke-opacity:1">log<tspan
   style="font-size:9.12985px;baseline-shift:sub;fill:#ffb231;fill-opacity:1;stroke:#ffffff;stroke-width:0.585247;stroke-opacity:1"
   id="tspan28573">b</tspan>x =</tspan></text><text
         xml:space="preserve"
         style="font-size:11.6353px;font-family:'Berlin Sans FB';-inkscape-font-specification:'Berlin Sans FB';text-align:center;text-anchor:middle;fill:#ffb231;fill-opacity:1;stroke:#ffffff;stroke-width:0.485243;stroke-linecap:round;stroke-linejoin:round;stroke-dasharray:none;stroke-opacity:1"
         x="221.16975"
         y="331.5563"
         id="text22276"><tspan
           sodipodi:role="line"
           id="tspan22274"
           x="221.16975"
           y="331.5563"
           style="fill:#ffb231;fill-opacity:1;stroke:#ffffff;stroke-width:0.485243;stroke-dasharray:none;stroke-opacity:1">1</tspan></text><text
         xml:space="preserve"
         style="font-size:8.81587px;font-family:'Berlin Sans FB';-inkscape-font-specification:'Berlin Sans FB';text-align:center;text-anchor:middle;fill:#ffb231;fill-opacity:1;stroke:#ffffff;stroke-width:0.367328;stroke-linecap:round;stroke-linejoin:round;stroke-dasharray:none;stroke-opacity:1"
         x="198.89236"
         y="324.75952"
         id="text22330"><tspan
           sodipodi:role="line"
           id="tspan22328"
           x="198.89236"
           y="324.75952"
           style="fill:#ffb231;fill-opacity:1;stroke:#ffffff;stroke-width:0.367328;stroke-opacity:1">2</tspan></text><text
         xml:space="preserve"
         style="font-size:8.3268px;font-family:'Berlin Sans FB';-inkscape-font-specification:'Berlin Sans FB';text-align:center;text-anchor:middle;display:inline;fill:#ffb231;fill-opacity:1;stroke:#ffffff;stroke-width:0.346951;stroke-linecap:round;stroke-linejoin:round;stroke-dasharray:none;stroke-opacity:1"
         x="204.61232"
         y="346.30515"
         id="text22334-0"><tspan
           sodipodi:role="line"
           id="tspan22332-7"
           x="204.61232"
           y="346.30515"
           style="fill:#ffb231;fill-opacity:1;stroke:#ffffff;stroke-width:0.346951;stroke-opacity:1">3</tspan></text><text
         xml:space="preserve"
         style="font-size:9.33333px;font-family:'Berlin Sans FB';-inkscape-font-specification:'Berlin Sans FB';text-align:center;text-anchor:middle;fill:#ffb231;fill-opacity:1;stroke:#ffffff;stroke-width:0.394;stroke-linecap:round;stroke-linejoin:round;stroke-dasharray:none;stroke-opacity:1"
         x="314.86441"
         y="146.44041"
         id="text44284"><tspan
           sodipodi:role="line"
           id="tspan44282"
           x="314.86441"
           y="146.44041"
           style="font-size:9.33333px;fill:#ffb231;fill-opacity:1;stroke:#ffffff;stroke-opacity:1">(0,1)</tspan></text><text
         xml:space="preserve"
         style="font-size:9.33333px;font-family:'Berlin Sans FB';-inkscape-font-specification:'Berlin Sans FB';text-align:center;text-anchor:middle;display:inline;fill:#ffb231;fill-opacity:1;stroke:#ffffff;stroke-width:0.394;stroke-linecap:round;stroke-linejoin:round;stroke-dasharray:none;stroke-opacity:1"
         x="334.39178"
         y="161.59706"
         id="text44284-1"><tspan
           sodipodi:role="line"
           id="tspan44282-7"
           x="334.39178"
           y="161.59706"
           style="font-size:9.33333px;fill:#ffb231;fill-opacity:1;stroke:#ffffff;stroke-opacity:1">(1,0)</tspan></text><text
         xml:space="preserve"
         style="font-size:9.33333px;font-family:'Berlin Sans FB';-inkscape-font-specification:'Berlin Sans FB';text-align:center;text-anchor:middle;display:inline;fill:#ffb231;fill-opacity:1;stroke:#ffffff;stroke-width:0.394;stroke-linecap:round;stroke-linejoin:round;stroke-dasharray:none;stroke-opacity:1"
         x="315.10931"
         y="176.67186"
         id="text44284-1-3"><tspan
           sodipodi:role="line"
           id="tspan44282-7-8"
           x="315.10931"
           y="176.67186"
           style="font-size:9.33333px;fill:#ffb231;fill-opacity:1;stroke:#ffffff;stroke-opacity:1">(0,-1)</tspan></text><text
         xml:space="preserve"
         style="font-size:9.33333px;font-family:'Berlin Sans FB';-inkscape-font-specification:'Berlin Sans FB';text-align:center;text-anchor:middle;display:inline;fill:#ffb231;fill-opacity:1;stroke:#ffffff;stroke-width:0.394;stroke-linecap:round;stroke-linejoin:round;stroke-dasharray:none;stroke-opacity:1"
         x="293.34644"
         y="161.59706"
         id="text44284-1-4"><tspan
           sodipodi:role="line"
           id="tspan44282-7-7"
           x="293.34644"
           y="161.59706"
           style="font-size:9.33333px;fill:#ffb231;fill-opacity:1;stroke:#ffffff;stroke-opacity:1">(-1,0)</tspan></text><text
         xml:space="preserve"
         style="font-size:12px;font-family:'Berlin Sans FB';-inkscape-font-specification:'Berlin Sans FB';text-align:center;text-anchor:middle;fill:#ffb231;fill-opacity:1;stroke:#ffffff;stroke-width:0.5;stroke-linecap:round;stroke-linejoin:round;stroke-dasharray:none;stroke-opacity:1"
         x="330.21213"
         y="380.76031"
         id="text43264"><tspan
           sodipodi:role="line"
           id="tspan43262"
           x="330.21213"
           y="380.76031"
           style="font-size:12px;fill:#ffb231;fill-opacity:1;stroke:#ffffff;stroke-opacity:1">ab =</tspan></text><text
         xml:space="preserve"
         style="font-size:12px;font-family:'Berlin Sans FB';-inkscape-font-specification:'Berlin Sans FB';text-align:center;text-anchor:middle;display:inline;fill:#ffb231;fill-opacity:1;stroke:#ffffff;stroke-width:0.5;stroke-linecap:round;stroke-linejoin:round;stroke-dasharray:none;stroke-opacity:1"
         x="327.54001"
         y="414.58023"
         id="text43264-6"><tspan
           sodipodi:role="line"
           id="tspan43262-5"
           x="327.54001"
           y="414.58023"
           style="font-size:12px;fill:#ffb231;fill-opacity:1;stroke:#ffffff;stroke-opacity:1" /></text><text
         xml:space="preserve"
         style="font-size:12px;font-family:'Berlin Sans FB';-inkscape-font-specification:'Berlin Sans FB';text-align:center;text-anchor:middle;fill:#ffb231;fill-opacity:1;stroke:#ffffff;stroke-width:0.5;stroke-linecap:round;stroke-linejoin:round;stroke-dasharray:none;stroke-opacity:1"
         x="322.9375"
         y="397.25"
         id="text43310"><tspan
           sodipodi:role="line"
           id="tspan43308"
           x="322.9375"
           y="397.25">a'b + b'a</tspan></text><text
         xml:space="preserve"
         style="font-size:11.5445px;font-family:'Berlin Sans FB';-inkscape-font-specification:'Berlin Sans FB';fill:#ffb231;fill-opacity:1;stroke:#ffffff;stroke-width:0.481021;stroke-linecap:round;stroke-linejoin:round;stroke-dasharray:none;stroke-opacity:1"
         x="314.20358"
         y="49.473476"
         id="text20849-4-5"><tspan
           sodipodi:role="line"
           id="tspan20847-2-2"
           x="314.20358"
           y="49.473476"
           style="font-size:11.5445px;text-align:center;text-anchor:middle;fill:#ffb231;fill-opacity:1;stroke:#ffffff;stroke-width:0.481021;stroke-opacity:1"
           dy="4.4542513">d</tspan><tspan
           sodipodi:role="line"
           x="314.20358"
           y="63.904102"
           id="tspan20851-38-0"
           style="font-size:11.5445px;text-align:center;text-anchor:middle;fill:#ffb231;fill-opacity:1;stroke:#ffffff;stroke-width:0.481021;stroke-opacity:1">dx</tspan></text><text
         xml:space="preserve"
         style="font-size:11.5445px;font-family:'Berlin Sans FB';-inkscape-font-specification:'Berlin Sans FB';fill:#ffb231;fill-opacity:1;stroke:#ffffff;stroke-width:0.481021;stroke-linecap:round;stroke-linejoin:round;stroke-dasharray:none;stroke-opacity:1"
         x="479.04065"
         y="261.39133"
         id="text20849-4-5-7"><tspan
           sodipodi:role="line"
           id="tspan20847-2-2-27"
           x="479.04065"
           y="261.39133"
           style="font-size:11.5445px;text-align:center;text-anchor:middle;fill:#ffb231;fill-opacity:1;stroke:#ffffff;stroke-width:0.481021;stroke-opacity:1"
           dy="4.4542513">d</tspan><tspan
           sodipodi:role="line"
           x="479.04065"
           y="275.82196"
           id="tspan20851-38-0-6"
           style="font-size:11.5445px;text-align:center;text-anchor:middle;fill:#ffb231;fill-opacity:1;stroke:#ffffff;stroke-width:0.481021;stroke-opacity:1">dx</tspan></text><text
         xml:space="preserve"
         style="font-size:11.5445px;font-family:'Berlin Sans FB';-inkscape-font-specification:'Berlin Sans FB';fill:#ffb231;fill-opacity:1;stroke:#ffffff;stroke-width:0.481021;stroke-linecap:round;stroke-linejoin:round;stroke-dasharray:none;stroke-opacity:1"
         x="303.23685"
         y="227.7464"
         id="text20849-4-5-5"><tspan
           sodipodi:role="line"
           id="tspan20847-2-2-26"
           x="303.23685"
           y="227.7464"
           style="font-size:11.5445px;text-align:center;text-anchor:middle;fill:#ffb231;fill-opacity:1;stroke:#ffffff;stroke-width:0.481021;stroke-opacity:1"
           dy="4.4542513">d</tspan><tspan
           sodipodi:role="line"
           x="303.23685"
           y="242.17702"
           id="tspan20851-38-0-0"
           style="font-size:11.5445px;text-align:center;text-anchor:middle;fill:#ffb231;fill-opacity:1;stroke:#ffffff;stroke-width:0.481021;stroke-opacity:1">dx</tspan></text><text
         xml:space="preserve"
         style="font-size:11.5445px;font-family:'Berlin Sans FB';-inkscape-font-specification:'Berlin Sans FB';fill:#ffb231;fill-opacity:1;stroke:#ffffff;stroke-width:0.481021;stroke-linecap:round;stroke-linejoin:round;stroke-dasharray:none;stroke-opacity:1"
         x="312.42859"
         y="190.63434"
         id="text20849-4-5-5-0"><tspan
           sodipodi:role="line"
           id="tspan20847-2-2-26-9"
           x="312.42859"
           y="190.63434"
           style="font-size:11.5445px;text-align:center;text-anchor:middle;fill:#ffb231;fill-opacity:1;stroke:#ffffff;stroke-width:0.481021;stroke-opacity:1"
           dy="4.4542513">d</tspan><tspan
           sodipodi:role="line"
           x="312.42859"
           y="205.06496"
           id="tspan20851-38-0-0-9"
           style="font-size:11.5445px;text-align:center;text-anchor:middle;fill:#ffb231;fill-opacity:1;stroke:#ffffff;stroke-width:0.481021;stroke-opacity:1">dx</tspan></text><text
         xml:space="preserve"
         style="font-size:10.6667px;font-family:'Berlin Sans FB';-inkscape-font-specification:'Berlin Sans FB';text-align:center;text-anchor:middle;fill:#ffb231;fill-opacity:1;stroke:#ffffff;stroke-width:0.3;stroke-linecap:round;stroke-linejoin:round;stroke-dasharray:none;stroke-opacity:1"
         x="327.8324"
         y="199.78021"
         id="text47825"><tspan
           sodipodi:role="line"
           id="tspan47823"
           style="fill:#ffb231;fill-opacity:1;stroke:#ffffff;stroke-width:0.3;stroke-opacity:1"
           x="327.8324"
           y="199.78021">b<tspan
   style="font-size:6.93337px;baseline-shift:super;fill:#ffb231;fill-opacity:1;stroke:#ffffff;stroke-width:0.3;stroke-opacity:1"
   id="tspan47833">x</tspan> =</tspan></text><text
         xml:space="preserve"
         style="font-size:10.6667px;font-family:'Berlin Sans FB';-inkscape-font-specification:'Berlin Sans FB';text-align:center;text-anchor:middle;fill:#ffb231;fill-opacity:1;stroke:#ffffff;stroke-width:0.3;stroke-linecap:round;stroke-linejoin:round;stroke-dasharray:none;stroke-opacity:1"
         x="322.4407"
         y="215.23549"
         id="text47837"><tspan
           sodipodi:role="line"
           id="tspan47835"
           style="fill:#ffb231;fill-opacity:1;stroke:#ffffff;stroke-width:0.3;stroke-opacity:1"
           x="322.4407"
           y="215.23549">b<tspan
   style="font-size:6.93337px;baseline-shift:super;fill:#ffb231;fill-opacity:1;stroke:#ffffff;stroke-width:0.3;stroke-opacity:1"
   id="tspan47839">x</tspan> ln(b)</tspan></text><text
         xml:space="preserve"
         style="font-size:11.5445px;font-family:'Berlin Sans FB';-inkscape-font-specification:'Berlin Sans FB';fill:#ffb231;fill-opacity:1;stroke:#ffffff;stroke-width:0.481021;stroke-linecap:round;stroke-linejoin:round;stroke-dasharray:none;stroke-opacity:1"
         x="328.25226"
         y="49.898594"
         id="text20849-4-5-3"><tspan
           sodipodi:role="line"
           id="tspan20847-2-2-2"
           x="328.25226"
           y="49.898594"
           style="font-size:11.5445px;text-align:center;text-anchor:middle;fill:#ffb231;fill-opacity:1;stroke:#ffffff;stroke-width:0.481021;stroke-opacity:1"
           dy="3.9924712">a</tspan><tspan
           sodipodi:role="line"
           x="328.25226"
           y="64.329216"
           id="tspan20851-38-0-2"
           style="font-size:11.5445px;text-align:center;text-anchor:middle;fill:#ffb231;fill-opacity:1;stroke:#ffffff;stroke-width:0.481021;stroke-opacity:1">b</tspan></text><text
         xml:space="preserve"
         style="font-size:11.5445px;font-family:'Berlin Sans FB';-inkscape-font-specification:'Berlin Sans FB';fill:#ffb231;fill-opacity:1;stroke:#ffffff;stroke-width:0.481021;stroke-linecap:round;stroke-linejoin:round;stroke-dasharray:none;stroke-opacity:1"
         x="324.5928"
         y="69.512627"
         id="text20849-4-5-3-6"><tspan
           sodipodi:role="line"
           id="tspan20847-2-2-2-1"
           x="324.5928"
           y="69.512627"
           style="font-size:11.5445px;text-align:center;text-anchor:middle;fill:#ffb231;fill-opacity:1;stroke:#ffffff;stroke-width:0.481021;stroke-opacity:1"
           dy="3.9924712">a'b - ab'</tspan><tspan
           sodipodi:role="line"
           x="324.5928"
           y="83.943253"
           id="tspan20851-38-0-2-4"
           style="font-size:11.5445px;text-align:center;text-anchor:middle;fill:#ffb231;fill-opacity:1;stroke:#ffffff;stroke-width:0.481021;stroke-opacity:1">b<tspan
   style="font-weight:bold;font-size:7.50392px;baseline-shift:super;fill:#ffb231;fill-opacity:1;stroke:#ffffff;stroke-width:0.481021;stroke-opacity:1"
   id="tspan43456">2</tspan></tspan></text><text
         xml:space="preserve"
         style="font-size:11.5445px;font-family:'Berlin Sans FB';-inkscape-font-specification:'Berlin Sans FB';text-align:center;text-anchor:middle;fill:#ffb231;fill-opacity:1;stroke:#ffffff;stroke-width:0.481021;stroke-linecap:round;stroke-linejoin:round;stroke-dasharray:none;stroke-opacity:1"
         x="338.60748"
         y="58.651581"
         id="text43412"><tspan
           sodipodi:role="line"
           id="tspan43410"
           x="338.60748"
           y="58.651581"
           style="font-size:11.5445px;fill:#ffb231;fill-opacity:1;stroke:#ffffff;stroke-width:0.481021;stroke-opacity:1">=</tspan></text><text
         xml:space="preserve"
         style="font-size:11.5445px;font-family:'Berlin Sans FB';-inkscape-font-specification:'Berlin Sans FB';fill:#ffb231;fill-opacity:1;stroke:#ffffff;stroke-width:0.481021;stroke-linecap:round;stroke-linejoin:round;stroke-dasharray:none;stroke-opacity:1"
         x="202.90576"
         y="139.92525"
         id="text20849-4-5-2"><tspan
           sodipodi:role="line"
           id="tspan20847-2-2-4"
           x="202.90576"
           y="139.92525"
           style="font-size:11.5445px;text-align:center;text-anchor:middle;fill:#ffb231;fill-opacity:1;stroke:#ffffff;stroke-width:0.481021;stroke-opacity:1"
           dy="4.4542513">d</tspan><tspan
           sodipodi:role="line"
           x="202.90576"
           y="154.35587"
           id="tspan20851-38-0-3"
           style="font-size:11.5445px;text-align:center;text-anchor:middle;fill:#ffb231;fill-opacity:1;stroke:#ffffff;stroke-width:0.481021;stroke-opacity:1">dx</tspan></text><text
         xml:space="preserve"
         style="font-size:10.6667px;font-family:'Berlin Sans FB';-inkscape-font-specification:'Berlin Sans FB';text-align:center;text-anchor:middle;fill:#ffb231;fill-opacity:1;stroke:#ffffff;stroke-width:0.394;stroke-linecap:round;stroke-linejoin:round;stroke-dasharray:none;stroke-opacity:1"
         x="253.15775"
         y="148.57668"
         id="text45127"><tspan
           sodipodi:role="line"
           id="tspan45125"
           x="253.15775"
           y="148.57668"
           style="font-size:10.6667px;fill:#ffb231;fill-opacity:1;stroke:#ffffff;stroke-opacity:1">f(g(x)) = f'(g(x))g'(x)</tspan></text><text
         xml:space="preserve"
         style="font-size:10.6667px;font-family:'Berlin Sans FB';-inkscape-font-specification:'Berlin Sans FB';text-align:center;text-anchor:middle;fill:#ffb231;fill-opacity:1;stroke:#ffffff;stroke-width:0.394;stroke-linecap:round;stroke-linejoin:round;stroke-dasharray:none;stroke-opacity:1"
         x="246.75"
         y="133.125"
         id="text45206"><tspan
           sodipodi:role="line"
           id="tspan45204"
           x="246.75"
           y="133.125">sin(  -x) = sin(x)</tspan></text><text
         xml:space="preserve"
         style="font-size:10.6667px;font-family:'Berlin Sans FB';-inkscape-font-specification:'Berlin Sans FB';text-align:center;text-anchor:middle;fill:#ffb231;fill-opacity:1;stroke:#ffffff;stroke-width:0.2;stroke-linecap:round;stroke-linejoin:round;stroke-dasharray:none;stroke-opacity:1"
         x="208.3125"
         y="166.375"
         id="text45483"><tspan
           sodipodi:role="line"
           id="tspan45481"
           x="208.3125"
           y="166.375">y=10-x<tspan
   style="font-size:65%;baseline-shift:super;fill:#ffb231;fill-opacity:1;stroke:#ffffff;stroke-width:0.2;stroke-dasharray:none;stroke-opacity:1"
   id="tspan45485">2</tspan></tspan></text><text
         xml:space="preserve"
         style="font-size:10.6667px;font-family:'Berlin Sans FB';-inkscape-font-specification:'Berlin Sans FB';text-align:center;text-anchor:middle;fill:#ffb231;fill-opacity:1;stroke:#ffffff;stroke-width:0.3;stroke-linecap:round;stroke-linejoin:round;stroke-dasharray:none;stroke-opacity:1"
         x="323.01105"
         y="236.64319"
         id="text47709"><tspan
           sodipodi:role="line"
           id="tspan47707"
           x="323.01105"
           y="236.64319">ln|x| =</tspan></text><text
         xml:space="preserve"
         style="font-size:10.6667px;font-family:'Berlin Sans FB';-inkscape-font-specification:'Berlin Sans FB';text-align:center;text-anchor:middle;fill:#ffb231;fill-opacity:1;stroke:#ffffff;stroke-width:0.3;stroke-linecap:round;stroke-linejoin:round;stroke-dasharray:none;stroke-opacity:1"
         x="324"
         y="113.625"
         id="text47713"
         inkscape:label="text47713"><tspan
           sodipodi:role="line"
           id="tspan47711"
           x="324"
           y="113.625" /></text><text
         xml:space="preserve"
         style="font-size:10.6667px;font-family:'Berlin Sans FB';-inkscape-font-specification:'Berlin Sans FB';text-align:center;text-anchor:middle;fill:#ffb231;fill-opacity:1;stroke:#ffffff;stroke-width:0.3;stroke-linecap:round;stroke-linejoin:round;stroke-dasharray:none;stroke-opacity:1"
         x="338.88092"
         y="228.22241"
         id="text47717"><tspan
           sodipodi:role="line"
           id="tspan47715"
           x="338.88092"
           y="228.22241"
           dy="3.3900001">1</tspan><tspan
           sodipodi:role="line"
           x="338.88092"
           y="241.55579"
           id="tspan47719">x</tspan></text><text
         xml:space="preserve"
         style="font-size:10.6667px;font-family:'Berlin Sans FB';-inkscape-font-specification:'Berlin Sans FB';text-align:center;text-anchor:middle;fill:#ffb231;fill-opacity:1;stroke:#ffffff;stroke-width:0.3;stroke-linecap:round;stroke-linejoin:round;stroke-dasharray:none;stroke-opacity:1"
         x="503.46002"
         y="269.7417"
         id="text47885"><tspan
           sodipodi:role="line"
           id="tspan47883"
           x="503.46002"
           y="269.7417">x<tspan
   style="font-size:65%;baseline-shift:super;fill:#ffb231;fill-opacity:1;stroke:#ffffff;stroke-opacity:1"
   id="tspan47889">n</tspan> = nx<tspan
   style="font-size:65%;baseline-shift:super;fill:#ffb231;fill-opacity:1;stroke:#ffffff;stroke-opacity:1"
   id="tspan47887">n-1</tspan></tspan></text><path
         d="m 206.36255,340.00604 c -0.0191,0.0414 -0.0505,0.042 -0.0505,0.0692 0,0.0407 -0.0271,0.0664 -0.0813,0.0772 -0.16263,0.0271 -0.25073,0.0434 -0.26428,0.0488 -0.15721,0.0434 -2.40175,-0.13912 -2.70804,0.10755 -0.30629,0.24666 -0.98454,0.91679 -1.17428,1.14989 -0.35779,0.44453 -0.71559,1.01782 -1.07338,1.71985 -0.39032,0.76166 -0.64104,1.41355 -0.75218,1.95566 -0.005,0.0352 -0.0366,0.27784 -0.0935,0.72778 -0.0326,0.2331 -0.0813,0.36456 -0.14637,0.39438 -0.22226,0.10029 -0.39167,0.15044 -0.50823,0.15044 -0.0461,0 -0.0772,-0.0529 -0.0935,-0.15857 -0.0298,-0.18703 -0.0597,-0.31984 -0.0894,-0.39845 -0.2304,-0.63969 -0.64918,-1.22517 -1.25634,-1.75644 -0.28732,-0.25207 -0.50281,-0.41742 -0.64647,-0.49603 -0.0759,-0.0407 -0.28325,-0.12196 -0.62206,-0.24395 -0.0976,-0.0352 -0.14638,-0.10165 -0.14638,-0.19922 0,-0.0515 0.0176,-0.0935 0.0529,-0.12604 0.0894,-0.10843 0.2331,-0.28054 0.43097,-0.51636 0.11927,-0.14095 0.23582,-0.25886 0.34966,-0.35372 0.0597,-0.0515 0.11114,-0.0772 0.1545,-0.0772 0.0298,0 0.0894,0.0217 0.1789,0.0651 0.29274,0.14095 0.60445,0.36458 0.93514,0.67087 0.33069,0.30357 0.55567,0.58276 0.67492,0.83755 0.0705,0.15721 0.13283,0.23582 0.18704,0.23582 0.0651,0 0.14501,-0.11655 0.23988,-0.34966 0.0894,-0.21956 0.31713,-0.6031 0.68306,-1.15063 0.36592,-0.54753 0.67086,-0.96224 0.91481,-1.24414 0.86466,-0.99748 1.16117,-1.41165 1.56233,-1.66373 0.0434,-0.0271 0.0827,-0.0407 0.11791,-0.0407 0.0677,0 2.99258,-0.15753 3.05763,0.008 0.0379,0.0922 0.0935,0.27783 0.1667,0.55702 z"
         id="path28440"
         sodipodi:nodetypes="csccscccccscccccscccscccscsccsccc"
         style="font-size:12.1426px;font-family:'Berlin Sans FB';-inkscape-font-specification:'Berlin Sans FB';text-align:center;text-anchor:middle;display:inline;fill:#ffb231;fill-opacity:1;stroke:#ffffff;stroke-width:0.346951;stroke-linecap:round;stroke-linejoin:round;stroke-opacity:1" /></g><g
       id="g116345"
       inkscape:label="Text (No Stroke)"
       style="display:inline"><text
         xml:space="preserve"
         style="font-size:5.33333px;font-family:'Berlin Sans FB';-inkscape-font-specification:'Berlin Sans FB';text-align:center;text-anchor:middle;fill:#ffb231;fill-opacity:1;stroke:none;stroke-width:0.5;stroke-linecap:round;stroke-linejoin:round;stroke-dasharray:none;stroke-opacity:1"
         x="214.8224"
         y="327.51895"
         id="text24516"><tspan
           sodipodi:role="line"
           x="214.8224"
           y="327.51895"
           id="tspan26700">3</tspan></text><text
         xml:space="preserve"
         style="font-size:5.33333px;font-family:'Berlin Sans FB';-inkscape-font-specification:'Berlin Sans FB';text-align:center;text-anchor:middle;display:inline;fill:#ffb231;fill-opacity:1;stroke:none;stroke-width:0.5;stroke-linecap:round;stroke-linejoin:round;stroke-dasharray:none;stroke-opacity:1"
         x="196.14413"
         y="337.22876"
         id="text24516-6"><tspan
           sodipodi:role="line"
           x="196.14413"
           y="337.22876"
           id="tspan26700-7">6</tspan></text><path
         style="display:inline;fill:#ffb231;fill-opacity:1;stroke:none;stroke-width:0.00471602;stroke-opacity:1"
         d="m 213.33364,321.40162 0.0975,0.007 c 0.10112,-0.11436 0.14085,-0.45262 0.73671,-0.38641 -0.0217,1.44933 -0.65725,1.60221 -0.61753,1.89954 0.0145,0.16853 0.14806,0.27205 0.29252,0.27807 0.45623,-0.0156 0.43576,-0.63078 0.5778,-2.18122 h 0.58864 c -0.0313,0.5465 -0.11676,1.09301 -0.12639,1.62869 0.007,0.35631 0.2239,0.54651 0.50919,0.54891 0.46946,0.0157 0.61752,-0.53206 0.61752,-0.76559 h -0.10111 c -0.01,0.1926 -0.10232,0.33103 -0.29974,0.33946 -0.53808,0.007 -0.24195,-0.94615 -0.23834,-1.74425 l 0.63919,0.004 -0.004,-0.40807 c -2.65674,-0.0128 -2.31952,-0.0649 -2.67234,0.78003 z"
         id="path28156" /><path
         style="display:inline;fill:#ffb231;fill-opacity:1;stroke:none;stroke-width:0.00959872;stroke-opacity:1"
         d="m 228.16965,129.54776 0.19845,0.0142 c 0.20581,-0.23276 0.28668,-0.92123 1.49946,-0.78647 -0.0441,2.94989 -1.33774,3.26105 -1.25689,3.86622 0.0296,0.34302 0.30135,0.55371 0.59538,0.56598 0.92859,-0.0317 0.88691,-1.28386 1.17602,-4.43955 h 1.19809 c -0.0637,1.11232 -0.23765,2.22466 -0.25724,3.31495 0.0142,0.72521 0.45571,1.11233 1.03637,1.11723 0.95551,0.032 1.25687,-1.08294 1.25687,-1.55824 h -0.20579 c -0.0203,0.39199 -0.20826,0.67375 -0.61008,0.6909 -1.09518,0.0142 -0.49245,-1.92573 -0.48511,-3.55015 l 1.30098,0.008 -0.008,-0.83056 c -5.40739,-0.0261 -4.72103,-0.1321 -5.43914,1.58763 z"
         id="path28156-6" /><path
         style="display:inline;fill:#ffb231;fill-opacity:1;stroke:none;stroke-width:0.00471602;stroke-opacity:1"
         d="m 194.65536,331.11143 0.0975,0.007 c 0.10112,-0.11436 0.14085,-0.45262 0.73671,-0.38641 -0.0217,1.44933 -0.65725,1.60221 -0.61753,1.89954 0.0145,0.16853 0.14806,0.27205 0.29252,0.27807 0.45623,-0.0156 0.43576,-0.63078 0.5778,-2.18122 h 0.58864 c -0.0313,0.5465 -0.11676,1.09301 -0.12639,1.62869 0.007,0.35631 0.2239,0.54651 0.50919,0.54891 0.46946,0.0157 0.61752,-0.53206 0.61752,-0.76559 h -0.10111 c -0.01,0.1926 -0.10232,0.33103 -0.29974,0.33946 -0.53808,0.007 -0.24195,-0.94615 -0.23834,-1.74425 l 0.63919,0.004 -0.004,-0.40807 c -2.65674,-0.0128 -2.31952,-0.0649 -2.67234,0.78003 z"
         id="path28156-9" /></g><g
       id="Paths"
       style="display:inline"
       inkscape:label="Paths"><path
         style="fill:#ffffff;fill-opacity:1;stroke:#ffb231;stroke-width:0.5;stroke-linecap:round;stroke-linejoin:round;stroke-dasharray:none;stroke-opacity:1"
         d="m 146.22666,324.89877 h 11.51065"
         id="path20918" /><path
         style="fill:#ffffff;fill-opacity:1;stroke:#ffb231;stroke-width:0.5;stroke-linecap:round;stroke-linejoin:round;stroke-dasharray:none;stroke-opacity:1"
         d="m 306.7876,377.65111 h 11.51065"
         id="path20918-9" /><path
         style="display:inline;fill:#ffffff;fill-opacity:1;stroke:#ffb231;stroke-width:0.5;stroke-linecap:round;stroke-linejoin:round;stroke-dasharray:none;stroke-opacity:1"
         d="m 289.1843,483.89432 h 51.19815"
         id="path20918-0"
         sodipodi:nodetypes="cc" /><path
         style="fill:#ffffff;fill-opacity:1;stroke:#ffb231;stroke-width:0.585247;stroke-linecap:round;stroke-linejoin:round;stroke-dasharray:none;stroke-opacity:1"
         d="m 436.88094,331.15833 h 13.47314"
         id="path20918-7" /><path
         style="display:inline;fill:#ffffff;fill-opacity:1;stroke:#ffb231;stroke-width:0.850881;stroke-linecap:round;stroke-linejoin:round;stroke-dasharray:none;stroke-opacity:1"
         d="m 490.92565,331.10803 h 28.47927"
         id="path20918-7-6" /><path
         style="fill:none;fill-opacity:1;stroke:#ffb231;stroke-width:0.505943;stroke-linecap:round;stroke-linejoin:round;stroke-dasharray:none;stroke-opacity:1"
         d="m 180.98932,338.09718 h 37.10011 v -21.87742 z"
         id="path22166" /><path
         style="fill:none;fill-opacity:1;stroke:#ffb231;stroke-width:0.5;stroke-linecap:round;stroke-linejoin:round;stroke-dasharray:none;stroke-opacity:1"
         d="m 213.07819,323.84741 c 3.16191,0 3.16191,0 3.16191,0"
         id="path28320" /><path
         style="display:inline;fill:none;fill-opacity:1;stroke:#ffb231;stroke-width:0.5;stroke-linecap:round;stroke-linejoin:round;stroke-dasharray:none;stroke-opacity:1"
         d="m 194.39991,333.55722 c 3.16191,0 3.16191,0 3.16191,0"
         id="path28320-2" /><path
         style="fill:none;fill-opacity:1;stroke:#ffb231;stroke-width:0.919691;stroke-linecap:round;stroke-linejoin:round;stroke-dasharray:none;stroke-opacity:1"
         d="m 314.92576,148.68396 v 20.33676"
         id="path44258" /><path
         style="display:inline;fill:none;fill-opacity:1;stroke:#ffb231;stroke-width:0.919691;stroke-linecap:round;stroke-linejoin:round;stroke-dasharray:none;stroke-opacity:1"
         d="M 325.09414,158.85234 H 304.75738"
         id="path44258-7" /><path
         style="fill:#ffffff;fill-opacity:1;stroke:#ffb231;stroke-width:0.481021;stroke-linecap:round;stroke-linejoin:round;stroke-dasharray:none;stroke-opacity:1"
         d="m 308.69093,55.187856 h 11.07372"
         id="path20918-9-5" /><path
         style="fill:#ffffff;fill-opacity:1;stroke:#ffb231;stroke-width:0.481021;stroke-linecap:round;stroke-linejoin:round;stroke-dasharray:none;stroke-opacity:1"
         d="m 473.52799,267.1057 h 11.07372"
         id="path20918-9-5-5" /><path
         style="fill:#ffffff;fill-opacity:1;stroke:#ffb231;stroke-width:0.481021;stroke-linecap:round;stroke-linejoin:round;stroke-dasharray:none;stroke-opacity:1"
         d="M 297.72418,233.46059 H 308.7979"
         id="path20918-9-5-8" /><path
         style="fill:#ffffff;fill-opacity:1;stroke:#ffb231;stroke-width:0.481021;stroke-linecap:round;stroke-linejoin:round;stroke-dasharray:none;stroke-opacity:1"
         d="m 306.91595,196.34853 h 11.07372"
         id="path20918-9-5-8-3" /><path
         style="display:inline;fill:#ffffff;fill-opacity:1;stroke:#ffb231;stroke-width:0.481021;stroke-linecap:round;stroke-linejoin:round;stroke-dasharray:none;stroke-opacity:1"
         d="m 336.43765,233.43725 h 4.79815"
         id="path20918-9-5-8-9"
         sodipodi:nodetypes="cc" /><path
         style="fill:#ffffff;fill-opacity:1;stroke:#ffb231;stroke-width:0.481021;stroke-linecap:round;stroke-linejoin:round;stroke-dasharray:none;stroke-opacity:1"
         d="M 322.73958,55.18786 H 333.8133"
         id="path20918-9-5-4" /><path
         style="fill:#ffffff;fill-opacity:1;stroke:#ffb231;stroke-width:0.481021;stroke-linecap:round;stroke-linejoin:round;stroke-dasharray:none;stroke-opacity:1"
         d="m 304.10836,74.200622 h 40.59636"
         id="path20918-9-5-4-8"
         sodipodi:nodetypes="cc" /><path
         style="fill:#ffffff;fill-opacity:1;stroke:#ffb231;stroke-width:0.481021;stroke-linecap:round;stroke-linejoin:round;stroke-dasharray:none;stroke-opacity:1"
         d="m 197.3931,145.63963 h 11.07372"
         id="path20918-9-5-9" /><path
         style="fill:#ffffff;fill-opacity:1;stroke:#ffb231;stroke-width:1;stroke-linecap:round;stroke-linejoin:round;stroke-dasharray:none;stroke-opacity:1"
         d="m 187.80806,159.24175 v 29"
         id="path45230" /><path
         style="display:inline;fill:#ffffff;fill-opacity:1;stroke:#ffb231;stroke-width:1;stroke-linecap:round;stroke-linejoin:round;stroke-dasharray:none;stroke-opacity:1"
         d="m 202.30806,188.24175 h -29"
         id="path45230-0" /><path
         style="fill:none;fill-opacity:1;stroke:#ffb231;stroke-width:1;stroke-linecap:round;stroke-linejoin:round;stroke-dasharray:none;stroke-opacity:1"
         d="m 176.05806,188.24175 c 0,0 4,-22.0625 11.75,-22.0625 7.75,0 11.3125,22.0625 11.3125,22.0625"
         id="path45416" /><path
         style="fill:none;fill-opacity:1;stroke:#ffb231;stroke-width:1;stroke-linecap:round;stroke-linejoin:round;stroke-dasharray:none;stroke-opacity:1"
         d="m 182.87718,169.07233 13.22448,-13.22448 -24.375,24.375"
         id="path45418" /><circle
         style="display:inline;fill:none;fill-opacity:1;stroke:#ffb231;stroke-width:1;stroke-linecap:round;stroke-linejoin:round;stroke-dasharray:none;stroke-opacity:1"
         id="path45472"
         cx="184.08931"
         cy="167.96051"
         r="1.78125" /><circle
         style="display:inline;fill:none;fill-opacity:1;stroke:#ffb231;stroke-width:0.919691;stroke-linecap:round;stroke-linejoin:round;stroke-dasharray:none;stroke-opacity:1"
         id="path43530"
         cx="314.92578"
         cy="-158.85234"
         r="8.3188696"
         transform="scale(1,-1)" /></g></g></svg>
