<?xml version="1.0" encoding="UTF-8" standalone="no"?>
<!-- Created with Inkscape (http://www.inkscape.org/) -->

<svg
   width="31.741821mm"
   height="42.49086mm"
   viewBox="0 0 31.741821 42.49086"
   version="1.1"
   id="svg5"
   xml:space="preserve"
   sodipodi:docname="template2.svg"
   inkscape:version="1.2.2 (b0a8486, 2022-12-01)"
   inkscape:export-filename="Hoodies/Eden - M.png"
   inkscape:export-xdpi="2400.6201"
   inkscape:export-ydpi="2400.6201"
   xmlns:inkscape="http://www.inkscape.org/namespaces/inkscape"
   xmlns:sodipodi="http://sodipodi.sourceforge.net/DTD/sodipodi-0.dtd"
   xmlns:xlink="http://www.w3.org/1999/xlink"
   xmlns="http://www.w3.org/2000/svg"
   xmlns:svg="http://www.w3.org/2000/svg"><sodipodi:namedview
     id="namedview119"
     pagecolor="#ffffff"
     bordercolor="#666666"
     borderopacity="1.0"
     inkscape:pageshadow="2"
     inkscape:pageopacity="0.0"
     inkscape:pagecheckerboard="0"
     inkscape:document-units="mm"
     showgrid="false"
     showguides="true"
     inkscape:guide-bbox="true"
     inkscape:zoom="3.351929"
     inkscape:cx="8.6517345"
     inkscape:cy="78.760618"
     inkscape:window-width="1440"
     inkscape:window-height="841"
     inkscape:window-x="0"
     inkscape:window-y="0"
     inkscape:window-maximized="1"
     inkscape:current-layer="svg5"
     inkscape:showpageshadow="2"
     inkscape:deskcolor="#d1d1d1"
     inkscape:snap-bbox="true"
     inkscape:bbox-paths="true"
     inkscape:bbox-nodes="true"
     inkscape:snap-bbox-edge-midpoints="true"
     inkscape:snap-bbox-midpoints="true"
     inkscape:object-paths="true"
     inkscape:snap-intersection-paths="true"
     inkscape:snap-smooth-nodes="true"
     inkscape:snap-midpoints="true"
     inkscape:snap-object-midpoints="true"
     inkscape:snap-center="true"
     inkscape:snap-text-baseline="true"
     inkscape:snap-page="true"><sodipodi:guide
       position="12.365294,32.366734"
       orientation="0,-1"
       id="guide296"
       inkscape:locked="false" /><sodipodi:guide
       position="6.4099011,28.061084"
       orientation="0,-1"
       id="guide2390"
       inkscape:locked="false" /><sodipodi:guide
       position="6.4099011,7.6505447"
       orientation="0,-1"
       id="guide2829"
       inkscape:locked="false" /><sodipodi:guide
       position="15.702918,9.9594046"
       orientation="0,-1"
       id="guide3002"
       inkscape:locked="false" /><sodipodi:guide
       position="15.702918,11.959405"
       orientation="0,-1"
       id="guide3042"
       inkscape:locked="false" /><sodipodi:guide
       position="15.024874,3.3441749"
       orientation="0,-1"
       id="guide1218"
       inkscape:locked="false" /></sodipodi:namedview><defs
     id="defs2"><linearGradient
       inkscape:collect="always"
       id="linearGradient1034"><stop
         style="stop-color:#ff0000;stop-opacity:1;"
         offset="0.18310966"
         id="stop1030" /><stop
         style="stop-color:#e8e2e2;stop-opacity:1;"
         offset="0.52124733"
         id="stop11466" /><stop
         style="stop-color:#00ffff;stop-opacity:1;"
         offset="0.85244924"
         id="stop3150" /></linearGradient><linearGradient
       inkscape:collect="always"
       xlink:href="#linearGradient1034"
       id="linearGradient1036"
       x1="2.5251355"
       y1="1.6644152"
       x2="29.130608"
       y2="39.402695"
       gradientUnits="userSpaceOnUse" /><clipPath
       clipPathUnits="userSpaceOnUse"
       id="clipPath1398"><g
         inkscape:groupmode="layer"
         id="g1452"
         inkscape:label="Gradient"><path
           style="color:#000000;fill:#ffffff;stroke-linecap:round;stroke-linejoin:round;-inkscape-stroke:none"
           d="m 78.212891,112.38867 c -0.329603,0 -0.683594,0.29711 -0.683594,0.77149 0,0.28742 0.13205,0.49431 0.28125,0.60937 0.1492,0.11507 0.290958,0.15235 0.402344,0.15235 0.157407,0 0.275592,-0.0371 0.355468,-0.0781 0.07988,-0.041 0.132813,-0.0977 0.132813,-0.0977 a 0.155,0.155 0 0 0 -0.02148,-0.21875 0.155,0.155 0 0 0 -0.21875,0.0215 c 0,0 0.0037,5.8e-4 -0.0332,0.0195 -0.03691,0.0189 -0.103535,0.043 -0.214843,0.043 -0.0044,0 -0.126448,-0.0212 -0.212891,-0.0879 -0.08644,-0.0667 -0.160156,-0.16355 -0.160156,-0.36328 0,-0.31938 0.23963,-0.46289 0.373047,-0.46289 0.157699,0 0.248046,0.10937 0.248046,0.10937 a 0.155,0.155 0 0 0 0.21875,0.0215 0.155,0.155 0 0 0 0.02148,-0.21875 c 0,0 -0.182959,-0.22071 -0.488281,-0.22071 z"
           id="path1400"
           transform="translate(-69.318613,-90.742505)" /><path
           style="color:#000000;fill:#ffffff;stroke-linecap:round;stroke-linejoin:round;-inkscape-stroke:none"
           d="m 81.894531,112.38867 c -0.329603,0 -0.683594,0.29711 -0.683594,0.77149 0,0.28742 0.132051,0.49431 0.28125,0.60937 0.1492,0.11507 0.290959,0.15235 0.402344,0.15235 0.157408,0 0.275592,-0.0371 0.355469,-0.0781 0.07988,-0.041 0.130859,-0.0977 0.130859,-0.0977 a 0.155,0.155 0 0 0 -0.01953,-0.21875 0.155,0.155 0 0 0 -0.21875,0.0215 c 0,0 0.0037,5.8e-4 -0.0332,0.0195 -0.03691,0.0189 -0.103535,0.043 -0.214844,0.043 -0.0044,0 -0.126447,-0.0212 -0.21289,-0.0879 -0.08644,-0.0667 -0.16211,-0.16355 -0.16211,-0.36328 0,-0.31938 0.241584,-0.46289 0.375,-0.46289 0.157699,0 0.248047,0.10937 0.248047,0.10937 a 0.155,0.155 0 0 0 0.21875,0.0215 0.155,0.155 0 0 0 0.02148,-0.21875 c 0,0 -0.182958,-0.22071 -0.488281,-0.22071 z"
           id="path1402"
           transform="translate(-69.318613,-90.742505)" /><path
           style="color:#000000;fill:#ffffff;stroke-linecap:round;stroke-linejoin:round;-inkscape-stroke:none"
           d="m 79.408203,112.41602 c -0.09045,0 -0.159704,0.0491 -0.207031,0.0977 -0.04733,0.0486 -0.08213,0.10371 -0.115235,0.16602 -0.0662,0.12461 -0.121478,0.27762 -0.167968,0.42773 -0.09298,0.30022 -0.150391,0.5957 -0.150391,0.59571 a 0.15499949,0.15499949 0 0 0 0.121094,0.18164 0.15499949,0.15499949 0 0 0 0.18164,-0.1211 c 0,0 0.05773,-0.28614 0.144532,-0.5664 0.0434,-0.14014 0.09508,-0.27803 0.144531,-0.3711 0.01869,-0.0352 0.03451,-0.0541 0.04883,-0.0723 0.01448,0.0183 0.02994,0.037 0.04883,0.0723 0.04997,0.0932 0.102372,0.2329 0.146485,0.37305 0.08822,0.28031 0.146484,0.56445 0.146484,0.56445 a 0.15499949,0.15499949 0 0 0 0.181641,0.1211 0.15499949,0.15499949 0 0 0 0.121093,-0.1836 c 0,0 -0.05982,-0.29552 -0.154297,-0.5957 -0.04724,-0.15009 -0.10119,-0.30127 -0.167968,-0.42578 -0.03339,-0.0623 -0.06974,-0.11758 -0.117188,-0.16602 -0.04745,-0.0484 -0.114629,-0.0977 -0.205078,-0.0977 z"
           id="path1404"
           transform="translate(-69.318613,-90.742505)" /><path
           style="color:#000000;fill:#ffffff;stroke-linecap:round;stroke-linejoin:round;-inkscape-stroke:none"
           d="m 79.789062,113.2168 a 0.15499949,0.15499949 0 0 0 -0.11914,0.0137 c -0.215094,0.1207 -0.343334,0.0793 -0.523438,-0.006 a 0.15499949,0.15499949 0 0 0 -0.207031,0.0742 0.15499949,0.15499949 0 0 0 0.07422,0.20703 c 0.215952,0.10207 0.50417,0.16497 0.808594,-0.006 a 0.15499949,0.15499949 0 0 0 0.05859,-0.21094 0.15499949,0.15499949 0 0 0 -0.0918,-0.0723 z"
           id="path1406"
           transform="translate(-69.318613,-90.742505)" /><path
           style="color:#000000;fill:#ffffff;stroke-linecap:round;stroke-linejoin:round;-inkscape-stroke:none"
           d="m 80.355469,112.42578 a 0.15499949,0.15499949 0 0 0 -0.15625,0.1543 v 1.18164 a 0.15501499,0.15501499 0 0 0 0.15625,0.15625 h 0.763672 a 0.15499949,0.15499949 0 0 0 0.15625,-0.15625 0.15499949,0.15499949 0 0 0 -0.15625,-0.1543 h -0.609375 v -1.02734 a 0.15499949,0.15499949 0 0 0 -0.154297,-0.1543 z"
           id="path1408"
           transform="translate(-69.318613,-90.742505)" /><path
           style="color:#000000;fill:#ffffff;stroke-linecap:round;stroke-linejoin:round;-inkscape-stroke:none"
           d="m 84.060547,112.42578 a 0.15499949,0.15499949 0 0 0 -0.154297,0.1543 v 1.18164 a 0.15501499,0.15501499 0 0 0 0.154297,0.15625 h 0.765625 a 0.15499949,0.15499949 0 0 0 0.154297,-0.15625 0.15499949,0.15499949 0 0 0 -0.154297,-0.1543 h -0.611328 v -1.02734 a 0.15499949,0.15499949 0 0 0 -0.154297,-0.1543 z"
           id="path1410"
           transform="translate(-69.318613,-90.742505)" /><path
           style="color:#000000;fill:#ffffff;stroke-linecap:round;stroke-linejoin:round;-inkscape-stroke:none"
           d="m 83.5625,112.39648 a 0.15499949,0.15499949 0 0 0 -0.152344,0.15625 c 0,0 3.36e-4,0.24787 -0.0078,0.51172 -0.0041,0.13193 -0.0095,0.26747 -0.01953,0.375 -0.005,0.0538 -0.0115,0.10146 -0.01758,0.13477 -0.0061,0.0333 -0.0186,0.0558 -0.0078,0.0371 0.02501,-0.0433 0.0092,-0.009 -0.04492,0.004 -0.05409,0.0126 -0.133233,0.02 -0.210938,0.0195 -0.0777,-4.5e-4 -0.156623,-0.009 -0.208984,-0.0215 -0.05236,-0.0127 -0.06184,-0.0498 -0.0332,0.008 0.0098,0.0197 -0.01886,-0.0781 -0.02734,-0.18554 -0.0085,-0.10743 -0.0116,-0.242 -0.01367,-0.3711 -0.0041,-0.25818 0,-0.49804 0,-0.49804 a 0.15499949,0.15499949 0 0 0 -0.15039,-0.15821 0.15499949,0.15499949 0 0 0 -0.158203,0.15039 c 0,0 -0.0062,0.24605 -0.002,0.51172 0.0021,0.13284 0.0063,0.27004 0.01563,0.38867 0.0094,0.11863 0.0096,0.20015 0.05859,0.29883 0.06068,0.12209 0.15229,0.13544 0.238281,0.15625 0.08599,0.0208 0.181964,0.0307 0.279297,0.0312 0.09733,5.6e-4 0.195192,-0.009 0.283203,-0.0293 0.08801,-0.0204 0.177633,-0.0366 0.242188,-0.14844 0.03056,-0.0529 0.03622,-0.091 0.04492,-0.13867 0.0087,-0.0477 0.01597,-0.10078 0.02148,-0.16016 0.01103,-0.11875 0.0173,-0.25899 0.02148,-0.39453 0.0084,-0.27108 0.0059,-0.52344 0.0059,-0.52344 a 0.15499949,0.15499949 0 0 0 -0.15625,-0.1543 z"
           id="path1412"
           transform="translate(-69.318613,-90.742505)" /><path
           style="color:#000000;fill:#ffffff;stroke-linecap:round;stroke-linejoin:round;-inkscape-stroke:none"
           d="m 86.03125,112.39648 a 0.15499949,0.15499949 0 0 0 -0.154297,0.15625 c 0,0 0.0023,0.24787 -0.0059,0.51172 -0.0041,0.13193 -0.01149,0.26747 -0.02148,0.375 -0.005,0.0538 -0.0095,0.10146 -0.01563,0.13477 -0.0061,0.0333 -0.0186,0.0558 -0.0078,0.0371 0.02501,-0.0433 0.0072,-0.009 -0.04687,0.004 -0.05409,0.0126 -0.13128,0.02 -0.208985,0.0195 -0.0777,-4.5e-4 -0.156623,-0.009 -0.208984,-0.0215 -0.05236,-0.0127 -0.06379,-0.0498 -0.03516,0.008 0.0098,0.0197 -0.0169,-0.0781 -0.02539,-0.18554 -0.0085,-0.10743 -0.01355,-0.242 -0.01563,-0.3711 -0.0041,-0.25818 0.002,-0.49804 0.002,-0.49804 a 0.15499949,0.15499949 0 0 0 -0.15039,-0.15821 0.15499949,0.15499949 0 0 0 -0.160157,0.15039 c 0,0 -0.0043,0.24605 0,0.51172 0.0021,0.13284 0.0063,0.27004 0.01563,0.38867 0.0094,0.11863 0.0076,0.20015 0.05664,0.29883 0.06068,0.12209 0.154243,0.13544 0.240234,0.15625 0.08599,0.0208 0.181964,0.0307 0.279297,0.0312 0.09733,5.6e-4 0.193238,-0.009 0.28125,-0.0293 0.08801,-0.0204 0.179586,-0.0366 0.244141,-0.14844 0.03056,-0.0529 0.03622,-0.091 0.04492,-0.13867 0.0087,-0.0477 0.01402,-0.10078 0.01953,-0.16016 0.01103,-0.11875 0.01925,-0.25899 0.02344,-0.39453 0.0084,-0.27108 0.0059,-0.52344 0.0059,-0.52344 a 0.15499949,0.15499949 0 0 0 -0.15625,-0.1543 z"
           id="path1414"
           transform="translate(-69.318613,-90.742505)" /><path
           style="color:#000000;fill:#ffffff;stroke-linecap:round;stroke-linejoin:round;-inkscape-stroke:none"
           d="m 86.775391,112.42578 c -0.0842,-0.002 -0.183531,0.0107 -0.273438,0.0742 -0.08991,0.0635 -0.151111,0.17789 -0.162109,0.31055 -0.01023,0.12332 0.05548,0.22388 0.123047,0.29297 0.06757,0.0691 0.14493,0.12229 0.21875,0.17187 0.07382,0.0496 0.144004,0.0954 0.1875,0.13281 0.0435,0.0374 0.0461,0.0591 0.04492,0.041 0.0047,0.0729 -0.01337,0.0992 -0.03906,0.12305 -0.02569,0.0239 -0.07138,0.043 -0.125,0.0469 -0.05362,0.004 -0.111156,-0.009 -0.140625,-0.0254 -0.02947,-0.016 -0.02148,-0.0155 -0.02148,-0.0137 a 0.15499949,0.15499949 0 0 0 -0.15625,-0.1543 0.15499949,0.15499949 0 0 0 -0.154297,0.1543 c 0,0.13114 0.08917,0.23575 0.183593,0.28711 0.09443,0.0513 0.201389,0.0705 0.310547,0.0625 0.109159,-0.008 0.223482,-0.0463 0.314453,-0.13086 0.09097,-0.0846 0.146443,-0.21971 0.136719,-0.36914 -0.008,-0.12243 -0.08362,-0.19677 -0.152344,-0.25586 -0.06872,-0.0591 -0.144142,-0.10876 -0.214843,-0.15625 -0.0707,-0.0475 -0.135736,-0.0939 -0.171875,-0.13086 -0.03614,-0.0369 -0.03516,-0.0488 -0.03516,-0.0488 0.0055,-0.0668 0.01884,-0.0752 0.03125,-0.084 0.01241,-0.009 0.04394,-0.0187 0.08789,-0.0176 0.08791,0.002 0.195313,0.0449 0.195313,0.0449 a 0.15499949,0.15499949 0 0 0 0.203125,-0.082 0.15499949,0.15499949 0 0 0 -0.08203,-0.20313 c 0,0 -0.140185,-0.0659 -0.308593,-0.0703 z"
           id="path1416"
           transform="translate(-69.318613,-90.742505)" /><path
           style="color:#000000;fill:#ffffff;stroke-linecap:round;stroke-linejoin:round;-inkscape-stroke:none"
           d="m 88.337891,112.35547 c -0.205973,0 -0.360356,0.0483 -0.462891,0.10156 -0.102535,0.0532 -0.164062,0.1211 -0.164063,0.1211 a 0.15499949,0.15499949 0 0 0 0.01758,0.21875 0.15499949,0.15499949 0 0 0 0.21875,-0.0176 c 0,0 0.0095,-0.0153 0.07031,-0.0469 0.06076,-0.0315 0.162484,-0.0684 0.320313,-0.0684 0.136692,0 0.141314,0.03 0.162109,0.0801 0.0208,0.0501 0.02148,0.1325 0.02148,0.20313 0,-0.0416 0.0056,-0.0269 -0.0039,-0.01 -0.0095,0.0171 -0.02657,0.0442 -0.05078,0.0762 -0.04843,0.064 -0.121002,0.14662 -0.203125,0.23047 -0.164247,0.16771 -0.377237,0.3442 -0.50586,0.41016 a 0.15501499,0.15501499 0 0 0 0.07227,0.29297 h 0.878906 a 0.15499949,0.15499949 0 0 0 0.15625,-0.15625 0.15499949,0.15499949 0 0 0 -0.15625,-0.1543 h -0.443359 c 0.07363,-0.0647 0.151714,-0.10733 0.21875,-0.17578 0.08944,-0.0913 0.168423,-0.18029 0.228516,-0.25977 0.03005,-0.0397 0.05568,-0.0763 0.07617,-0.11328 0.02049,-0.037 0.04297,-0.0691 0.04297,-0.14062 0,-0.0493 0.01283,-0.18321 -0.04492,-0.32227 -0.05775,-0.13906 -0.222109,-0.26953 -0.449218,-0.26953 z"
           id="path1418"
           transform="translate(-69.318613,-90.742505)" /><path
           style="color:#000000;fill:#ffffff;stroke-linecap:round;stroke-linejoin:round;-inkscape-stroke:none"
           d="m 91.099609,112.35547 c -0.205973,0 -0.360355,0.0483 -0.46289,0.10156 -0.102535,0.0532 -0.164063,0.1211 -0.164063,0.1211 a 0.15499949,0.15499949 0 0 0 0.01758,0.21875 0.15499949,0.15499949 0 0 0 0.21875,-0.0176 c 0,0 0.0095,-0.0153 0.07031,-0.0469 0.06076,-0.0315 0.162484,-0.0684 0.320312,-0.0684 0.136693,0 0.141315,0.03 0.16211,0.0801 0.0208,0.0501 0.02148,0.1325 0.02148,0.20313 0,-0.0416 0.0056,-0.0269 -0.0039,-0.01 -0.0095,0.0171 -0.02657,0.0442 -0.05078,0.0762 -0.04843,0.064 -0.121002,0.14662 -0.203125,0.23047 -0.164247,0.16771 -0.377237,0.3442 -0.50586,0.41016 a 0.15501499,0.15501499 0 0 0 0.07227,0.29297 h 0.878906 a 0.15499949,0.15499949 0 0 0 0.15625,-0.15625 0.15499949,0.15499949 0 0 0 -0.15625,-0.1543 H 91.02735 c 0.07363,-0.0647 0.151713,-0.10733 0.21875,-0.17578 0.08944,-0.0913 0.168423,-0.18029 0.228515,-0.25977 0.03005,-0.0397 0.05568,-0.0763 0.07617,-0.11328 0.02049,-0.037 0.04297,-0.0691 0.04297,-0.14062 0,-0.0493 0.01283,-0.18321 -0.04492,-0.32227 -0.05775,-0.13906 -0.222109,-0.26953 -0.449219,-0.26953 z"
           id="path1420"
           transform="translate(-69.318613,-90.742505)" /><path
           style="color:#000000;fill:#ffffff;stroke-linecap:round;stroke-linejoin:round;-inkscape-stroke:none"
           d="m 92.210937,112.36133 c -0.212857,0.008 -0.392578,0.0918 -0.392578,0.0918 a 0.15499949,0.15499949 0 0 0 -0.07813,0.20507 0.15499949,0.15499949 0 0 0 0.203125,0.0781 c 0,0 0.145185,-0.0594 0.279297,-0.0644 0.06706,-0.003 0.124624,0.008 0.160156,0.0312 0.03553,0.0229 0.06444,0.0556 0.08008,0.15429 0.01224,0.0772 -7e-5,0.0869 -0.01758,0.10352 -0.01751,0.0166 -0.06468,0.0364 -0.126953,0.0449 -0.124554,0.0171 -0.277343,-0.01 -0.277343,-0.01 -0.0033,9e-5 -0.03711,-0.004 -0.03711,-0.004 a 0.15501499,0.15501499 0 0 0 -0.02539,0.30664 c 0,0 0.03378,10e-4 0.03711,0.002 v 0.002 c 0,0 0.154093,-0.003 0.292969,0.0371 0.06944,0.02 0.131166,0.0498 0.164062,0.082 0.0329,0.0322 0.04815,0.0586 0.04297,0.12695 2.11e-4,-0.003 -0.02557,0.0532 -0.01172,0.0352 -0.0055,0.007 -0.03412,0.0268 -0.08789,0.041 -0.05475,0.0145 -0.127874,0.0237 -0.199219,0.0254 -0.07134,0.002 -0.140666,-0.004 -0.191406,-0.008 -0.05074,-0.004 -0.0702,-0.006 -0.07031,-0.006 a 0.15499949,0.15499949 0 0 0 -0.183594,0.11719 0.15499949,0.15499949 0 0 0 0.117188,0.18554 c 1.11e-4,3e-5 0.05067,0.007 0.109375,0.0117 0.0587,0.005 0.137895,0.01 0.224609,0.008 0.08671,-0.002 0.182111,-0.009 0.273438,-0.0332 0.09133,-0.0242 0.185089,-0.0646 0.253906,-0.1543 0.05439,-0.071 0.06841,-0.12243 0.07422,-0.19921 0.01135,-0.14957 -0.04706,-0.28515 -0.134766,-0.3711 -0.0091,-0.009 -0.02174,-0.008 -0.03125,-0.0156 4.27e-4,-4.1e-4 -4.25e-4,-0.002 0,-0.002 0.08873,-0.0851 0.134889,-0.22631 0.111328,-0.375 -0.02609,-0.16468 -0.108517,-0.29421 -0.21875,-0.36523 -0.110233,-0.071 -0.233415,-0.086 -0.339844,-0.082 z"
           id="path1422"
           transform="translate(-69.318613,-90.742505)" /><path
           style="color:#000000;fill:#ffffff;stroke-linecap:round;stroke-linejoin:round;-inkscape-stroke:none"
           d="m 89.699219,112.37891 c -0.395158,0 -0.697266,0.35735 -0.697266,0.77148 0,0.41413 0.302108,0.77149 0.697266,0.77149 0.395157,0 0.699218,-0.35736 0.699218,-0.77149 0,-0.41413 -0.304061,-0.77148 -0.699218,-0.77148 z m 0,0.31054 c 0.205326,0 0.388672,0.19467 0.388672,0.46094 0,0.26627 -0.183346,0.46094 -0.388672,0.46094 -0.205326,0 -0.388672,-0.19467 -0.388672,-0.46094 0,-0.26627 0.183346,-0.46094 0.388672,-0.46094 z"
           id="path1424"
           transform="translate(-69.318613,-90.742505)" /><path
           style="color:#000000;fill:#ff2a16;stroke-linecap:round;stroke-linejoin:round;-inkscape-stroke:none"
           d="m 84.417969,92.417969 a 0.2550255,0.2550255 0 0 0 -0.28711,0.103515 l -2,2.992188 a 0.2550255,0.2550255 0 0 0 -0.04297,0.142578 v 11.82227 a 0.2550255,0.2550255 0 0 0 0.07617,0.17968 l 2,2 a 0.2550255,0.2550255 0 0 0 0.435547,-0.17968 V 92.662109 a 0.2550255,0.2550255 0 0 0 -0.18164,-0.24414 z m -0.330078,1.08789 v 15.357421 l -1.488282,-1.49023 V 95.734375 Z"
           id="path1426"
           transform="translate(-69.318613,-90.742505)" /><path
           style="color:#000000;fill:#ff2a16;stroke-linecap:round;stroke-linejoin:round;-inkscape-stroke:none"
           d="m 81.683594,100.61133 -3.955078,0.008 a 0.2550255,0.2550255 0 0 0 -0.230469,0.14649 l -2,4.29882 a 0.2550255,0.2550255 0 0 0 0,0.21485 l 2,4.30664 a 0.2550255,0.2550255 0 0 0 0.230469,0.14844 h 6.615234 a 0.255,0.255 0 0 0 0.255859,-0.25586 0.255,0.255 0 0 0 -0.255859,-0.25586 h -6.453125 l -1.880859,-4.05078 1.880859,-4.04297 3.792969,-0.008 a 0.255,0.255 0 0 0 0.255859,-0.25586 0.255,0.255 0 0 0 -0.255859,-0.2539 z"
           id="path1428"
           transform="translate(-69.318613,-90.742505)" /><path
           style="color:#000000;fill:#ff2a16;stroke-linecap:round;stroke-linejoin:round;-inkscape-stroke:none"
           d="m 79.009766,102.60938 a 0.2550255,0.2550255 0 0 0 -0.232422,0.15039 l -1.050782,2.30664 a 0.2550255,0.2550255 0 0 0 0,0.21093 l 1.050782,2.30664 a 0.2550255,0.2550255 0 0 0 0.232422,0.1504 h 3.333984 a 0.255,0.255 0 0 0 0.255859,-0.25586 0.255,0.255 0 0 0 -0.255859,-0.25586 h -3.169922 l -0.935547,-2.05078 0.935547,-2.05079 h 2.509766 a 0.255,0.255 0 0 0 0.255859,-0.25586 0.255,0.255 0 0 0 -0.255859,-0.2539 z"
           id="path1430"
           transform="translate(-69.318613,-90.742505)" /><path
           style="color:#000000;fill:#ff2a16;stroke-linecap:round;stroke-linejoin:round;-inkscape-stroke:none"
           d="m 84.90625,100.64844 a 0.255,0.255 0 0 0 -0.08789,0.34961 l 3.771485,6.30078 -0.945313,1.34961 -2.386719,-4.03321 a 0.255,0.255 0 0 0 -0.349609,-0.0898 0.255,0.255 0 0 0 -0.08984,0.34766 l 2.587891,4.375 a 0.2550255,0.2550255 0 0 0 0.429687,0.0176 l 1.265625,-1.8086 a 0.2550255,0.2550255 0 0 0 0.0098,-0.27734 l -3.853516,-6.44336 a 0.255,0.255 0 0 0 -0.351562,-0.0879 z"
           id="path1432"
           transform="translate(-69.318613,-90.742505)" /><path
           style="color:#000000;fill:#ff2a16;stroke-linecap:round;stroke-linejoin:round;-inkscape-stroke:none"
           d="m 93.40625,100.61133 a 0.2550255,0.2550255 0 0 0 -0.208984,0.10937 l -7.083985,10.11914 a 0.255,0.255 0 0 0 0.0625,0.35547 0.255,0.255 0 0 0 0.355469,-0.0625 l 7.007812,-10.01172 h 1.816407 l -6.802735,9.71875 a 0.255,0.255 0 0 0 0.0625,0.35547 0.255,0.255 0 0 0 0.355469,-0.0625 l 7.083984,-10.11914 a 0.2550255,0.2550255 0 0 0 -0.208984,-0.40234 z"
           id="path1434"
           transform="translate(-69.318613,-90.742505)" /><path
           style="color:#000000;fill:#ff2a16;stroke-linecap:round;stroke-linejoin:round;-inkscape-stroke:none"
           d="m 72.099609,111.35742 a 0.255,0.255 0 0 0 -0.255859,0.25586 0.255,0.255 0 0 0 0.255859,0.25391 h 26.09375 a 0.255,0.255 0 0 0 0.25586,-0.25391 0.255,0.255 0 0 0 -0.25586,-0.25586 z"
           id="path1436"
           transform="translate(-69.318613,-90.742505)" /><path
           style="color:#000000;fill:#ff2a16;stroke-linecap:round;stroke-linejoin:round;-inkscape-stroke:none"
           d="m 72.099609,114.41602 a 0.255,0.255 0 0 0 -0.255859,0.25586 0.255,0.255 0 0 0 0.255859,0.2539 h 26.09375 a 0.255,0.255 0 0 0 0.25586,-0.2539 0.255,0.255 0 0 0 -0.25586,-0.25586 z"
           id="path1438"
           transform="translate(-69.318613,-90.742505)" /><path
           style="color:#000000;fill:#ff2a16;stroke-linecap:round;stroke-linejoin:round;-inkscape-stroke:none"
           d="m 83.177734,115.16211 a 0.255,0.255 0 0 0 -0.164062,0.10547 l -0.878906,1.2539 a 0.2550255,0.2550255 0 0 0 -0.04687,0.14649 v 11.2207 a 0.2550255,0.2550255 0 0 0 0.07617,0.18164 l 2,2 a 0.2550255,0.2550255 0 0 0 0.435547,-0.18164 v -12.51172 l 1.271485,-1.8164 a 0.255,0.255 0 0 0 -0.0625,-0.35547 0.255,0.255 0 0 0 -0.355469,0.0625 l -1.318359,1.88281 a 0.2550255,0.2550255 0 0 0 -0.04687,0.14649 v 11.97656 l -1.488282,-1.49024 v -11.03515 l 0.832032,-1.1875 a 0.255,0.255 0 0 0 -0.06445,-0.35547 0.255,0.255 0 0 0 -0.189453,-0.043 z"
           id="path1440"
           transform="translate(-69.318613,-90.742505)" /><path
           style="color:#000000;fill:#ff2a16;stroke-linecap:round;stroke-linejoin:round;-inkscape-stroke:none"
           d="m 79.009766,123.02148 a 0.2550255,0.2550255 0 0 0 -0.232422,0.14844 l -1.050782,2.30664 a 0.2550255,0.2550255 0 0 0 0,0.21485 l 1.052735,2.24414 a 0.2550255,0.2550255 0 0 0 0.224609,0.14648 l 3.335938,0.0625 a 0.255,0.255 0 0 0 0.259765,-0.25 0.255,0.255 0 0 0 -0.251953,-0.25976 l -3.173828,-0.0606 -0.935547,-1.99219 0.935547,-2.05078 h 2.509766 a 0.255,0.255 0 0 0 0.255859,-0.25586 0.255,0.255 0 0 0 -0.255859,-0.25391 z"
           id="path1442"
           transform="translate(-69.318613,-90.742505)" /><path
           style="color:#000000;fill:#ff2a16;stroke-linecap:round;stroke-linejoin:round;-inkscape-stroke:none"
           d="m 85.021484,121.01953 a 0.255,0.255 0 0 0 -0.255859,0.25391 0.255,0.255 0 0 0 0.255859,0.25586 h 1.697266 l 8.115234,8.10547 h -2.11914 l -6.53711,-6.54102 a 0.2550255,0.2550255 0 0 0 -0.18164,-0.0742 h -0.97461 a 0.255,0.255 0 0 0 -0.255859,0.25391 0.255,0.255 0 0 0 0.255859,0.25586 h 0.869141 l 6.539062,6.54101 a 0.2550255,0.2550255 0 0 0 0.179688,0.0742 h 2.839844 a 0.2550255,0.2550255 0 0 0 0.179687,-0.43555 l -8.623047,-8.61523 a 0.2550255,0.2550255 0 0 0 -0.18164,-0.0742 z"
           id="path1444"
           transform="translate(-69.318613,-90.742505)" /><path
           style="color:#000000;fill:#ff2a16;stroke-linecap:round;stroke-linejoin:round;-inkscape-stroke:none"
           d="m 81.683594,121.01953 -3.955078,0.01 a 0.2550255,0.2550255 0 0 0 -0.230469,0.14648 l -2,4.29883 a 0.2550255,0.2550255 0 0 0 0,0.21484 l 2,4.30664 a 0.2550255,0.2550255 0 0 0 0.230469,0.14844 h 6.615234 a 0.255,0.255 0 0 0 0.255859,-0.25586 0.255,0.255 0 0 0 -0.255859,-0.2539 h -6.453125 l -1.880859,-4.05274 1.880859,-4.04297 3.792969,-0.01 a 0.255,0.255 0 0 0 0.255859,-0.25586 0.255,0.255 0 0 0 -0.255859,-0.25391 z"
           id="path1446"
           transform="translate(-69.318613,-90.742505)" /><path
           style="color:#000000;fill:#ff2a16;stroke-linecap:round;stroke-linejoin:round;-inkscape-stroke:none"
           d="m 93.130859,120.85547 a 0.2550255,0.2550255 0 0 0 -0.179687,0.0762 l -2.792969,2.7832 a 0.255,0.255 0 0 0 -0.002,0.36133 0.255,0.255 0 0 0 0.361328,0 l 2.71875,-2.70898 h 2.044922 l -3.705078,3.75195 a 0.255,0.255 0 0 0 0.002,0.35938 0.255,0.255 0 0 0 0.359375,-0.002 l 4.136719,-4.18554 a 0.2550255,0.2550255 0 0 0 -0.181641,-0.43555 z"
           id="path1448"
           transform="translate(-69.318613,-90.742505)" /><path
           style="color:#000000;fill:#ff2a16;stroke-linecap:round;stroke-linejoin:round;-inkscape-stroke:none"
           d="m 87.816406,126.05664 -3.652344,3.65234 a 0.2550255,0.2550255 0 0 0 0.179688,0.43555 h 2.916016 a 0.2550255,0.2550255 0 0 0 0.183593,-0.0781 l 2.160157,-2.24805 a 0.255,0.255 0 0 0 -0.0078,-0.35938 0.255,0.255 0 0 0 -0.359375,0.006 l -2.085937,2.16993 h -2.191407 l 3.216797,-3.21875 a 0.255,0.255 0 0 0 0,-0.35938 0.255,0.255 0 0 0 -0.359375,0 z"
           id="path1450"
           transform="translate(-69.318613,-90.742505)" /></g></clipPath></defs><rect
     style="fill:#1b1b1b;fill-rule:evenodd;stroke-width:0.264583;fill-opacity:1"
     id="rect1587"
     width="31.858568"
     height="42.362801"
     x="-0.22284128"
     y="0.097756267" /><rect
     style="display:inline;fill:url(#linearGradient1036);fill-opacity:1;stroke:none;stroke-width:0.338;stroke-linecap:round;stroke-linejoin:round;stroke-dasharray:none;stroke-opacity:1"
     id="background"
     width="31.741821"
     height="42.49086"
     x="0"
     y="0"
     sodipodi:insensitive="true"
     clip-path="url(#clipPath1398)"
     inkscape:export-filename="Hoodies\Vitez - L (Sweatshirt).png"
     inkscape:export-xdpi="2400.6201"
     inkscape:export-ydpi="2400.6201" /><g
     id="logo"
     transform="translate(-69.318613,-90.742505)"
     style="display:none"><path
       style="fill:none;fill-opacity:1;stroke:#ffffff;stroke-width:0.51;stroke-linecap:round;stroke-linejoin:round;stroke-dasharray:none;stroke-opacity:1"
       d="m 84.343747,109.47852 -2.000001,-2 V 95.656126 l 2.000001,-2.993273 z"
       id="path9840"
       inkscape:export-filename="Hoodies/Eden - M.png"
       inkscape:export-xdpi="2864.2283"
       inkscape:export-ydpi="2864.2283" /><path
       style="fill:none;fill-opacity:1;stroke:#ffffff;stroke-width:0.51;stroke-linecap:round;stroke-linejoin:round;stroke-dasharray:none;stroke-opacity:1"
       d="m 84.343747,109.47852 h -6.615234 l -1.999999,-4.30624 1.999999,-4.29865 3.955394,-0.007"
       id="path10058" /><path
       style="fill:none;fill-opacity:1;stroke:#ffffff;stroke-width:0.51;stroke-linecap:round;stroke-linejoin:round;stroke-dasharray:none;stroke-opacity:1"
       d="m 82.343746,107.47852 -3.334088,1e-5 -1.051699,-2.30625 1.051699,-2.30704 2.674246,2.6e-4"
       id="path10062"
       sodipodi:nodetypes="ccccc" /><path
       style="fill:none;fill-opacity:1;stroke:#ffffff;stroke-width:0.51;stroke-linecap:round;stroke-linejoin:round;stroke-dasharray:none;stroke-opacity:1"
       d="m 85.038112,100.86663 3.854505,6.44391 -1.266153,1.80849 -2.588352,-4.37489"
       id="path10070"
       sodipodi:nodetypes="cccc" /><path
       style="fill:none;fill-opacity:1;stroke:#ffffff;stroke-width:0.51;stroke-linecap:round;stroke-linejoin:round;stroke-dasharray:none;stroke-opacity:1"
       d="m 86.321478,110.98586 7.084205,-10.11923 h 2.440283 l -7.083873,10.11923"
       id="path10074"
       sodipodi:nodetypes="cccc" /><path
       style="fill:none;fill-opacity:1;stroke:#ffffff;stroke-width:0.51;stroke-linecap:round;stroke-linejoin:round;stroke-dasharray:none;stroke-opacity:1"
       d="M 72.099608,111.61289 H 98.193633"
       id="path10076" /><path
       style="fill:none;fill-opacity:1;stroke:#ffffff;stroke-width:0.51;stroke-linecap:round;stroke-linejoin:round;stroke-dasharray:none;stroke-opacity:1"
       d="M 98.193633,114.67123 H 72.099608"
       id="path10078" /><path
       style="fill:none;fill-opacity:1;stroke:#ffffff;stroke-width:0.51;stroke-linecap:round;stroke-linejoin:round;stroke-dasharray:none;stroke-opacity:1"
       d="m 83.221854,115.41388 -0.878108,1.25461 v 11.2207 l 2.000001,2 v -12.59181 l 1.318539,-1.8835"
       id="path10086" /><path
       style="fill:none;fill-opacity:1;stroke:#ffffff;stroke-width:0.51;stroke-linecap:round;stroke-linejoin:round;stroke-dasharray:none;stroke-opacity:1"
       d="m 82.343746,127.88919 -3.334088,-0.0625 -1.051699,-2.24391 1.051699,-2.30691 2.674246,2.6e-4"
       id="path10088"
       sodipodi:nodetypes="ccccc" /><path
       style="fill:none;fill-opacity:1;stroke:#ffffff;stroke-width:0.51;stroke-linecap:round;stroke-linejoin:round;stroke-dasharray:none;stroke-opacity:1"
       d="m 85.021531,121.27396 h 1.803359 l 8.624651,8.61523 h -2.839582 l -6.613191,-6.61523 h -0.975237"
       id="path10820"
       sodipodi:nodetypes="cccccc" /><path
       style="fill:none;fill-opacity:1;stroke:#ffffff;stroke-width:0.51;stroke-linecap:round;stroke-linejoin:round;stroke-dasharray:none;stroke-opacity:1"
       d="m 81.683904,121.27396 -3.955391,0.0102 -1.999999,4.29865 1.999999,4.30624 h 6.615234"
       id="path10824"
       sodipodi:nodetypes="ccccc" /><path
       style="fill:none;fill-opacity:1;stroke:#ffffff;stroke-width:0.51;stroke-linecap:round;stroke-linejoin:round;stroke-dasharray:none;stroke-opacity:1"
       d="m 90.337747,123.89554 2.79377,-2.78424 h 2.760479 l -4.135069,4.18612"
       id="path10902" /><path
       style="fill:none;fill-opacity:1;stroke:#ffffff;stroke-width:0.51;stroke-linecap:round;stroke-linejoin:round;stroke-dasharray:none;stroke-opacity:1"
       d="m 87.996182,126.23607 -3.652695,3.65312 h 2.915506 l 2.160616,-2.24705"
       id="path10906" /></g><g
     id="calc2023"
     transform="translate(-69.318613,-90.742505)"
     style="display:none"><path
       style="fill:none;stroke:#910bea;stroke-width:0.31;stroke-linecap:round;stroke-linejoin:round;stroke-dasharray:none;stroke-opacity:1"
       d="m 78.581249,112.70837 c 0,0 -0.136427,-0.16537 -0.367938,-0.16537 -0.23151,0 -0.529165,0.21977 -0.529165,0.61665 0,0.48716 0.413409,0.60704 0.529165,0.60704 0.268717,0 0.367938,-0.11988 0.367938,-0.11988"
       id="path515" /><path
       style="fill:none;stroke:#910bea;stroke-width:0.31;stroke-linecap:round;stroke-linejoin:round;stroke-dasharray:none;stroke-opacity:1"
       d="m 82.262385,112.70837 c 0,0 -0.136427,-0.16537 -0.367938,-0.16537 -0.23151,0 -0.529165,0.21977 -0.529165,0.61665 0,0.48716 0.413409,0.60704 0.529165,0.60704 0.268717,0 0.367938,-0.11988 0.367938,-0.11988"
       id="path515-2" /><path
       style="fill:none;stroke:#910bea;stroke-width:0.309999;stroke-linecap:round;stroke-linejoin:round;stroke-dasharray:none;stroke-opacity:1"
       d="m 78.91926,113.73281 c 0,0 0.230938,-1.16097 0.488185,-1.16097 0.257249,0 0.494032,1.16097 0.494032,1.16097"
       id="path1179" /><path
       style="fill:none;stroke:#910bea;stroke-width:0.309999;stroke-linecap:round;stroke-linejoin:round;stroke-dasharray:none;stroke-opacity:1"
       d="m 79.08004,113.36565 c 0.198028,0.0936 0.406746,0.14577 0.666505,0"
       id="path1181-7" /><path
       style="fill:none;stroke:#910bea;stroke-width:0.309999;stroke-linecap:round;stroke-linejoin:round;stroke-dasharray:none;stroke-opacity:1"
       d="m 80.354783,112.58021 v 1.18235 h 0.764812"
       id="path1205" /><path
       style="fill:none;stroke:#910bea;stroke-width:0.309999;stroke-linecap:round;stroke-linejoin:round;stroke-dasharray:none;stroke-opacity:1"
       d="m 84.06079,112.58021 v 1.18235 h 0.764812"
       id="path1205-9" /><path
       style="fill:none;stroke:#910bea;stroke-width:0.309999;stroke-linecap:round;stroke-linejoin:round;stroke-dasharray:none;stroke-opacity:1"
       d="m 82.663958,112.56306 c 0,0 -0.02243,0.96878 0.05604,1.12667 0.06409,0.12895 0.692658,0.13697 0.771739,0 0.07908,-0.13698 0.07258,-1.13836 0.07258,-1.13836"
       id="path1238" /><path
       style="fill:none;stroke:#910bea;stroke-width:0.309999;stroke-linecap:round;stroke-linejoin:round;stroke-dasharray:none;stroke-opacity:1"
       d="m 85.1322,112.56306 c 0,0 -0.02243,0.96878 0.05604,1.12667 0.06409,0.12895 0.692658,0.13697 0.771739,0 0.07908,-0.13698 0.07258,-1.13836 0.07258,-1.13836"
       id="path1238-3" /><path
       style="fill:none;stroke:#910bea;stroke-width:0.309999;stroke-linecap:round;stroke-linejoin:round;stroke-dasharray:none;stroke-opacity:1"
       d="m 87.023111,112.63809 c 0,0 -0.496094,-0.21288 -0.529167,0.18603 -0.02046,0.24675 0.561067,0.40735 0.574642,0.61598 0.02894,0.44472 -0.636653,0.39924 -0.636653,0.14057"
       id="path1309" /><path
       style="fill:none;stroke:#910bea;stroke-width:0.309999;stroke-linecap:round;stroke-linejoin:round;stroke-dasharray:none;stroke-opacity:1"
       d="m 87.829261,112.67943 c 0,0 0.144696,-0.1695 0.508498,-0.1695 0.363802,0 0.338998,0.31833 0.338998,0.43821 0,0.1199 -0.525034,0.678 -0.847496,0.84336 h 0.880568"
       id="path1311" /><path
       style="fill:none;stroke:#910bea;stroke-width:0.309999;stroke-linecap:round;stroke-linejoin:round;stroke-dasharray:none;stroke-opacity:1"
       d="m 90.59085,112.67943 c 0,0 0.144696,-0.1695 0.508498,-0.1695 0.363802,0 0.338998,0.31833 0.338998,0.43821 0,0.1199 -0.525034,0.678 -0.847496,0.84336 h 0.880568"
       id="path1311-6" /><path
       style="fill:none;stroke:#910bea;stroke-width:0.309999;stroke-linecap:round;stroke-linejoin:round;stroke-dasharray:none;stroke-opacity:1"
       d="m 91.880999,112.59523 c 0,0 0.652201,-0.28934 0.735679,0.23747 0.07183,0.45329 -0.607055,0.31502 -0.607055,0.31502 0,0 0.69283,-0.0234 0.659762,0.41241 -0.0028,0.037 -0.02124,0.0908 -0.04151,0.11725 -0.146992,0.19156 -0.705512,0.11061 -0.705958,0.11051"
       id="path1389"
       sodipodi:nodetypes="csccsc" /><ellipse
       style="fill:none;stroke:#910bea;stroke-width:0.309999;stroke-linecap:round;stroke-linejoin:round;stroke-dasharray:none;stroke-opacity:1"
       id="path1365"
       ry="0.61598307"
       rx="0.54363608"
       cy="113.15072"
       cx="89.699951" /></g></svg>
